<?xml version="1.0" standalone="no"?>
<!DOCTYPE svg PUBLIC "-//W3C//DTD SVG 1.1//EN" "http://www.w3.org/Graphics/SVG/1.1/DTD/svg11.dtd" >
<svg xmlns="http://www.w3.org/2000/svg" xmlns:xlink="http://www.w3.org/1999/xlink" version="1.1">
<metadata>
Created by FontForge 20170731 at Thu Feb  3 20:11:04 2022
 By Aleksey,,,
(c) 2018 MCKL, Inc. All rights reserved.
</metadata>
<defs>
<font id="UberMoveText-Bold" horiz-adv-x="1275" >
  <font-face 
    font-family="Uber Move Text"
    font-weight="700"
    font-stretch="normal"
    units-per-em="2048"
    panose-1="2 1 8 3 3 2 1 6 3 3"
    ascent="1638"
    descent="-410"
    x-height="1090"
    cap-height="1434"
    bbox="-184 -604 4303 2007"
    underline-thickness="102"
    underline-position="-307"
    unicode-range="U+000D-FB02"
  />
<missing-glyph horiz-adv-x="1052" 
d="M123 -205v1741h807v-1741h-807z" />
    <glyph glyph-name=".notdef" horiz-adv-x="1052" 
d="M123 -205v1741h807v-1741h-807z" />
    <glyph glyph-name=".null" horiz-adv-x="0" 
 />
    <glyph glyph-name="uni000D" unicode="&#xd;" horiz-adv-x="446" 
 />
    <glyph glyph-name="NULL" horiz-adv-x="446" 
 />
    <glyph glyph-name="NULL" horiz-adv-x="446" 
 />
    <glyph glyph-name="space" unicode=" " horiz-adv-x="446" 
 />
    <glyph glyph-name="exclam" unicode="!" horiz-adv-x="497" 
d="M367 414h-234l-20 1081h274zM250 283q63 0 106 -43.5t43 -106.5t-43 -106t-106 -43t-107.5 43t-44.5 106t44.5 106.5t107.5 43.5z" />
    <glyph glyph-name="quotedbl" unicode="&#x22;" horiz-adv-x="837" 
d="M129 940l-18 559h251l-18 -559h-215zM496 940l-19 559h252l-18 -559h-215z" />
    <glyph glyph-name="numbersign" unicode="#" horiz-adv-x="1417" 
d="M125 0l115 401h-197v197h252l70 238h-220v196h275l115 402h243l-114 -402h270l115 402h243l-114 -402h194v-196h-250l-69 -238h217v-197h-273l-114 -401h-244l115 401h-271l-114 -401h-244zM539 598h270l70 238h-271z" />
    <glyph glyph-name="dollar" unicode="$" horiz-adv-x="1249" 
d="M721 -133h-193v168q-183 32 -298.5 148t-127.5 282h265q18 -147 161 -197v340l-59 17q-185 48 -275 143t-90 248q0 160 119.5 267.5t304.5 125.5v158h193v-168q169 -34 279 -145.5t133 -274.5h-267q-27 131 -145 182v-334l67 -16q192 -49 279.5 -143t87.5 -248
q0 -159 -116 -269.5t-318 -125.5v-158zM371 1026q0 -61 42 -101.5t115 -58.5v316q-72 -12 -114.5 -52.5t-42.5 -103.5zM721 569v-317q83 10 126.5 50t43.5 101q0 58 -46 102.5t-124 63.5z" />
    <glyph glyph-name="percent" unicode="%" horiz-adv-x="1835" 
d="M426 729q-154 0 -259.5 106.5t-105.5 260.5q0 145 106 251.5t259 106.5q150 0 255 -106.5t105 -251.5q0 -153 -105 -260t-255 -107zM635 0h-207l770 1434h207zM426 905q75 0 128.5 56.5t53.5 134.5q0 72 -54.5 127t-127.5 55q-74 0 -129 -55t-55 -127q0 -78 54.5 -134.5
t129.5 -56.5zM1409 705q154 0 259.5 -106.5t105.5 -260.5q0 -145 -106 -251.5t-259 -106.5q-150 0 -255 106.5t-105 251.5q0 153 105 260t255 107zM1409 528q-75 0 -128.5 -56t-53.5 -134q0 -72 54.5 -127t127.5 -55q75 0 129.5 55t54.5 127q0 78 -54.5 134t-129.5 56z" />
    <glyph glyph-name="ampersand" unicode="&#x26;" horiz-adv-x="1411" 
d="M965 111l-23 22q-165 -162 -397 -162q-215 0 -354.5 114.5t-139.5 291.5q0 132 67 226.5t216 172.5q-131 152 -131 299q0 167 117 274t301 107q180 0 293.5 -99.5t113.5 -256.5q0 -117 -67.5 -207t-210.5 -164l-2 -2l192 -201l197 295l209 -125l-238 -346l51 -53
q48 -51 109 -51h88v-246h-146q-75 0 -131.5 25.5t-113.5 85.5zM578 905l8 -8l22 10q81 38 115.5 79.5t34.5 100.5q0 60 -40 100t-100 40q-63 0 -102 -39t-39 -101q0 -75 101 -182zM336 389q0 -75 62.5 -125.5t156.5 -50.5q134 0 227 90l-282 297q-87 -44 -125.5 -94
t-38.5 -117z" />
    <glyph glyph-name="quotesingle" unicode="'" horiz-adv-x="471" 
d="M129 940l-18 559h251l-18 -559h-215z" />
    <glyph glyph-name="parenleft" unicode="(" horiz-adv-x="831" 
d="M356 682q0 -265 114.5 -471.5t313.5 -312.5l-131 -187q-261 135 -406 391t-145 580t145 580t406 391l131 -187q-199 -106 -313.5 -312.5t-114.5 -471.5z" />
    <glyph glyph-name="parenright" unicode=")" horiz-adv-x="831" 
d="M475 682q0 265 -114.5 471.5t-313.5 312.5l131 187q261 -135 406 -391t145 -580t-145 -580t-406 -391l-131 187q199 106 313.5 312.5t114.5 471.5z" />
    <glyph glyph-name="asterisk" unicode="*" horiz-adv-x="913" 
d="M756 758l-215 135l2 -242h-170l2 242l-217 -135l-88 147l227 137l-227 140l88 145l217 -135l-2 242h170l-2 -242l215 135l90 -145l-230 -140l230 -137z" />
    <glyph glyph-name="plus" unicode="+" horiz-adv-x="1132" 
d="M674 266h-213v363h-363v213h363v354h213v-354h360v-213h-360v-363z" />
    <glyph glyph-name="comma" unicode="," horiz-adv-x="532" 
d="M109 -242q61 12 110 62.5t49 101.5q0 23 -16 42.5t-38.5 35t-45.5 33.5t-39 47t-16 67q0 60 44 104t105 44q83 0 131.5 -64.5t48.5 -173.5q0 -172 -89.5 -288t-243.5 -144v133z" />
    <glyph glyph-name="hyphen" unicode="-" horiz-adv-x="911" 
d="M98 492v241h715v-241h-715z" />
    <glyph glyph-name="period" unicode="." horiz-adv-x="532" 
d="M266 301q66 0 112 -46.5t46 -113.5q0 -66 -46 -111.5t-112 -45.5t-113 45.5t-47 111.5q0 67 47 113.5t113 46.5z" />
    <glyph glyph-name="slash" unicode="/" horiz-adv-x="899" 
d="M276 0h-274l623 1434h274z" />
    <glyph glyph-name="zero" unicode="0" horiz-adv-x="1314" 
d="M115 530v377q0 252 148.5 402.5t391.5 150.5q245 0 394 -150t149 -403v-377q0 -254 -149.5 -405.5t-393.5 -151.5q-243 0 -391.5 151.5t-148.5 405.5zM928 541v356q0 155 -73 240.5t-200 85.5q-125 0 -197.5 -86t-72.5 -240v-356q0 -157 72 -242.5t198 -85.5
q127 0 200 85.5t73 242.5z" />
    <glyph glyph-name="one" unicode="1" horiz-adv-x="1036" 
d="M963 238v-238h-889v238h307v958h-258v238h530v-1196h310z" />
    <glyph glyph-name="two" unicode="2" horiz-adv-x="1150" 
d="M1040 1028q0 -116 -48.5 -216.5t-172.5 -229.5l-334 -351l576 7v-238h-961v176l521 545q82 86 114.5 150t32.5 137q0 96 -63.5 156.5t-161.5 60.5q-174 0 -281 -191l-215 121q76 146 205.5 224.5t302.5 78.5q216 0 350.5 -121.5t134.5 -308.5z" />
    <glyph glyph-name="three" unicode="3" horiz-adv-x="1216" 
d="M596 1460q200 -3 333.5 -116.5t133.5 -280.5q0 -101 -58 -182t-157 -125q118 -42 190 -135.5t72 -212.5q0 -184 -145 -309.5t-369 -125.5q-191 0 -327.5 77t-205.5 214l222 121q96 -178 301 -178q113 0 182.5 61t69.5 154q0 84 -62.5 141.5t-159.5 57.5h-208v223h186
q87 0 143 54t56 136q0 85 -63 139t-161 54q-177 0 -266 -172l-223 114q68 137 199.5 214t316.5 77z" />
    <glyph glyph-name="four" unicode="4" horiz-adv-x="1288" 
d="M766 0v350h-692v205l608 879h356v-854h166v-230h-166v-350h-272zM358 580h408v600z" />
    <glyph glyph-name="five" unicode="5" horiz-adv-x="1210" 
d="M649 926q201 0 329 -129t128 -320q0 -140 -64 -254.5t-182.5 -182t-267.5 -67.5q-185 0 -317.5 77t-200.5 214l219 123q92 -180 280 -180q117 0 190 73t73 183q0 103 -70 171t-191 68q-71 0 -123.5 -22.5t-105.5 -71.5l-221 33l33 793h846v-238h-613l-14 -375
q113 105 272 105z" />
    <glyph glyph-name="six" unicode="6" horiz-adv-x="1269" 
d="M670 1227q-127 0 -209 -113.5t-82 -325.5v-61q29 78 87 130t120.5 72.5t130.5 20.5q125 0 229 -63.5t162.5 -169t58.5 -228.5q0 -226 -141 -369t-356 -143q-254 0 -405.5 183t-151.5 491v103q0 334 148.5 518t406.5 184q319 0 483 -270l-217 -125q-104 166 -264 166z
M657 207q109 0 182.5 74t73.5 186q0 113 -73 186.5t-183 73.5q-108 0 -181 -73.5t-73 -186.5q0 -112 72.5 -186t181.5 -74z" />
    <glyph glyph-name="seven" unicode="7" horiz-adv-x="1179" 
d="M1106 1229l-614 -1229h-318l633 1196h-733v238h1032v-205z" />
    <glyph glyph-name="eight" unicode="8" horiz-adv-x="1269" 
d="M635 -25q-225 0 -372.5 120.5t-147.5 307.5q0 121 75 213t199 129q-104 40 -165.5 123.5t-61.5 190.5q0 170 134.5 285t338.5 114q203 -1 338 -115.5t135 -283.5q0 -107 -61 -190.5t-164 -125.5q123 -38 197.5 -128.5t74.5 -211.5q0 -187 -147 -307.5t-373 -120.5z
M635 844q88 0 148.5 55.5t60.5 136.5q0 85 -59 140t-150 55q-90 0 -149.5 -55.5t-59.5 -139.5q0 -81 60.5 -136.5t148.5 -55.5zM635 629q-107 0 -178.5 -61.5t-71.5 -155.5q0 -90 71 -149.5t179 -59.5t179 59.5t71 149.5q0 93 -72 155t-178 62z" />
    <glyph glyph-name="nine" unicode="9" horiz-adv-x="1269" 
d="M600 207q127 0 209 113t82 325v62q-43 -114 -137 -169t-201 -55q-125 0 -229.5 63.5t-163 169t-58.5 228.5q0 226 141.5 369t356.5 143q254 0 405.5 -183t151.5 -491v-102q0 -335 -148.5 -519t-406.5 -184q-318 0 -483 271l217 125q104 -166 264 -166zM612 1227
q-109 0 -182.5 -74t-73.5 -186q0 -113 73 -186.5t183 -73.5q108 0 181 73.5t73 186.5q0 112 -72.5 186t-181.5 74z" />
    <glyph glyph-name="colon" unicode=":" horiz-adv-x="530" 
d="M266 301q66 0 112 -46.5t46 -113.5q0 -66 -46 -111.5t-112 -45.5t-113 45.5t-47 111.5q0 67 47 113.5t113 46.5zM266 1098q66 0 112 -46.5t46 -113.5q0 -66 -46 -112t-112 -46t-113 46t-47 112q0 67 47 113.5t113 46.5z" />
    <glyph glyph-name="semicolon" unicode=";" horiz-adv-x="532" 
d="M109 -242q61 12 110 62.5t49 101.5q0 23 -16 42.5t-38.5 35t-45.5 33.5t-39 47t-16 67q0 60 44 104t105 44q83 0 131.5 -64.5t48.5 -173.5q0 -172 -89.5 -288t-243.5 -144v133zM276 1098q66 0 112 -46.5t46 -113.5q0 -66 -46 -112t-112 -46t-112.5 46t-46.5 112
q0 67 46.5 113.5t112.5 46.5z" />
    <glyph glyph-name="less" unicode="&#x3c;" horiz-adv-x="847" 
d="M817 1090l-491 -541l497 -549h-295l-505 547l505 543h289z" />
    <glyph glyph-name="equal" unicode="=" horiz-adv-x="1126" 
d="M1028 999v-190h-930v190h930zM1028 641v-190h-930v190h930z" />
    <glyph glyph-name="greater" unicode="&#x3e;" horiz-adv-x="847" 
d="M31 0l491 541l-497 549h294l506 -547l-506 -543h-288z" />
    <glyph glyph-name="question" unicode="?" horiz-adv-x="1052" 
d="M977 1028q0 -164 -107 -284.5t-268 -139.5l-8 -194h-213l-10 403h116q91 0 154.5 58t63.5 141q0 90 -64 149.5t-156 59.5q-161 0 -262 -136l-196 144q183 233 467 233q205 0 344 -125.5t139 -308.5zM487 283q63 0 106.5 -43.5t43.5 -106.5t-43.5 -106t-106.5 -43t-107 43
t-44 106t44 106.5t107 43.5z" />
    <glyph glyph-name="at" unicode="@" horiz-adv-x="1726" 
d="M829 137q-154 0 -261 106t-107 255q0 153 106.5 258.5t261.5 105.5q114 0 203 -67v49h195v-449q0 -43 28.5 -71.5t79.5 -28.5q62 0 102 69.5t40 184.5q0 121 -45 226t-125.5 182t-198 121t-256.5 44q-166 0 -304.5 -80.5t-218 -221t-79.5 -308.5t78.5 -308.5t215 -221
t300.5 -80.5q236 0 411 151l101 -100q-100 -88 -228.5 -136t-271.5 -48q-155 0 -294.5 58.5t-240.5 157.5t-160 236.5t-59 290.5t60 290.5t161.5 236.5t243 157.5t297.5 58.5q220 0 394.5 -94t270 -254t95.5 -354q0 -189 -91 -297.5t-220 -108.5q-155 0 -228 105
q-105 -115 -256 -115zM844 311q78 0 133 55t55 132q0 79 -55 133.5t-133 54.5q-77 0 -133 -54.5t-56 -133.5q0 -76 56 -131.5t133 -55.5z" />
    <glyph glyph-name="A" unicode="A" horiz-adv-x="1406" 
d="M883 1434l530 -1434h-307l-121 346h-577l-121 -346h-293l532 1434h357zM496 594h403l-203 575z" />
    <glyph glyph-name="B" unicode="B" horiz-adv-x="1345" 
d="M158 0v1434h590q178 0 302 -112t124 -273q0 -92 -53 -171.5t-142 -127.5q125 -39 201.5 -133t76.5 -214q0 -169 -126.5 -286t-309.5 -117h-663zM721 1196h-279v-352h279q73 0 119.5 51t46.5 125q0 76 -46 126t-120 50zM774 238q88 0 142.5 52.5t54.5 135.5
q0 80 -54.5 134t-142.5 54h-332v-376h332z" />
    <glyph glyph-name="C" unicode="C" horiz-adv-x="1443" 
d="M1366 899h-276q-23 143 -113.5 223t-224.5 80q-162 0 -259.5 -111.5t-97.5 -306.5v-133q0 -196 98 -308t259 -112q133 0 224 80.5t114 223.5h276q-28 -254 -198.5 -408t-415.5 -154q-287 0 -466.5 185t-179.5 483v154q0 196 81.5 347.5t228.5 234.5t336 83
q251 0 418.5 -153t195.5 -408z" />
    <glyph glyph-name="D" unicode="D" horiz-adv-x="1476" 
d="M1370 641q0 -286 -180 -463.5t-467 -177.5h-565v1434h565q189 0 336 -80t229 -225.5t82 -333.5v-154zM707 1186h-265v-938h265q168 0 271 109.5t103 304.5v112q0 195 -102 303.5t-272 108.5z" />
    <glyph glyph-name="E" unicode="E" horiz-adv-x="1247" 
d="M158 0v1434h981v-248h-697v-346h676v-244h-676v-348h697v-248h-981z" />
    <glyph glyph-name="F" unicode="F" horiz-adv-x="1247" 
d="M442 0h-284v1434h981v-248h-697v-346h676v-244h-676v-596z" />
    <glyph glyph-name="G" unicode="G" horiz-adv-x="1527" 
d="M106 649v142q0 299 178 483t466 186q220 0 376.5 -98.5t243.5 -280.5l-248 -118q-55 111 -148.5 174t-211.5 63q-169 0 -268 -111t-99 -309v-131q0 -202 100.5 -314t266.5 -112q161 0 256.5 87.5t95.5 219.5v25h-379v238h645v-793h-266v201q-72 -113 -181 -169.5
t-228 -56.5q-270 0 -434.5 185t-164.5 489z" />
    <glyph glyph-name="H" unicode="H" horiz-adv-x="1523" 
d="M442 0h-284v1434h284v-592h639v592h285v-1434h-285v594h-639v-594z" />
    <glyph glyph-name="I" unicode="I" horiz-adv-x="600" 
d="M442 0h-284v1434h284v-1434z" />
    <glyph glyph-name="J" unicode="J" horiz-adv-x="1085" 
d="M4 113l174 206q42 -44 103 -70t127 -26q111 0 183.5 79.5t72.5 209.5v922h284v-953q0 -151 -69.5 -269t-190 -181.5t-270.5 -63.5q-265 0 -414 146z" />
    <glyph glyph-name="K" unicode="K" horiz-adv-x="1374" 
d="M442 0h-284v1434h284v-598l586 598h371l-707 -695l727 -739h-397l-580 614v-614z" />
    <glyph glyph-name="L" unicode="L" horiz-adv-x="1216" 
d="M1139 248v-248h-981v1434h284v-1186h697z" />
    <glyph glyph-name="M" unicode="M" horiz-adv-x="1888" 
d="M422 0h-268v1434h430l362 -1067l363 1067h426v-1434h-273v1130l-389 -1130h-262l-389 1130v-1130z" />
    <glyph glyph-name="N" unicode="N" horiz-adv-x="1564" 
d="M422 0h-264v1434h303l680 -1026l2 1026h264v-1434h-303l-680 1026z" />
    <glyph glyph-name="O" unicode="O" horiz-adv-x="1540" 
d="M106 795q0 196 84 347.5t235 234.5t345 83t345 -83t235 -234.5t84 -347.5v-154q0 -298 -185 -483t-479 -185t-479 185t-185 483v154zM395 784v-133q0 -196 103 -308t272 -112q168 0 271.5 112t103.5 308v133q0 195 -102.5 306.5t-272.5 111.5t-272.5 -111.5
t-102.5 -306.5z" />
    <glyph glyph-name="P" unicode="P" horiz-adv-x="1327" 
d="M158 0v1434h645q192 0 324.5 -130.5t132.5 -322.5q0 -190 -132.5 -320.5t-324.5 -130.5h-361v-530h-284zM776 1186h-334v-418h334q88 0 142.5 59t54.5 150q0 92 -54.5 150.5t-142.5 58.5z" />
    <glyph glyph-name="Q" unicode="Q" horiz-adv-x="1540" 
d="M106 795q0 296 184.5 480.5t479.5 184.5t479.5 -184.5t184.5 -480.5v-154q0 -288 -177 -475l105 -127l-205 -166l-121 147q-121 -47 -266 -47q-295 0 -479.5 185.5t-184.5 482.5v154zM395 784v-133q0 -192 101.5 -306t273.5 -114q44 0 84 9l-156 188l205 166l172 -207
q70 106 70 264v133q0 192 -101.5 305t-273.5 113t-273.5 -113t-101.5 -305z" />
    <glyph glyph-name="R" unicode="R" horiz-adv-x="1351" 
d="M442 0h-284v1434h633q183 0 309.5 -127.5t126.5 -313.5q0 -131 -71 -236t-189 -155l356 -602h-324l-317 567h-240v-567zM743 1186h-301v-385h301q88 0 142.5 54.5t54.5 137.5q0 84 -54.5 138.5t-142.5 54.5z" />
    <glyph glyph-name="S" unicode="S" horiz-adv-x="1269" 
d="M72 449h276q14 -110 94 -173t213 -63q119 0 183.5 48t64.5 126q0 58 -42 102.5t-130 65.5l-264 61q-383 88 -383 410q0 193 144.5 311.5t363.5 118.5q226 0 377.5 -126.5t181.5 -332.5h-279q-24 106 -95 165t-187 59q-98 0 -160.5 -46.5t-62.5 -127.5q0 -127 172 -168
l262 -62q202 -47 293.5 -145.5t91.5 -261.5q0 -186 -147 -309.5t-386 -123.5q-242 0 -403 130.5t-178 341.5z" />
    <glyph glyph-name="T" unicode="T" horiz-adv-x="1320" 
d="M37 1186v248h1247v-248h-481v-1186h-285v1186h-481z" />
    <glyph glyph-name="U" unicode="U" horiz-adv-x="1486" 
d="M422 563q0 -157 87.5 -248.5t223.5 -91.5q135 0 223 94.5t88 245.5v871h285v-1434h-282v154q-68 -86 -165.5 -133.5t-211.5 -47.5q-231 0 -382 158t-151 412v891h285v-871z" />
    <glyph glyph-name="V" unicode="V" horiz-adv-x="1406" 
d="M524 0l-530 1434h307l410 -1155l409 1155h293l-532 -1434h-357z" />
    <glyph glyph-name="W" unicode="W" horiz-adv-x="2007" 
d="M1137 1434l317 -1033l258 1033h283l-393 -1434h-287l-311 1014l-312 -1014h-286l-394 1434h297l258 -1033l318 1033h252z" />
    <glyph glyph-name="X" unicode="X" horiz-adv-x="1363" 
d="M-20 0l534 731l-516 703h350l336 -480l338 480h336l-516 -701l540 -733h-350l-358 512l-357 -512h-337z" />
    <glyph glyph-name="Y" unicode="Y" horiz-adv-x="1382" 
d="M834 0h-285v575l-563 859h340l368 -580l371 580h332l-563 -861v-573z" />
    <glyph glyph-name="Z" unicode="Z" horiz-adv-x="1236" 
d="M92 1186v248h1055v-191l-717 -995h725v-248h-1092v184l721 1002h-692z" />
    <glyph glyph-name="bracketleft" unicode="[" horiz-adv-x="772" 
d="M109 -256v1874h591v-211h-352v-1452h352v-211h-591z" />
    <glyph glyph-name="backslash" unicode="\" horiz-adv-x="899" 
d="M897 0h-274l-623 1434h274z" />
    <glyph glyph-name="bracketright" unicode="]" horiz-adv-x="772" 
d="M664 1618v-1874h-592v211h352v1452h-352v211h592z" />
    <glyph glyph-name="asciicircum" unicode="^" horiz-adv-x="1089" 
d="M49 717l375 717h242l374 -717h-231l-264 510l-264 -510h-232z" />
    <glyph glyph-name="underscore" unicode="_" horiz-adv-x="1011" 
d="M1014 -164v-192h-1016v192h1016z" />
    <glyph glyph-name="grave" unicode="`" horiz-adv-x="1024" 
d="M532 1522l246 -303h-262l-285 303h301z" />
    <glyph glyph-name="a" unicode="a" horiz-adv-x="1173" 
d="M61 309q0 145 94 226.5t269 95.5l297 22v41q0 82 -47.5 126t-136.5 44q-136 0 -279 -96l-117 203q192 141 430 141q192 0 305 -105t113 -282v-424q0 -63 64 -63h55v-238h-131q-87 0 -148 41.5t-86 114.5q-46 -84 -128 -131.5t-183 -47.5q-161 0 -266 94.5t-105 237.5z
M328 317q0 -57 46 -90.5t122 -33.5q93 0 159 58t66 142v64l-258 -23q-135 -12 -135 -117z" />
    <glyph glyph-name="b" unicode="b" horiz-adv-x="1280" 
d="M145 0v1516h275v-560q116 160 317 160q196 0 321.5 -138.5t125.5 -365.5v-135q0 -227 -125.5 -365.5t-321.5 -138.5q-203 0 -317 168v-141h-275zM420 594v-98q0 -132 65 -207.5t183 -75.5q117 0 181 75.5t64 207.5v98q0 131 -64 207t-181 76t-182.5 -76t-65.5 -207z" />
    <glyph glyph-name="c" unicode="c" horiz-adv-x="1134" 
d="M596 -27q-223 0 -361.5 140.5t-138.5 373.5v115q0 233 138.5 373.5t361.5 140.5q196 0 324.5 -114t156.5 -310h-266q-21 88 -75.5 136.5t-139.5 48.5q-109 0 -169 -76t-60 -207v-98q0 -132 60 -207.5t169 -75.5q85 0 139.5 47.5t75.5 134.5h266q-28 -192 -159 -307
t-322 -115z" />
    <glyph glyph-name="d" unicode="d" horiz-adv-x="1280" 
d="M1135 0h-275v141q-114 -168 -317 -168q-196 0 -321.5 138.5t-125.5 365.5v135q0 227 125.5 365.5t321.5 138.5q201 0 317 -160v560h275v-1516zM860 594q0 131 -65.5 207t-182.5 76t-181 -76t-64 -207v-98q0 -132 64 -207.5t181 -75.5q118 0 183 75.5t65 207.5v98z" />
    <glyph glyph-name="e" unicode="e" horiz-adv-x="1142" 
d="M96 492v106q0 233 137 375.5t361 142.5q204 0 332.5 -143.5t128.5 -370.5v-145h-690q7 -118 72.5 -182t174.5 -64q143 0 254 111l166 -164q-165 -183 -428 -183q-228 0 -368 141.5t-140 375.5zM367 664h426q-9 102 -64.5 158.5t-146.5 56.5t-147 -55.5t-68 -159.5z" />
    <glyph glyph-name="f" unicode="f" horiz-adv-x="860" 
d="M43 852v238h219v198q0 119 76.5 193.5t216.5 74.5h260v-237h-205q-73 0 -73 -82v-147h278v-238h-278v-852h-275v852h-219z" />
    <glyph glyph-name="g" unicode="g" horiz-adv-x="1259" 
d="M383 -453v232h279q83 0 131.5 47.5t48.5 130.5v199q-115 -166 -310 -166t-316.5 140t-121.5 364v118q0 224 121.5 364t316.5 140q95 0 175 -42t135 -118v134h274v-1164q0 -169 -106.5 -274t-278.5 -105h-348zM842 594q0 132 -64 207.5t-176 75.5t-174.5 -75t-62.5 -208
v-90q0 -133 62 -204t175 -71t176.5 71.5t63.5 203.5v90z" />
    <glyph glyph-name="h" unicode="h" 
d="M1130 709v-709h-274v645q0 96 -60.5 160.5t-156.5 64.5t-157.5 -64t-61.5 -161v-645h-275v1516h275v-605q50 96 135.5 150.5t187.5 54.5q172 0 279.5 -116t107.5 -291z" />
    <glyph glyph-name="i" unicode="i" horiz-adv-x="565" 
d="M283 1235q-65 0 -111.5 45t-46.5 109q0 65 46.5 110t111.5 45t109 -44.5t44 -110.5q0 -65 -44.5 -109.5t-108.5 -44.5zM420 1090v-1090h-275v1090h275z" />
    <glyph glyph-name="j" unicode="j" horiz-adv-x="565" 
d="M283 1235q-65 0 -111.5 45t-46.5 109q0 65 46.5 110t111.5 45t109 -44.5t44 -110.5q0 -65 -44.5 -109.5t-108.5 -44.5zM141 -453h-143v232h65q38 0 60 21t22 63v1227h275v-1280q0 -113 -74.5 -188t-204.5 -75z" />
    <glyph glyph-name="k" unicode="k" horiz-adv-x="1146" 
d="M1128 1090l-448 -515l496 -575h-349l-407 496v-496h-275v1516h275v-891l391 465h317z" />
    <glyph glyph-name="l" unicode="l" horiz-adv-x="565" 
d="M420 0h-275v1516h275v-1516z" />
    <glyph glyph-name="m" unicode="m" horiz-adv-x="1945" 
d="M420 647v-647h-275v1090h275v-177q47 95 130 149t181 54q125 0 217 -67t133 -179q43 114 134 180t206 66q168 0 273.5 -116t105.5 -289v-711h-274v647q0 94 -58 158.5t-149 64.5q-92 0 -150.5 -63.5t-58.5 -159.5v-647h-274v647q0 94 -58 158.5t-149 64.5
q-92 0 -150.5 -63.5t-58.5 -159.5z" />
    <glyph glyph-name="n" unicode="n" 
d="M1130 709v-709h-274v645q0 96 -60.5 160.5t-156.5 64.5t-157.5 -64t-61.5 -161v-645h-275v1090h275v-179q50 96 135.5 150.5t187.5 54.5q172 0 279.5 -116t107.5 -291z" />
    <glyph glyph-name="o" unicode="o" horiz-adv-x="1206" 
d="M1110 487q0 -234 -141 -374t-367 -140q-225 0 -365.5 140.5t-140.5 373.5v115q0 233 140 373.5t366 140.5t367 -140t141 -374v-115zM840 594q0 131 -62.5 207t-175.5 76q-112 0 -173.5 -76t-61.5 -207v-98q0 -132 61 -207.5t174 -75.5t175.5 75.5t62.5 207.5v98z" />
    <glyph glyph-name="p" unicode="p" horiz-adv-x="1277" 
d="M145 1090h275v-140q113 166 315 166q196 0 321.5 -138.5t125.5 -365.5v-135q0 -227 -125.5 -365.5t-321.5 -138.5q-198 0 -315 158v-584h-275v1543zM420 453q11 -112 75.5 -176t170.5 -64q117 0 181 76t64 207v98q0 132 -64 207.5t-181 75.5q-107 0 -171 -63.5
t-75 -176.5v-184z" />
    <glyph glyph-name="q" unicode="q" horiz-adv-x="1280" 
d="M1135 1090v-1543h-275v594q-114 -168 -317 -168q-196 0 -321.5 138.5t-125.5 365.5v135q0 227 125.5 365.5t321.5 138.5q201 0 317 -160v134h275zM860 594q0 131 -65.5 207t-182.5 76t-181 -76t-64 -207v-98q0 -132 64 -207.5t181 -75.5q118 0 183 75.5t65 207.5v98z" />
    <glyph glyph-name="r" unicode="r" horiz-adv-x="841" 
d="M791 829h-121q-104 0 -177 -72.5t-73 -193.5v-563h-275v1090h273v-213q35 104 108.5 163.5t180.5 59.5h84v-271z" />
    <glyph glyph-name="s" unicode="s" horiz-adv-x="1064" 
d="M569 -25q-198 0 -331.5 99t-167.5 270h260q19 -74 81 -115t158 -41q69 0 110.5 30t41.5 81q0 35 -28.5 61.5t-78.5 38.5l-225 54q-301 70 -301 319q0 155 111.5 249.5t292.5 94.5q190 0 319.5 -102t155.5 -271h-262q-19 72 -78 116t-138 44q-61 0 -97 -29t-36 -77
q0 -39 32.5 -67.5t94.5 -43.5l209 -49q297 -70 297 -318q0 -153 -117 -248.5t-303 -95.5z" />
    <glyph glyph-name="t" unicode="t" horiz-adv-x="870" 
d="M557 0q-140 0 -216.5 74.5t-76.5 193.5v584h-219v238h219v315h275v-315h288v-238h-288v-533q0 -40 26.5 -60.5t73.5 -20.5h188v-238h-270z" />
    <glyph glyph-name="u" unicode="u" 
d="M145 381v709h275v-646q0 -95 61 -160t156 -65q96 0 157.5 64t61.5 161v646h274v-1090h-274v178q-50 -97 -134 -151t-187 -54q-172 0 -281 117t-109 291z" />
    <glyph glyph-name="v" unicode="v" horiz-adv-x="1126" 
d="M424 0l-422 1090h293l272 -748l273 748h284l-422 -1090h-278z" />
    <glyph glyph-name="w" unicode="w" horiz-adv-x="1613" 
d="M698 1090h228l225 -693l180 693h268l-305 -1090h-254l-233 721l-234 -721h-254l-305 1090h279l180 -693z" />
    <glyph glyph-name="x" unicode="x" horiz-adv-x="1079" 
d="M-14 0l403 549l-397 541h313l236 -338l237 338h305l-399 -537l410 -553h-316l-246 350l-243 -350h-303z" />
    <glyph glyph-name="y" unicode="y" horiz-adv-x="1146" 
d="M424 -86l27 70l-449 1106h297l285 -740l272 740h289l-494 -1295q-55 -143 -132 -195.5t-210 -52.5h-157v232h112q61 0 96.5 30.5t63.5 104.5z" />
    <glyph glyph-name="z" unicode="z" horiz-adv-x="1042" 
d="M96 852v238h846v-205l-522 -647h536v-238h-870v199l530 653h-520z" />
    <glyph glyph-name="braceleft" unicode="{" horiz-adv-x="923" 
d="M594 291l-62 -127q-44 -91 -6.5 -161.5t129.5 -70.5q95 0 185 33l39 -196q-117 -43 -252 -43q-113 0 -198 38t-127 105t-45 157t46 195l78 170q32 72 -8 130.5t-123 58.5h-195v204h185q89 0 132 57.5t9 131.5l-78 170q-49 105 -46 195t45 157t127 105t198 38
q135 0 252 -43l-39 -196q-90 33 -185 33q-92 0 -129.5 -70.5t6.5 -161.5l62 -127q69 -143 15.5 -254.5t-201.5 -136.5q149 -29 201.5 -140.5t-15.5 -250.5z" />
    <glyph glyph-name="bar" unicode="|" horiz-adv-x="561" 
d="M418 -453h-275v1887h275v-1887z" />
    <glyph glyph-name="braceright" unicode="}" horiz-adv-x="923" 
d="M340 1073l61 127q44 91 7 161.5t-129 70.5q-95 0 -185 -33l-39 196q117 43 252 43q113 0 198 -38t127 -105t45 -157t-46 -195l-78 -170q-32 -72 8 -130.5t123 -58.5h195v-204h-185q-89 0 -132 -57.5t-9 -131.5l78 -170q49 -105 46 -195t-45 -157t-127 -105t-198 -38
q-135 0 -252 43l39 196q90 -33 185 -33q92 0 129 70.5t-7 161.5l-61 127q-69 143 -15.5 254.5t201.5 136.5q-149 29 -201.5 140.5t15.5 250.5z" />
    <glyph glyph-name="asciitilde" unicode="~" horiz-adv-x="1138" 
d="M309 614l-205 50q67 290 275 290q56 0 133.5 -31t146 -62.5t103.5 -31.5q33 0 56 30t40 97l205 -49q-67 -291 -275 -291q-43 0 -101.5 19.5t-105 43t-96.5 43t-79 19.5q-34 0 -57 -30.5t-40 -96.5z" />
    <glyph glyph-name="uni00A0" unicode="&#xa0;" horiz-adv-x="446" 
 />
    <glyph glyph-name="exclamdown" unicode="&#xa1;" horiz-adv-x="497" 
d="M131 1020h234l20 -1081h-274zM248 1151q-63 0 -106.5 43t-43.5 106t43.5 106.5t106.5 43.5t107 -43.5t44 -106.5t-44 -106t-107 -43z" />
    <glyph glyph-name="cent" unicode="&#xa2;" horiz-adv-x="1144" 
d="M700 1290v-184q154 -28 254 -137.5t123 -276.5h-266q-24 114 -111 160v-614q88 46 111 157h266q-23 -163 -124 -272.5t-253 -138.5v-220h-192v216q-188 28 -300 163.5t-112 343.5v115q0 209 112 344.5t300 163.5v180h192zM367 496q0 -102 36.5 -171.5t104.5 -95.5v631
q-68 -26 -104.5 -95.5t-36.5 -170.5v-98z" />
    <glyph glyph-name="sterling" unicode="&#xa3;" horiz-adv-x="1230" 
d="M860 780v-202h-278q30 -103 12 -190t-78 -150h649v-238h-1083v238h61q108 0 159 90t11 211l-12 39h-215v202h147l-26 82q-43 121 -25.5 229t76.5 189t163.5 128.5t233.5 47.5q201 0 340 -118.5t170 -313.5h-268q-23 100 -86 152.5t-160 52.5q-123 0 -174.5 -93t-5.5 -231
l41 -125h348z" />
    <glyph glyph-name="yen" unicode="&#xa5;" horiz-adv-x="1423" 
d="M246 412h323v118h-323v177h237l-477 727h346l363 -570l364 570h338l-475 -727h236v-177h-324v-118h324v-176h-324v-236h-285v236h-323v176z" />
    <glyph glyph-name="section" unicode="&#xa7;" horiz-adv-x="1185" 
d="M1044 98q0 -146 -113 -242t-302 -96q-205 0 -333.5 100t-160.5 261h260q19 -75 82 -111.5t152 -36.5q67 0 107 26.5t40 70.5q0 67 -102 100l-338 115q-153 53 -226 133t-73 211q0 102 50 180t136 119q-82 76 -82 200q0 152 114.5 244t295.5 92q197 0 321 -102.5
t148 -261.5h-260q-20 77 -80 114t-131 37q-64 0 -101.5 -25.5t-37.5 -68.5q0 -35 29.5 -59.5t95.5 -48.5l315 -115q153 -57 226 -135.5t73 -208.5q0 -103 -49 -180t-135 -117q79 -73 79 -195zM756 700l-277 101q-75 28 -129.5 -15t-54.5 -108q0 -56 32 -95t103 -65l277 -100
q75 -25 129.5 16.5t54.5 106.5q0 56 -32 94.5t-103 64.5z" />
    <glyph glyph-name="dieresis" unicode="&#xa8;" horiz-adv-x="1144" 
d="M354 1204q-65 0 -111 45t-46 109q0 65 46 110t111 45t109.5 -44.5t44.5 -110.5q0 -64 -45 -109t-109 -45zM795 1204q-65 0 -111.5 45t-46.5 109q0 65 46.5 110t111.5 45t109 -44.5t44 -110.5q0 -65 -44.5 -109.5t-108.5 -44.5z" />
    <glyph glyph-name="copyright" unicode="&#xa9;" horiz-adv-x="1716" 
d="M858 -27q-208 0 -382 99t-274 270t-100 375q0 153 59 290.5t159.5 236.5t241 157.5t296.5 58.5t296.5 -58.5t241 -157.5t159.5 -236.5t59 -290.5q0 -204 -100 -375t-274 -270t-382 -99zM858 106q167 0 306.5 81t220.5 221.5t81 308.5t-81 308.5t-220.5 221t-306.5 80.5
t-306.5 -80.5t-220.5 -221t-81 -308.5t81 -308.5t220.5 -221.5t306.5 -81zM664 719q0 -91 63 -155t152 -64q113 0 182 92l137 -98q-128 -162 -319 -162q-171 0 -288.5 112.5t-117.5 274.5q0 163 117.5 276t288.5 113q191 0 319 -162l-137 -100q-68 94 -182 94
q-90 0 -152.5 -64t-62.5 -157z" />
    <glyph glyph-name="ordfeminine" unicode="&#xaa;" horiz-adv-x="882" 
d="M57 881q0 100 66 156t194 67l197 16v17q0 48 -30 74t-87 26q-93 0 -192 -57l-90 166q132 98 319 98q135 0 217 -77t82 -206v-260q0 -43 43 -43h39v-194h-104q-127 0 -174 106q-32 -60 -89.5 -93.5t-128.5 -33.5q-115 0 -188.5 68t-73.5 170zM274 885q0 -32 28 -51t73 -19
q56 0 97.5 36.5t41.5 88.5v29l-164 -17q-76 -8 -76 -67z" />
    <glyph glyph-name="guillemotleft" unicode="&#xab;" horiz-adv-x="1384" 
d="M817 1090l-491 -541l497 -549h-295l-505 547l505 543h289zM1354 1090l-492 -541l498 -549h-295l-506 547l506 543h289z" />
    <glyph glyph-name="registered" unicode="&#xae;" horiz-adv-x="966" 
d="M481 618q-173 0 -295.5 122.5t-122.5 297.5t122.5 297.5t295.5 122.5t295.5 -122.5t122.5 -297.5t-122.5 -297.5t-295.5 -122.5zM481 717q134 0 226 93t92 228q0 134 -92.5 228t-225.5 94t-224 -94t-91 -228q0 -135 91 -228t224 -93zM332 850v385h168q58 0 91.5 -33
t33.5 -86q0 -69 -66 -98l96 -168h-108l-80 149h-35v-149h-100zM481 1159h-49v-88h47q25 0 38 12.5t13 32.5q0 43 -49 43z" />
    <glyph glyph-name="macron" unicode="&#xaf;" horiz-adv-x="1024" 
d="M797 1438v-178h-549v178h549z" />
    <glyph glyph-name="degree" unicode="&#xb0;" horiz-adv-x="739" 
d="M371 860q-126 0 -212.5 87.5t-86.5 213.5q0 119 86.5 206t212.5 87q123 0 209 -87t86 -206q0 -126 -86.5 -213.5t-208.5 -87.5zM371 1012q58 0 99.5 43.5t41.5 105.5q0 57 -42 99.5t-99 42.5q-60 0 -103 -42.5t-43 -99.5q0 -61 43 -105t103 -44z" />
    <glyph glyph-name="plusminus" unicode="&#xb1;" horiz-adv-x="1132" 
d="M674 397h-213v332h-363v211h363v324h213v-324h360v-211h-360v-332zM1034 211v-211h-936v211h936z" />
    <glyph glyph-name="twosuperior" unicode="&#xb2;" horiz-adv-x="679" 
d="M608 1204q0 -63 -25.5 -118.5t-97.5 -127.5l-155 -157l293 6v-162h-555v119l284 291q41 42 55.5 72t14.5 63q0 45 -29 72.5t-74 27.5q-86 0 -143 -100l-145 84q94 174 299 174q124 0 201 -69t77 -175z" />
    <glyph glyph-name="threesuperior" unicode="&#xb3;" horiz-adv-x="720" 
d="M360 1448q116 -2 192.5 -64.5t76.5 -156.5q0 -53 -31 -96t-86 -68q64 -25 103.5 -76t39.5 -113q0 -104 -84.5 -175.5t-216.5 -71.5q-222 0 -309 164l152 81q52 -86 151 -86q54 0 87.5 28.5t33.5 70.5q0 35 -29 60.5t-75 25.5h-127v149h112q41 0 67.5 24.5t26.5 61.5
t-28.5 60.5t-75.5 23.5q-85 0 -133 -86l-152 78q41 79 118 122.5t187 43.5z" />
    <glyph glyph-name="acute" unicode="&#xb4;" horiz-adv-x="1024" 
d="M508 1522h301l-285 -303h-262z" />
    <glyph glyph-name="paragraph" unicode="&#xb6;" horiz-adv-x="1296" 
d="M78 997q0 184 126.5 310.5t309.5 126.5h625v-1434h-213v563h-115v-563h-213v563h-84q-183 0 -309.5 125.5t-126.5 308.5z" />
    <glyph glyph-name="periodcentered" unicode="&#xb7;" horiz-adv-x="530" 
d="M266 776q66 0 112 -46.5t46 -113.5q0 -66 -46 -111.5t-112 -45.5t-113 45.5t-47 111.5q0 67 47 113.5t113 46.5z" />
    <glyph glyph-name="cedilla" unicode="&#xb8;" horiz-adv-x="1024" 
d="M786 -272q0 -88 -70 -146.5t-173 -58.5q-80 0 -145.5 27.5t-102.5 76.5l108 90q55 -61 127 -61q41 0 67 22t26 52q0 32 -27 51.5t-68 19.5h-90l68 213h147l-39 -112q78 -11 125 -58t47 -116z" />
    <glyph glyph-name="onesuperior" unicode="&#xb9;" horiz-adv-x="626" 
d="M582 807v-162h-539v162h176v465h-139v162h323v-627h179z" />
    <glyph glyph-name="ordmasculine" unicode="&#xba;" horiz-adv-x="872" 
d="M803 1012q0 -169 -101.5 -269t-267.5 -100q-162 0 -263 100.5t-101 268.5v69q0 168 100 268.5t264 100.5q166 0 267.5 -100t101.5 -269v-69zM582 1075q0 84 -38.5 131t-109.5 47t-107 -46.5t-36 -131.5v-57q0 -86 36 -132t107 -46q72 0 110 46.5t38 131.5v57z" />
    <glyph glyph-name="guillemotright" unicode="&#xbb;" horiz-adv-x="1384" 
d="M567 0l492 541l-498 549h295l506 -547l-506 -543h-289zM31 0l491 541l-497 549h294l506 -547l-506 -543h-288z" />
    <glyph glyph-name="onequarter" unicode="&#xbc;" horiz-adv-x="1579" 
d="M582 807v-162h-539v162h176v465h-139v162h323v-627h179zM1292 0v184h-377v140l318 464h244v-450h84v-154h-84v-184h-185zM1106 338h186v280zM547 0h-207l768 1434h209z" />
    <glyph glyph-name="onehalf" unicode="&#xbd;" horiz-adv-x="1656" 
d="M582 807v-162h-539v162h176v465h-139v162h323v-627h179zM1585 559q0 -63 -25.5 -118.5t-97.5 -127.5l-155 -157l292 6v-162h-555v119l285 291q41 42 55.5 72t14.5 63q0 45 -29 72.5t-74 27.5q-86 0 -143 -100l-145 84q94 174 299 174q124 0 201 -69t77 -175zM537 0h-207
l768 1434h209z" />
    <glyph glyph-name="threequarters" unicode="&#xbe;" horiz-adv-x="1515" 
d="M360 1448q116 -2 192.5 -64.5t76.5 -156.5q0 -53 -31 -96t-86 -68q64 -25 103.5 -76t39.5 -113q0 -104 -84.5 -175.5t-216.5 -71.5q-222 0 -309 164l152 81q52 -86 151 -86q54 0 87.5 28.5t33.5 70.5q0 35 -29 60.5t-75 25.5h-127v149h112q41 0 67.5 24.5t26.5 61.5
t-28.5 60.5t-75.5 23.5q-85 0 -133 -86l-152 78q41 79 118 122.5t187 43.5zM1307 0v184h-377v140l317 464h244v-450h84v-154h-84v-184h-184zM1120 338h187v280zM563 0h-207l768 1434h209z" />
    <glyph glyph-name="questiondown" unicode="&#xbf;" horiz-adv-x="1052" 
d="M76 416q0 164 107 284.5t268 139.5l8 194h213l10 -403h-117q-91 0 -154 -58t-63 -141q0 -90 63.5 -149.5t155.5 -59.5q162 0 262 135l197 -143q-183 -233 -467 -233q-205 0 -344 125.5t-139 308.5zM565 1161q-63 0 -106 43.5t-43 106.5t43 106t106 43t107.5 -43
t44.5 -106t-44.5 -106.5t-107.5 -43.5z" />
    <glyph glyph-name="Agrave" unicode="&#xc0;" horiz-adv-x="1406" 
d="M883 1434l530 -1434h-307l-121 346h-577l-121 -346h-293l532 1434h357zM496 594h403l-203 575zM639 1894l246 -303h-262l-285 303h301z" />
    <glyph glyph-name="Aacute" unicode="&#xc1;" horiz-adv-x="1406" 
d="M883 1434l530 -1434h-307l-121 346h-577l-121 -346h-293l532 1434h357zM496 594h403l-203 575zM772 1894h301l-285 -303h-262z" />
    <glyph glyph-name="Acircumflex" unicode="&#xc2;" horiz-adv-x="1406" 
d="M883 1434l530 -1434h-307l-121 346h-577l-121 -346h-293l532 1434h357zM496 594h403l-203 575zM567 1591h-239l243 303h271l241 -303h-241l-137 162z" />
    <glyph glyph-name="Atilde" unicode="&#xc3;" horiz-adv-x="1406" 
d="M883 1434l530 -1434h-307l-121 346h-577l-121 -346h-293l532 1434h357zM496 594h403l-203 575zM563 1864q38 0 90.5 -24t98.5 -48.5t69 -24.5q54 0 80 109l172 -37q-57 -248 -229 -248q-38 0 -90.5 24t-98.5 48.5t-69 24.5q-54 0 -80 -109l-172 35q57 250 229 250z" />
    <glyph glyph-name="Adieresis" unicode="&#xc4;" horiz-adv-x="1406" 
d="M883 1434l530 -1434h-307l-121 346h-577l-121 -346h-293l532 1434h357zM496 594h403l-203 575zM485 1577q-65 0 -111 45t-46 109q0 65 46 110t111 45t109.5 -44.5t44.5 -110.5q0 -65 -44.5 -109.5t-109.5 -44.5zM926 1577q-65 0 -111.5 45t-46.5 109q0 65 46.5 110
t111.5 45t109 -44.5t44 -110.5q0 -65 -44.5 -109.5t-108.5 -44.5z" />
    <glyph glyph-name="Aring" unicode="&#xc5;" horiz-adv-x="1406" 
d="M883 1434l530 -1434h-307l-121 346h-577l-121 -346h-293l532 1434h357zM496 594h403l-203 575zM705 1544q-100 0 -169 68t-69 166q0 95 70 162t168 67t167.5 -67t69.5 -162q0 -97 -69.5 -165.5t-167.5 -68.5zM705 1665q47 0 79.5 33.5t32.5 79.5q0 45 -32.5 76.5
t-79.5 31.5t-80 -32t-33 -76q0 -47 33 -80t80 -33z" />
    <glyph glyph-name="AE" unicode="&#xc6;" horiz-adv-x="2113" 
d="M2005 248v-248h-961v328h-518l-196 -328h-330l911 1434h1094v-248h-676v-344h656v-244h-656v-350h676zM676 575h368v613z" />
    <glyph glyph-name="Ccedilla" unicode="&#xc7;" horiz-adv-x="1443" 
d="M1366 899h-276q-23 143 -113.5 223t-224.5 80q-162 0 -259.5 -111.5t-97.5 -306.5v-133q0 -196 98 -308t259 -112q133 0 224 80.5t114 223.5h276q-26 -232 -172.5 -382.5t-362.5 -175.5l-26 -75q78 -11 125 -58t47 -116q0 -87 -70.5 -146t-173.5 -59q-80 0 -145.5 27.5
t-102.5 76.5l109 90q55 -61 127 -61q41 0 66.5 22t25.5 52q0 32 -27 51.5t-67 19.5h-90l55 174q-260 23 -419 204.5t-159 461.5v154q0 196 81.5 347.5t228.5 234.5t336 83q251 0 418.5 -153t195.5 -408z" />
    <glyph glyph-name="Egrave" unicode="&#xc8;" horiz-adv-x="1247" 
d="M158 0v1434h981v-248h-697v-346h676v-244h-676v-348h697v-248h-981zM596 1894l246 -303h-262l-285 303h301z" />
    <glyph glyph-name="Eacute" unicode="&#xc9;" horiz-adv-x="1247" 
d="M158 0v1434h981v-248h-697v-346h676v-244h-676v-348h697v-248h-981zM729 1894h301l-285 -303h-262z" />
    <glyph glyph-name="Ecircumflex" unicode="&#xca;" horiz-adv-x="1247" 
d="M158 0v1434h981v-248h-697v-346h676v-244h-676v-348h697v-248h-981zM524 1591h-239l243 303h271l241 -303h-241l-137 162z" />
    <glyph glyph-name="Edieresis" unicode="&#xcb;" horiz-adv-x="1247" 
d="M158 0v1434h981v-248h-697v-346h676v-244h-676v-348h697v-248h-981zM444 1577q-65 0 -111 45t-46 109q0 65 46 110t111 45t109.5 -44.5t44.5 -110.5q0 -65 -45 -109.5t-109 -44.5zM885 1577q-65 0 -111.5 45t-46.5 109q0 65 46.5 110t111.5 45t109 -44.5t44 -110.5
q0 -65 -44.5 -109.5t-108.5 -44.5z" />
    <glyph glyph-name="Igrave" unicode="&#xcc;" horiz-adv-x="600" 
d="M442 0h-284v1434h284v-1434zM233 1894l246 -303h-262l-285 303h301z" />
    <glyph glyph-name="Iacute" unicode="&#xcd;" horiz-adv-x="600" 
d="M442 0h-284v1434h284v-1434zM367 1894h301l-285 -303h-262z" />
    <glyph glyph-name="Icircumflex" unicode="&#xce;" horiz-adv-x="600" 
d="M442 0h-284v1434h284v-1434zM162 1591h-240l244 303h270l242 -303h-242l-137 162z" />
    <glyph glyph-name="Idieresis" unicode="&#xcf;" horiz-adv-x="600" 
d="M442 0h-284v1434h284v-1434zM82 1577q-65 0 -111.5 45t-46.5 109q0 65 46.5 110t111.5 45t109.5 -44.5t44.5 -110.5q0 -65 -45 -109.5t-109 -44.5zM522 1577q-65 0 -111 45t-46 109q0 65 46 110t111 45t109.5 -44.5t44.5 -110.5q0 -65 -45 -109.5t-109 -44.5z" />
    <glyph glyph-name="Eth" unicode="&#xd0;" horiz-adv-x="1517" 
d="M16 596v242h183v596h565q189 0 336 -80t229 -225.5t82 -333.5v-154q0 -286 -180 -463.5t-467 -177.5h-565v596h-183zM748 1186h-265v-348h269v-242h-269v-348h265q168 0 271 109.5t103 304.5v112q0 195 -102 303.5t-272 108.5z" />
    <glyph glyph-name="Ntilde" unicode="&#xd1;" horiz-adv-x="1564" 
d="M422 0h-264v1434h303l680 -1026l2 1026h264v-1434h-303l-680 1026zM641 1864q38 0 90.5 -24t98.5 -48.5t69 -24.5q54 0 80 109l172 -37q-57 -248 -229 -248q-38 0 -90.5 24t-98.5 48.5t-69 24.5q-54 0 -80 -109l-172 35q57 250 229 250z" />
    <glyph glyph-name="Ograve" unicode="&#xd2;" horiz-adv-x="1540" 
d="M106 795q0 196 84 347.5t235 234.5t345 83t345 -83t235 -234.5t84 -347.5v-154q0 -298 -185 -483t-479 -185t-479 185t-185 483v154zM395 784v-133q0 -196 103 -308t272 -112q168 0 271.5 112t103.5 308v133q0 195 -102.5 306.5t-272.5 111.5t-272.5 -111.5
t-102.5 -306.5zM705 1894l245 -303h-262l-285 303h302z" />
    <glyph glyph-name="Oacute" unicode="&#xd3;" horiz-adv-x="1540" 
d="M106 795q0 196 84 347.5t235 234.5t345 83t345 -83t235 -234.5t84 -347.5v-154q0 -298 -185 -483t-479 -185t-479 185t-185 483v154zM395 784v-133q0 -196 103 -308t272 -112q168 0 271.5 112t103.5 308v133q0 195 -102.5 306.5t-272.5 111.5t-272.5 -111.5
t-102.5 -306.5zM838 1894h301l-285 -303h-262z" />
    <glyph glyph-name="Ocircumflex" unicode="&#xd4;" horiz-adv-x="1540" 
d="M106 795q0 196 84 347.5t235 234.5t345 83t345 -83t235 -234.5t84 -347.5v-154q0 -298 -185 -483t-479 -185t-479 185t-185 483v154zM395 784v-133q0 -196 103 -308t272 -112q168 0 271.5 112t103.5 308v133q0 195 -102.5 306.5t-272.5 111.5t-272.5 -111.5
t-102.5 -306.5zM633 1591h-240l244 303h270l242 -303h-242l-137 162z" />
    <glyph glyph-name="Otilde" unicode="&#xd5;" horiz-adv-x="1540" 
d="M106 795q0 196 84 347.5t235 234.5t345 83t345 -83t235 -234.5t84 -347.5v-154q0 -298 -185 -483t-479 -185t-479 185t-185 483v154zM395 784v-133q0 -196 103 -308t272 -112q168 0 271.5 112t103.5 308v133q0 195 -102.5 306.5t-272.5 111.5t-272.5 -111.5
t-102.5 -306.5zM629 1864q38 0 90.5 -24t98.5 -48.5t69 -24.5q54 0 80 109l172 -37q-57 -248 -230 -248q-38 0 -90.5 24t-98.5 48.5t-69 24.5q-54 0 -80 -109l-172 35q57 250 230 250z" />
    <glyph glyph-name="Odieresis" unicode="&#xd6;" horiz-adv-x="1540" 
d="M106 795q0 196 84 347.5t235 234.5t345 83t345 -83t235 -234.5t84 -347.5v-154q0 -298 -185 -483t-479 -185t-479 185t-185 483v154zM395 784v-133q0 -196 103 -308t272 -112q168 0 271.5 112t103.5 308v133q0 195 -102.5 306.5t-272.5 111.5t-272.5 -111.5
t-102.5 -306.5zM553 1577q-65 0 -111.5 45t-46.5 109q0 65 46.5 110t111.5 45t109.5 -44.5t44.5 -110.5q0 -65 -44.5 -109.5t-109.5 -44.5zM993 1577q-65 0 -111 45t-46 109q0 65 46 110t111 45t109.5 -44.5t44.5 -110.5q0 -65 -44.5 -109.5t-109.5 -44.5z" />
    <glyph glyph-name="multiply" unicode="&#xd7;" horiz-adv-x="1075" 
d="M233 293l-133 133l303 307l-305 309l138 138l303 -310l303 308l133 -134l-303 -307l305 -309l-137 -137l-303 309z" />
    <glyph glyph-name="Oslash" unicode="&#xd8;" horiz-adv-x="1540" 
d="M106 0l154 190q-154 184 -154 451v154q0 196 84 347.5t235 234.5t345 83q241 0 416 -129l84 103h254l-201 -248q111 -163 111 -391v-154q0 -298 -185 -483t-479 -185q-197 0 -358 90l-52 -63h-254zM395 784v-133q0 -136 51 -233l568 700q-96 84 -244 84
q-170 0 -272.5 -111.5t-102.5 -306.5zM1145 784q0 77 -21 156l-540 -664q77 -45 186 -45q168 0 271.5 112t103.5 308v133z" />
    <glyph glyph-name="Ugrave" unicode="&#xd9;" horiz-adv-x="1486" 
d="M422 563q0 -157 87.5 -248.5t223.5 -91.5q135 0 223 94.5t88 245.5v871h285v-1434h-282v154q-68 -86 -165.5 -133.5t-211.5 -47.5q-231 0 -382 158t-151 412v891h285v-871zM668 1894l245 -303h-262l-284 303h301z" />
    <glyph glyph-name="Uacute" unicode="&#xda;" horiz-adv-x="1486" 
d="M422 563q0 -157 87.5 -248.5t223.5 -91.5q135 0 223 94.5t88 245.5v871h285v-1434h-282v154q-68 -86 -165.5 -133.5t-211.5 -47.5q-231 0 -382 158t-151 412v891h285v-871zM801 1894h301l-285 -303h-262z" />
    <glyph glyph-name="Ucircumflex" unicode="&#xdb;" horiz-adv-x="1486" 
d="M422 563q0 -157 87.5 -248.5t223.5 -91.5q135 0 223 94.5t88 245.5v871h285v-1434h-282v154q-68 -86 -165.5 -133.5t-211.5 -47.5q-231 0 -382 158t-151 412v891h285v-871zM596 1591h-240l244 303h270l242 -303h-242l-137 162z" />
    <glyph glyph-name="Udieresis" unicode="&#xdc;" horiz-adv-x="1486" 
d="M422 563q0 -157 87.5 -248.5t223.5 -91.5q135 0 223 94.5t88 245.5v871h285v-1434h-282v154q-68 -86 -165.5 -133.5t-211.5 -47.5q-231 0 -382 158t-151 412v891h285v-871zM516 1577q-65 0 -111.5 45t-46.5 109q0 65 46.5 110t111.5 45t109.5 -44.5t44.5 -110.5
q0 -65 -45 -109.5t-109 -44.5zM956 1577q-65 0 -111 45t-46 109q0 65 46 110t111 45t109.5 -44.5t44.5 -110.5q0 -65 -45 -109.5t-109 -44.5z" />
    <glyph glyph-name="Yacute" unicode="&#xdd;" horiz-adv-x="1382" 
d="M834 0h-285v575l-563 859h340l368 -580l371 580h332l-563 -861v-573zM760 1894h301l-285 -303h-262z" />
    <glyph glyph-name="Thorn" unicode="&#xde;" horiz-adv-x="1296" 
d="M442 1434v-271h320q192 0 324.5 -128.5t132.5 -317.5q0 -187 -132.5 -316t-324.5 -129h-320v-272h-284v1434h284zM731 915h-289v-405h289q88 0 142.5 57.5t54.5 145.5q0 89 -54.5 145.5t-142.5 56.5z" />
    <glyph glyph-name="germandbls" unicode="&#xdf;" horiz-adv-x="1441" 
d="M877 774q-33 -20 -33 -49q0 -20 13 -30.5t44 -20.5l180 -60q148 -48 216.5 -120t68.5 -189q0 -143 -104 -236.5t-281 -93.5q-180 0 -292.5 94t-143.5 244h260q36 -133 164 -133q64 0 98.5 30t34.5 79q0 72 -98 100l-150 45q-137 41 -200.5 104.5t-63.5 168.5
q0 82 38.5 136t114.5 97l101 57q82 47 82 115q0 58 -62.5 96.5t-161.5 38.5q-126 0 -203 -81t-77 -216v-950h-277v950q0 253 153.5 395t401.5 142q215 0 357.5 -102t142.5 -257q0 -171 -164 -264z" />
    <glyph glyph-name="agrave" unicode="&#xe0;" horiz-adv-x="1173" 
d="M61 309q0 145 94 226.5t269 95.5l297 22v41q0 82 -47.5 126t-136.5 44q-136 0 -279 -96l-117 203q192 141 430 141q192 0 305 -105t113 -282v-424q0 -63 64 -63h55v-238h-131q-87 0 -148 41.5t-86 114.5q-46 -84 -128 -131.5t-183 -47.5q-161 0 -266 94.5t-105 237.5z
M328 317q0 -57 46 -90.5t122 -33.5q93 0 159 58t66 142v64l-258 -23q-135 -12 -135 -117zM498 1548l245 -303h-262l-284 303h301z" />
    <glyph glyph-name="aacute" unicode="&#xe1;" horiz-adv-x="1173" 
d="M61 309q0 145 94 226.5t269 95.5l297 22v41q0 82 -47.5 126t-136.5 44q-136 0 -279 -96l-117 203q192 141 430 141q192 0 305 -105t113 -282v-424q0 -63 64 -63h55v-238h-131q-87 0 -148 41.5t-86 114.5q-46 -84 -128 -131.5t-183 -47.5q-161 0 -266 94.5t-105 237.5z
M328 317q0 -57 46 -90.5t122 -33.5q93 0 159 58t66 142v64l-258 -23q-135 -12 -135 -117zM631 1548h301l-285 -303h-262z" />
    <glyph glyph-name="acircumflex" unicode="&#xe2;" horiz-adv-x="1173" 
d="M61 309q0 145 94 226.5t269 95.5l297 22v41q0 82 -47.5 126t-136.5 44q-136 0 -279 -96l-117 203q192 141 430 141q192 0 305 -105t113 -282v-424q0 -63 64 -63h55v-238h-131q-87 0 -148 41.5t-86 114.5q-46 -84 -128 -131.5t-183 -47.5q-161 0 -266 94.5t-105 237.5z
M328 317q0 -57 46 -90.5t122 -33.5q93 0 159 58t66 142v64l-258 -23q-135 -12 -135 -117zM426 1245h-240l244 303h270l242 -303h-242l-137 162z" />
    <glyph glyph-name="atilde" unicode="&#xe3;" horiz-adv-x="1173" 
d="M61 309q0 145 94 226.5t269 95.5l297 22v41q0 82 -47.5 126t-136.5 44q-136 0 -279 -96l-117 203q192 141 430 141q192 0 305 -105t113 -282v-424q0 -63 64 -63h55v-238h-131q-87 0 -148 41.5t-86 114.5q-46 -84 -128 -131.5t-183 -47.5q-161 0 -266 94.5t-105 237.5z
M328 317q0 -57 46 -90.5t122 -33.5q93 0 159 58t66 142v64l-258 -23q-135 -12 -135 -117zM422 1518q38 0 90.5 -24t98.5 -48.5t69 -24.5q54 0 80 109l172 -37q-57 -248 -230 -248q-38 0 -90.5 24t-98.5 48t-69 24q-26 0 -45.5 -24t-33.5 -84l-172 35q57 250 229 250z" />
    <glyph glyph-name="adieresis" unicode="&#xe4;" horiz-adv-x="1173" 
d="M61 309q0 145 94 226.5t269 95.5l297 22v41q0 82 -47.5 126t-136.5 44q-136 0 -279 -96l-117 203q192 141 430 141q192 0 305 -105t113 -282v-424q0 -63 64 -63h55v-238h-131q-87 0 -148 41.5t-86 114.5q-46 -84 -128 -131.5t-183 -47.5q-161 0 -266 94.5t-105 237.5z
M328 317q0 -57 46 -90.5t122 -33.5q93 0 159 58t66 142v64l-258 -23q-135 -12 -135 -117zM344 1231q-65 0 -111.5 44.5t-46.5 108.5q0 65 46.5 110.5t111.5 45.5t109.5 -45t44.5 -111q0 -64 -44.5 -108.5t-109.5 -44.5zM784 1231q-65 0 -111 44.5t-46 108.5q0 66 46 111
t111 45t109.5 -45t44.5 -111q0 -64 -44.5 -108.5t-109.5 -44.5z" />
    <glyph glyph-name="aring" unicode="&#xe5;" horiz-adv-x="1173" 
d="M61 309q0 145 94 226.5t269 95.5l297 22v41q0 82 -47.5 126t-136.5 44q-136 0 -279 -96l-117 203q192 141 430 141q192 0 305 -105t113 -282v-424q0 -63 64 -63h55v-238h-131q-87 0 -148 41.5t-86 114.5q-46 -84 -128 -131.5t-183 -47.5q-161 0 -266 94.5t-105 237.5z
M328 317q0 -57 46 -90.5t122 -33.5q93 0 159 58t66 142v64l-258 -23q-135 -12 -135 -117zM563 1198q-100 0 -168.5 68t-68.5 166q0 95 69.5 162t167.5 67t168 -67t70 -162q0 -97 -70 -165.5t-168 -68.5zM563 1319q47 0 80 33.5t33 79.5q0 44 -33 76t-80 32t-79.5 -31.5
t-32.5 -76.5q0 -47 32.5 -80t79.5 -33z" />
    <glyph glyph-name="ae" unicode="&#xe6;" horiz-adv-x="1785" 
d="M1675 158q-165 -183 -428 -183q-128 0 -229 51.5t-164 147.5q-59 -93 -162.5 -146t-232.5 -53q-171 0 -284.5 96.5t-113.5 241.5q0 143 94 223.5t269 92.5l307 22v43q0 80 -50.5 125t-143.5 45q-136 0 -279 -96l-115 203q180 141 437 141q206 0 313 -141q129 145 344 145
q204 0 332.5 -143.5t128.5 -370.5v-145h-690q7 -118 72.5 -182t174.5 -64q143 0 254 111zM1225 879q-91 0 -147 -55.5t-68 -159.5h426q-9 102 -64.5 158.5t-146.5 56.5zM328 317q0 -57 47.5 -90.5t124.5 -33.5q96 0 163.5 56.5t67.5 137.5v59l-268 -22q-135 -12 -135 -107z
" />
    <glyph glyph-name="ccedilla" unicode="&#xe7;" horiz-adv-x="1134" 
d="M815 -272q0 -87 -70.5 -146t-173.5 -59q-80 0 -145 27.5t-102 76.5l108 90q55 -61 127 -61q41 0 66.5 22t25.5 52q0 32 -27 51.5t-67 19.5h-90l55 176q-193 24 -309.5 160.5t-116.5 349.5v115q0 233 138.5 373.5t361.5 140.5q196 0 324.5 -114t156.5 -310h-266
q-21 88 -75.5 136.5t-139.5 48.5q-109 0 -169 -76t-60 -207v-98q0 -132 60 -207.5t169 -75.5q85 0 139.5 47.5t75.5 134.5h266q-25 -173 -134.5 -284.5t-272.5 -133.5l-27 -75q78 -11 125 -58t47 -116z" />
    <glyph glyph-name="egrave" unicode="&#xe8;" horiz-adv-x="1142" 
d="M96 492v106q0 233 137 375.5t361 142.5q204 0 332.5 -143.5t128.5 -370.5v-145h-690q7 -118 72.5 -182t174.5 -64q143 0 254 111l166 -164q-165 -183 -428 -183q-228 0 -368 141.5t-140 375.5zM367 664h426q-9 102 -64.5 158.5t-146.5 56.5t-147 -55.5t-68 -159.5z
M520 1550l246 -303h-262l-285 303h301z" />
    <glyph glyph-name="eacute" unicode="&#xe9;" horiz-adv-x="1142" 
d="M96 492v106q0 233 137 375.5t361 142.5q204 0 332.5 -143.5t128.5 -370.5v-145h-690q7 -118 72.5 -182t174.5 -64q143 0 254 111l166 -164q-165 -183 -428 -183q-228 0 -368 141.5t-140 375.5zM367 664h426q-9 102 -64.5 158.5t-146.5 56.5t-147 -55.5t-68 -159.5z
M653 1550h301l-284 -303h-262z" />
    <glyph glyph-name="ecircumflex" unicode="&#xea;" horiz-adv-x="1142" 
d="M96 492v106q0 233 137 375.5t361 142.5q204 0 332.5 -143.5t128.5 -370.5v-145h-690q7 -118 72.5 -182t174.5 -64q143 0 254 111l166 -164q-165 -183 -428 -183q-228 0 -368 141.5t-140 375.5zM367 664h426q-9 102 -64.5 158.5t-146.5 56.5t-147 -55.5t-68 -159.5z
M449 1247h-240l244 303h270l242 -303h-242l-137 162z" />
    <glyph glyph-name="edieresis" unicode="&#xeb;" horiz-adv-x="1142" 
d="M96 492v106q0 233 137 375.5t361 142.5q204 0 332.5 -143.5t128.5 -370.5v-145h-690q7 -118 72.5 -182t174.5 -64q143 0 254 111l166 -164q-165 -183 -428 -183q-228 0 -368 141.5t-140 375.5zM367 664h426q-9 102 -64.5 158.5t-146.5 56.5t-147 -55.5t-68 -159.5z
M369 1233q-65 0 -111.5 44.5t-46.5 108.5q0 65 46.5 110.5t111.5 45.5t109 -45t44 -111q0 -64 -44 -108.5t-109 -44.5zM809 1233q-65 0 -111.5 44.5t-46.5 108.5q0 65 46.5 110.5t111.5 45.5t109.5 -45t44.5 -111q0 -64 -44.5 -108.5t-109.5 -44.5z" />
    <glyph glyph-name="igrave" unicode="&#xec;" horiz-adv-x="565" 
d="M420 1090v-1090h-275v1090h275zM217 1550l246 -303h-262l-285 303h301z" />
    <glyph glyph-name="iacute" unicode="&#xed;" horiz-adv-x="565" 
d="M420 1090v-1090h-275v1090h275zM350 1550h301l-284 -303h-263z" />
    <glyph glyph-name="icircumflex" unicode="&#xee;" horiz-adv-x="565" 
d="M420 1090v-1090h-275v1090h275zM145 1247h-239l244 303h270l242 -303h-242l-137 162z" />
    <glyph glyph-name="idieresis" unicode="&#xef;" horiz-adv-x="565" 
d="M420 1090v-1090h-275v1090h275zM63 1233q-65 0 -111 44.5t-46 108.5q0 66 46 111t111 45t109.5 -45t44.5 -111q0 -64 -44.5 -108.5t-109.5 -44.5zM504 1233q-65 0 -111.5 44.5t-46.5 108.5q0 65 46.5 110.5t111.5 45.5t109 -45t44 -111q0 -64 -44.5 -108.5t-108.5 -44.5z
" />
    <glyph glyph-name="eth" unicode="&#xf0;" horiz-adv-x="1214" 
d="M96 477v105q0 217 125 349t322 132q171 0 280 -115q-51 154 -174 277l-153 -101l-99 131l117 76q-67 43 -143 70l102 203q126 -51 248 -138l180 119l100 -131l-151 -98q131 -134 199.5 -306.5t68.5 -371.5v-180q0 -244 -141 -384.5t-371 -140.5q-227 0 -368.5 137.5
t-141.5 366.5zM848 485v88q0 126 -64 199.5t-178 73.5t-176.5 -73.5t-62.5 -199.5v-88q0 -127 62.5 -199.5t176.5 -72.5q115 0 178.5 72.5t63.5 199.5z" />
    <glyph glyph-name="ntilde" unicode="&#xf1;" 
d="M1130 709v-709h-274v645q0 96 -60.5 160.5t-156.5 64.5t-157.5 -64t-61.5 -161v-645h-275v1090h275v-179q50 96 135.5 150.5t187.5 54.5q172 0 279.5 -116t107.5 -291zM498 1520q38 0 90.5 -24t98.5 -48.5t69 -24.5q54 0 80 109l172 -37q-57 -248 -230 -248
q-38 0 -90.5 24t-98.5 48t-69 24q-27 0 -46.5 -24t-33.5 -84l-172 35q57 250 230 250z" />
    <glyph glyph-name="ograve" unicode="&#xf2;" horiz-adv-x="1206" 
d="M1110 487q0 -234 -141 -374t-367 -140q-225 0 -365.5 140.5t-140.5 373.5v115q0 233 140 373.5t366 140.5t367 -140t141 -374v-115zM840 594q0 131 -62.5 207t-175.5 76q-112 0 -173.5 -76t-61.5 -207v-98q0 -132 61 -207.5t174 -75.5t175.5 75.5t62.5 207.5v98z
M537 1550l245 -303h-262l-284 303h301z" />
    <glyph glyph-name="oacute" unicode="&#xf3;" horiz-adv-x="1206" 
d="M1110 487q0 -234 -141 -374t-367 -140q-225 0 -365.5 140.5t-140.5 373.5v115q0 233 140 373.5t366 140.5t367 -140t141 -374v-115zM840 594q0 131 -62.5 207t-175.5 76q-112 0 -173.5 -76t-61.5 -207v-98q0 -132 61 -207.5t174 -75.5t175.5 75.5t62.5 207.5v98z
M670 1550h301l-285 -303h-262z" />
    <glyph glyph-name="ocircumflex" unicode="&#xf4;" horiz-adv-x="1206" 
d="M1110 487q0 -234 -141 -374t-367 -140q-225 0 -365.5 140.5t-140.5 373.5v115q0 233 140 373.5t366 140.5t367 -140t141 -374v-115zM840 594q0 131 -62.5 207t-175.5 76q-112 0 -173.5 -76t-61.5 -207v-98q0 -132 61 -207.5t174 -75.5t175.5 75.5t62.5 207.5v98z
M465 1247h-240l244 303h270l242 -303h-242l-137 162z" />
    <glyph glyph-name="otilde" unicode="&#xf5;" horiz-adv-x="1206" 
d="M1110 487q0 -234 -141 -374t-367 -140q-225 0 -365.5 140.5t-140.5 373.5v115q0 233 140 373.5t366 140.5t367 -140t141 -374v-115zM840 594q0 131 -62.5 207t-175.5 76q-112 0 -173.5 -76t-61.5 -207v-98q0 -132 61 -207.5t174 -75.5t175.5 75.5t62.5 207.5v98z
M461 1520q38 0 90.5 -24t98.5 -48.5t69 -24.5q54 0 80 109l172 -37q-57 -248 -230 -248q-38 0 -90.5 24t-98.5 48t-69 24q-27 0 -46.5 -24t-33.5 -84l-172 35q57 250 230 250z" />
    <glyph glyph-name="odieresis" unicode="&#xf6;" horiz-adv-x="1206" 
d="M1110 487q0 -234 -141 -374t-367 -140q-225 0 -365.5 140.5t-140.5 373.5v115q0 233 140 373.5t366 140.5t367 -140t141 -374v-115zM840 594q0 131 -62.5 207t-175.5 76q-112 0 -173.5 -76t-61.5 -207v-98q0 -132 61 -207.5t174 -75.5t175.5 75.5t62.5 207.5v98z
M385 1233q-65 0 -111.5 44.5t-46.5 108.5q0 65 46.5 110.5t111.5 45.5t109.5 -45t44.5 -111q0 -64 -44.5 -108.5t-109.5 -44.5zM825 1233q-65 0 -111 44.5t-46 108.5q0 66 46 111t111 45t109.5 -45t44.5 -111q0 -64 -44.5 -108.5t-109.5 -44.5z" />
    <glyph glyph-name="divide" unicode="&#xf7;" horiz-adv-x="1126" 
d="M565 1329q66 0 112 -46.5t46 -113.5q0 -66 -46 -111.5t-112 -45.5t-112.5 45.5t-46.5 111.5q0 67 46.5 113.5t112.5 46.5zM1028 649h-930v199h930v-199zM565 489q66 0 112 -46t46 -113q0 -66 -46 -112t-112 -46t-112.5 46t-46.5 112q0 67 46.5 113t112.5 46z" />
    <glyph glyph-name="oslash" unicode="&#xf8;" horiz-adv-x="1214" 
d="M68 0l129 162q-101 135 -101 325v115q0 233 140 373.5t366 140.5q168 0 295 -82l43 56h199l-129 -160q100 -137 100 -328v-115q0 -234 -141 -374t-367 -140q-169 0 -293 82l-45 -55h-196zM367 496q0 -60 12 -107l358 449q-58 39 -135 39q-112 0 -173.5 -76t-61.5 -207
v-98zM840 594q0 56 -13 106l-360 -448q58 -39 135 -39q113 0 175.5 75.5t62.5 207.5v98z" />
    <glyph glyph-name="ugrave" unicode="&#xf9;" 
d="M145 381v709h275v-646q0 -95 61 -160t156 -65q96 0 157.5 64t61.5 161v646h274v-1090h-274v178q-50 -97 -134 -151t-187 -54q-172 0 -281 117t-109 291zM573 1550l246 -303h-262l-285 303h301z" />
    <glyph glyph-name="uacute" unicode="&#xfa;" 
d="M145 381v709h275v-646q0 -95 61 -160t156 -65q96 0 157.5 64t61.5 161v646h274v-1090h-274v178q-50 -97 -134 -151t-187 -54q-172 0 -281 117t-109 291zM707 1550h301l-285 -303h-262z" />
    <glyph glyph-name="ucircumflex" unicode="&#xfb;" 
d="M145 381v709h275v-646q0 -95 61 -160t156 -65q96 0 157.5 64t61.5 161v646h274v-1090h-274v178q-50 -97 -134 -151t-187 -54q-172 0 -281 117t-109 291zM502 1247h-240l244 303h270l242 -303h-242l-137 162z" />
    <glyph glyph-name="udieresis" unicode="&#xfc;" 
d="M145 381v709h275v-646q0 -95 61 -160t156 -65q96 0 157.5 64t61.5 161v646h274v-1090h-274v178q-50 -97 -134 -151t-187 -54q-172 0 -281 117t-109 291zM422 1233q-65 0 -111.5 44.5t-46.5 108.5q0 65 46.5 110.5t111.5 45.5t109 -45t44 -111q0 -64 -44.5 -108.5
t-108.5 -44.5zM862 1233q-65 0 -111 44.5t-46 108.5q0 66 46 111t111 45t109.5 -45t44.5 -111q0 -64 -44.5 -108.5t-109.5 -44.5z" />
    <glyph glyph-name="yacute" unicode="&#xfd;" horiz-adv-x="1146" 
d="M424 -86l27 70l-449 1106h297l285 -740l272 740h289l-494 -1295q-55 -143 -132 -195.5t-210 -52.5h-157v232h112q61 0 96.5 30.5t63.5 104.5zM641 1550h301l-285 -303h-262z" />
    <glyph glyph-name="thorn" unicode="&#xfe;" 
d="M145 1516h275v-551q120 151 315 151q196 0 321.5 -138.5t125.5 -365.5v-135q0 -227 -125.5 -365.5t-321.5 -138.5q-195 0 -315 152v-578h-275v1969zM420 496q0 -132 64.5 -207.5t181.5 -75.5t181 75.5t64 207.5v98q0 131 -64 207t-181 76t-181.5 -76t-64.5 -207v-98z" />
    <glyph glyph-name="ydieresis" unicode="&#xff;" horiz-adv-x="1146" 
d="M424 -86l27 70l-449 1106h297l285 -740l272 740h289l-494 -1295q-55 -143 -132 -195.5t-210 -52.5h-157v232h112q61 0 96.5 30.5t63.5 104.5zM354 1233q-65 0 -111 44.5t-46 108.5q0 66 46 111t111 45t109.5 -45t44.5 -111q0 -64 -44.5 -108.5t-109.5 -44.5zM795 1233
q-65 0 -111.5 44.5t-46.5 108.5q0 65 46.5 110.5t111.5 45.5t109 -45t44 -111q0 -64 -44 -108.5t-109 -44.5z" />
    <glyph glyph-name="Amacron" unicode="&#x100;" horiz-adv-x="1406" 
d="M883 1434l530 -1434h-307l-121 346h-577l-121 -346h-293l532 1434h357zM496 594h403l-203 575zM979 1810v-178h-549v178h549z" />
    <glyph glyph-name="amacron" unicode="&#x101;" horiz-adv-x="1173" 
d="M61 309q0 145 94 226.5t269 95.5l297 22v41q0 82 -47.5 126t-136.5 44q-136 0 -279 -96l-117 203q192 141 430 141q192 0 305 -105t113 -282v-424q0 -63 64 -63h55v-238h-131q-87 0 -148 41.5t-86 114.5q-46 -84 -128 -131.5t-183 -47.5q-161 0 -266 94.5t-105 237.5z
M328 317q0 -57 46 -90.5t122 -33.5q93 0 159 58t66 142v64l-258 -23q-135 -12 -135 -117zM838 1464v-178h-549v178h549z" />
    <glyph glyph-name="Abreve" unicode="&#x102;" horiz-adv-x="1406" 
d="M883 1434l530 -1434h-307l-121 346h-577l-121 -346h-293l532 1434h357zM496 594h403l-203 575zM705 1739q123 0 174 145l178 -53q-36 -122 -132 -190t-220 -68t-220.5 68t-132.5 190l178 53q30 -82 74 -113.5t101 -31.5z" />
    <glyph glyph-name="abreve" unicode="&#x103;" horiz-adv-x="1173" 
d="M61 309q0 145 94 226.5t269 95.5l297 22v41q0 82 -47.5 126t-136.5 44q-136 0 -279 -96l-117 203q192 141 430 141q192 0 305 -105t113 -282v-424q0 -63 64 -63h55v-238h-131q-87 0 -148 41.5t-86 114.5q-46 -84 -128 -131.5t-183 -47.5q-161 0 -266 94.5t-105 237.5z
M328 317q0 -57 46 -90.5t122 -33.5q93 0 159 58t66 142v64l-258 -23q-135 -12 -135 -117zM563 1393q123 0 174 145l178 -53q-36 -122 -132 -190t-220 -68t-220 68t-132 190l178 53q30 -82 73.5 -113.5t100.5 -31.5z" />
    <glyph glyph-name="Aogonek" unicode="&#x104;" horiz-adv-x="1406" 
d="M1413 0q-162 -100 -162 -215q0 -44 24 -67t66 -23q46 0 82 16l29 -135q-67 -29 -143 -29q-105 0 -163.5 53t-58.5 136q0 72 36 135.5t126 128.5h-143l-121 346h-577l-121 -346h-293l532 1434h357zM496 594h403l-203 575z" />
    <glyph glyph-name="aogonek" unicode="&#x105;" horiz-adv-x="1173" 
d="M61 309q0 145 94 226.5t269 95.5l297 22v41q0 80 -48 125t-136 45q-136 0 -279 -96l-115 203q86 68 197 104.5t231 36.5q192 0 305 -105t113 -282v-424q0 -63 64 -63h55v-238q-162 -100 -162 -215q0 -44 24 -67t66 -23q46 0 82 16l29 -135q-67 -29 -143 -29
q-105 0 -163.5 53t-58.5 136q0 72 36.5 135.5t127.5 130.5q-75 6 -128 47t-75 107q-46 -84 -128 -131.5t-183 -47.5q-161 0 -266 94.5t-105 237.5zM328 315q0 -57 46.5 -91t121.5 -34q93 0 159 58.5t66 142.5v64l-258 -23q-135 -12 -135 -117z" />
    <glyph glyph-name="Cacute" unicode="&#x106;" horiz-adv-x="1443" 
d="M1366 899h-276q-23 143 -113.5 223t-224.5 80q-162 0 -259.5 -111.5t-97.5 -306.5v-133q0 -196 98 -308t259 -112q133 0 224 80.5t114 223.5h276q-28 -254 -198.5 -408t-415.5 -154q-287 0 -466.5 185t-179.5 483v154q0 196 81.5 347.5t228.5 234.5t336 83
q251 0 418.5 -153t195.5 -408zM819 1894h301l-284 -303h-263z" />
    <glyph glyph-name="cacute" unicode="&#x107;" horiz-adv-x="1134" 
d="M596 -27q-223 0 -361.5 140.5t-138.5 373.5v115q0 233 138.5 373.5t361.5 140.5q196 0 324.5 -114t156.5 -310h-266q-21 88 -75.5 136.5t-139.5 48.5q-109 0 -169 -76t-60 -207v-98q0 -132 60 -207.5t169 -75.5q85 0 139.5 47.5t75.5 134.5h266q-28 -192 -159 -307
t-322 -115zM662 1550h301l-285 -303h-262z" />
    <glyph glyph-name="Ccircumflex" unicode="&#x108;" horiz-adv-x="1443" 
d="M1366 899h-276q-23 143 -113.5 223t-224.5 80q-162 0 -259.5 -111.5t-97.5 -306.5v-133q0 -196 98 -308t259 -112q133 0 224 80.5t114 223.5h276q-28 -254 -198.5 -408t-415.5 -154q-287 0 -466.5 185t-179.5 483v154q0 196 81.5 347.5t228.5 234.5t336 83
q251 0 418.5 -153t195.5 -408zM614 1591h-239l243 303h271l241 -303h-241l-137 162z" />
    <glyph glyph-name="ccircumflex" unicode="&#x109;" horiz-adv-x="1134" 
d="M596 -27q-223 0 -361.5 140.5t-138.5 373.5v115q0 233 138.5 373.5t361.5 140.5q196 0 324.5 -114t156.5 -310h-266q-21 88 -75.5 136.5t-139.5 48.5q-109 0 -169 -76t-60 -207v-98q0 -132 60 -207.5t169 -75.5q85 0 139.5 47.5t75.5 134.5h266q-28 -192 -159 -307
t-322 -115zM457 1247h-240l244 303h270l242 -303h-242l-137 162z" />
    <glyph glyph-name="Cdotaccent" unicode="&#x10a;" horiz-adv-x="1443" 
d="M1366 899h-276q-23 143 -113.5 223t-224.5 80q-162 0 -259.5 -111.5t-97.5 -306.5v-133q0 -196 98 -308t259 -112q133 0 224 80.5t114 223.5h276q-28 -254 -198.5 -408t-415.5 -154q-287 0 -466.5 185t-179.5 483v154q0 196 81.5 347.5t228.5 234.5t336 83
q251 0 418.5 -153t195.5 -408zM754 1577q-65 0 -111.5 45t-46.5 109q0 65 46.5 110t111.5 45t109 -44.5t44 -110.5q0 -65 -44.5 -109.5t-108.5 -44.5z" />
    <glyph glyph-name="cdotaccent" unicode="&#x10b;" horiz-adv-x="1134" 
d="M596 -27q-223 0 -361.5 140.5t-138.5 373.5v115q0 233 138.5 373.5t361.5 140.5q196 0 324.5 -114t156.5 -310h-266q-21 88 -75.5 136.5t-139.5 48.5q-109 0 -169 -76t-60 -207v-98q0 -132 60 -207.5t169 -75.5q85 0 139.5 47.5t75.5 134.5h266q-28 -192 -159 -307
t-322 -115zM596 1233q-65 0 -111.5 44.5t-46.5 108.5q0 65 46.5 110.5t111.5 45.5t109.5 -45t44.5 -111q0 -64 -44.5 -108.5t-109.5 -44.5z" />
    <glyph glyph-name="Ccaron" unicode="&#x10c;" horiz-adv-x="1443" 
d="M1366 899h-276q-23 143 -113.5 223t-224.5 80q-162 0 -259.5 -111.5t-97.5 -306.5v-133q0 -196 98 -308t259 -112q133 0 224 80.5t114 223.5h276q-28 -254 -198.5 -408t-415.5 -154q-287 0 -466.5 185t-179.5 483v154q0 196 81.5 347.5t228.5 234.5t336 83
q251 0 418.5 -153t195.5 -408zM891 1894h239l-243 -303h-271l-241 303h241l138 -161z" />
    <glyph glyph-name="ccaron" unicode="&#x10d;" horiz-adv-x="1134" 
d="M596 -27q-223 0 -361.5 140.5t-138.5 373.5v115q0 233 138.5 373.5t361.5 140.5q196 0 324.5 -114t156.5 -310h-266q-21 88 -75.5 136.5t-139.5 48.5q-109 0 -169 -76t-60 -207v-98q0 -132 60 -207.5t169 -75.5q85 0 139.5 47.5t75.5 134.5h266q-28 -192 -159 -307
t-322 -115zM733 1550h240l-244 -303h-270l-242 303h242l137 -161z" />
    <glyph glyph-name="Dcaron" unicode="&#x10e;" horiz-adv-x="1476" 
d="M1370 641q0 -286 -180 -463.5t-467 -177.5h-565v1434h565q189 0 336 -80t229 -225.5t82 -333.5v-154zM707 1186h-265v-938h265q168 0 271 109.5t103 304.5v112q0 195 -102 303.5t-272 108.5zM879 1894h239l-244 -303h-270l-242 303h242l137 -161z" />
    <glyph glyph-name="dcaron" unicode="&#x10f;" horiz-adv-x="1572" 
d="M1309 1018l34 498h259l-91 -498h-202zM1135 0h-275v141q-114 -168 -317 -168q-196 0 -321.5 138.5t-125.5 365.5v135q0 227 125.5 365.5t321.5 138.5q201 0 317 -160v560h275v-1516zM860 594q0 131 -65.5 207t-182.5 76t-181 -76t-64 -207v-98q0 -132 64 -207.5
t181 -75.5q118 0 183 75.5t65 207.5v98z" />
    <glyph glyph-name="Dcroat" unicode="&#x110;" horiz-adv-x="1517" 
d="M16 596v242h183v596h565q189 0 336 -80t229 -225.5t82 -333.5v-154q0 -286 -180 -463.5t-467 -177.5h-565v596h-183zM748 1186h-265v-348h269v-242h-269v-348h265q168 0 271 109.5t103 304.5v112q0 195 -102 303.5t-272 108.5z" />
    <glyph glyph-name="dcroat" unicode="&#x111;" 
d="M1135 0h-275v141q-114 -168 -317 -168q-196 0 -321.5 138.5t-125.5 365.5v135q0 227 125.5 365.5t321.5 138.5q201 0 317 -160v240h-268v182h268v138h275v-138h104v-182h-104v-1196zM860 594q0 131 -65.5 207t-182.5 76t-181 -76t-64 -207v-98q0 -132 64 -207.5
t181 -75.5q118 0 183 75.5t65 207.5v98z" />
    <glyph glyph-name="Emacron" unicode="&#x112;" horiz-adv-x="1247" 
d="M158 0v1434h981v-248h-697v-346h676v-244h-676v-348h697v-248h-981zM936 1810v-178h-549v178h549z" />
    <glyph glyph-name="emacron" unicode="&#x113;" horiz-adv-x="1142" 
d="M96 492v106q0 233 137 375.5t361 142.5q204 0 332.5 -143.5t128.5 -370.5v-145h-690q7 -118 72.5 -182t174.5 -64q143 0 254 111l166 -164q-165 -183 -428 -183q-228 0 -368 141.5t-140 375.5zM367 664h426q-9 102 -64.5 158.5t-146.5 56.5t-147 -55.5t-68 -159.5z
M860 1466v-178h-549v178h549z" />
    <glyph glyph-name="Ebreve" unicode="&#x114;" horiz-adv-x="1247" 
d="M158 0v1434h981v-248h-697v-346h676v-244h-676v-348h697v-248h-981zM662 1739q123 0 174 145l178 -53q-36 -122 -132 -190t-220 -68t-220.5 68t-132.5 190l178 53q30 -82 74 -113.5t101 -31.5z" />
    <glyph glyph-name="ebreve" unicode="&#x115;" horiz-adv-x="1142" 
d="M96 492v106q0 233 137 375.5t361 142.5q204 0 332.5 -143.5t128.5 -370.5v-145h-690q7 -118 72.5 -182t174.5 -64q143 0 254 111l166 -164q-165 -183 -428 -183q-228 0 -368 141.5t-140 375.5zM367 664h426q-9 102 -64.5 158.5t-146.5 56.5t-147 -55.5t-68 -159.5z
M586 1395q123 0 174 145l178 -53q-36 -122 -132 -190t-220 -68t-220.5 68t-132.5 190l179 53q30 -82 73.5 -113.5t100.5 -31.5z" />
    <glyph glyph-name="Edotaccent" unicode="&#x116;" horiz-adv-x="1247" 
d="M158 0v1434h981v-248h-697v-346h676v-244h-676v-348h697v-248h-981zM664 1577q-65 0 -111.5 45t-46.5 109q0 65 46.5 110t111.5 45t109 -44.5t44 -110.5q0 -65 -44.5 -109.5t-108.5 -44.5z" />
    <glyph glyph-name="edotaccent" unicode="&#x117;" horiz-adv-x="1142" 
d="M96 492v106q0 233 137 375.5t361 142.5q204 0 332.5 -143.5t128.5 -370.5v-145h-690q7 -118 72.5 -182t174.5 -64q143 0 254 111l166 -164q-165 -183 -428 -183q-228 0 -368 141.5t-140 375.5zM367 664h426q-9 102 -64.5 158.5t-146.5 56.5t-147 -55.5t-68 -159.5z
M588 1233q-65 0 -111.5 44.5t-46.5 108.5q0 65 46.5 110.5t111.5 45.5t109 -45t44 -111q0 -64 -44.5 -108.5t-108.5 -44.5z" />
    <glyph glyph-name="Eogonek" unicode="&#x118;" horiz-adv-x="1247" 
d="M158 0v1434h981v-248h-697v-346h676v-244h-676v-348h697v-248q-162 -100 -162 -215q0 -44 24 -67t66 -23q46 0 82 16l29 -135q-67 -29 -144 -29q-105 0 -163 53t-58 136q0 72 36 135.5t126 128.5h-817z" />
    <glyph glyph-name="eogonek" unicode="&#x119;" horiz-adv-x="1142" 
d="M96 492v106q0 233 137 375.5t361 142.5q204 0 332.5 -143.5t128.5 -370.5v-145h-690q7 -118 72.5 -182t174.5 -64q143 0 254 111l166 -164q-117 -126 -272 -164q-152 -97 -152 -209q0 -44 24 -67t66 -23q46 0 82 16l29 -135q-67 -29 -143 -29q-105 0 -163.5 53t-58.5 136
q0 134 131 239q-216 9 -347.5 150t-131.5 367zM582 879q-91 0 -147 -55.5t-68 -159.5h426q-9 102 -64.5 158.5t-146.5 56.5z" />
    <glyph glyph-name="Ecaron" unicode="&#x11a;" horiz-adv-x="1247" 
d="M158 0v1434h981v-248h-697v-346h676v-244h-676v-348h697v-248h-981zM801 1894h239l-243 -303h-271l-241 303h241l138 -161z" />
    <glyph glyph-name="ecaron" unicode="&#x11b;" horiz-adv-x="1142" 
d="M96 492v106q0 233 137 375.5t361 142.5q204 0 332.5 -143.5t128.5 -370.5v-145h-690q7 -118 72.5 -182t174.5 -64q143 0 254 111l166 -164q-165 -183 -428 -183q-228 0 -368 141.5t-140 375.5zM367 664h426q-9 102 -64.5 158.5t-146.5 56.5t-147 -55.5t-68 -159.5z
M725 1550h240l-244 -303h-270l-242 303h242l137 -161z" />
    <glyph glyph-name="Gcircumflex" unicode="&#x11c;" horiz-adv-x="1527" 
d="M106 649v142q0 299 178 483t466 186q220 0 376.5 -98.5t243.5 -280.5l-248 -118q-55 111 -148.5 174t-211.5 63q-169 0 -268 -111t-99 -309v-131q0 -202 100.5 -314t266.5 -112q161 0 256.5 87.5t95.5 219.5v25h-379v238h645v-793h-266v201q-72 -113 -181 -169.5
t-228 -56.5q-270 0 -434.5 185t-164.5 489zM629 1589h-240l244 303h270l242 -303h-242l-137 162z" />
    <glyph glyph-name="gcircumflex" unicode="&#x11d;" horiz-adv-x="1259" 
d="M383 -453v232h279q83 0 131.5 47.5t48.5 130.5v199q-115 -166 -310 -166t-316.5 140t-121.5 364v118q0 224 121.5 364t316.5 140q95 0 175 -42t135 -118v134h274v-1164q0 -169 -106.5 -274t-278.5 -105h-348zM842 594q0 132 -64 207.5t-176 75.5t-174.5 -75t-62.5 -208
v-90q0 -133 62 -204t175 -71t176.5 71.5t63.5 203.5v90zM469 1247h-240l244 303h270l242 -303h-242l-137 162z" />
    <glyph glyph-name="Gbreve" unicode="&#x11e;" horiz-adv-x="1527" 
d="M106 649v142q0 299 178 483t466 186q220 0 376.5 -98.5t243.5 -280.5l-248 -118q-55 111 -148.5 174t-211.5 63q-169 0 -268 -111t-99 -309v-131q0 -202 100.5 -314t266.5 -112q161 0 256.5 87.5t95.5 219.5v25h-379v238h645v-793h-266v201q-72 -113 -181 -169.5
t-228 -56.5q-270 0 -434.5 185t-164.5 489zM766 1737q123 0 174 145l178 -53q-36 -122 -132 -190t-220 -68t-220 68t-132 190l178 53q30 -82 73.5 -113.5t100.5 -31.5z" />
    <glyph glyph-name="gbreve" unicode="&#x11f;" horiz-adv-x="1259" 
d="M383 -453v232h279q83 0 131.5 47.5t48.5 130.5v199q-115 -166 -310 -166t-316.5 140t-121.5 364v118q0 224 121.5 364t316.5 140q95 0 175 -42t135 -118v134h274v-1164q0 -169 -106.5 -274t-278.5 -105h-348zM842 594q0 132 -64 207.5t-176 75.5t-174.5 -75t-62.5 -208
v-90q0 -133 62 -204t175 -71t176.5 71.5t63.5 203.5v90zM606 1395q123 0 174 145l178 -53q-36 -122 -132 -190t-220 -68t-220 68t-132 190l178 53q30 -82 73.5 -113.5t100.5 -31.5z" />
    <glyph glyph-name="Gdotaccent" unicode="&#x120;" horiz-adv-x="1527" 
d="M106 649v142q0 299 178 483t466 186q220 0 376.5 -98.5t243.5 -280.5l-248 -118q-55 111 -148.5 174t-211.5 63q-169 0 -268 -111t-99 -309v-131q0 -202 100.5 -314t266.5 -112q161 0 256.5 87.5t95.5 219.5v25h-379v238h645v-793h-266v201q-72 -113 -181 -169.5
t-228 -56.5q-270 0 -434.5 185t-164.5 489zM768 1575q-65 0 -111.5 45t-46.5 109q0 65 46.5 110t111.5 45t109.5 -44.5t44.5 -110.5q0 -65 -45 -109.5t-109 -44.5z" />
    <glyph glyph-name="gdotaccent" unicode="&#x121;" horiz-adv-x="1259" 
d="M383 -453v232h279q83 0 131.5 47.5t48.5 130.5v199q-115 -166 -310 -166t-316.5 140t-121.5 364v118q0 224 121.5 364t316.5 140q95 0 175 -42t135 -118v134h274v-1164q0 -169 -106.5 -274t-278.5 -105h-348zM842 594q0 132 -64 207.5t-176 75.5t-174.5 -75t-62.5 -208
v-90q0 -133 62 -204t175 -71t176.5 71.5t63.5 203.5v90zM608 1233q-65 0 -111 44.5t-46 108.5q0 66 46 111t111 45t109.5 -45t44.5 -111q0 -64 -44.5 -108.5t-109.5 -44.5z" />
    <glyph glyph-name="uni0122" unicode="&#x122;" horiz-adv-x="1527" 
d="M106 649v142q0 299 178 483t466 186q220 0 376.5 -98.5t243.5 -280.5l-248 -118q-55 111 -148.5 174t-211.5 63q-169 0 -268 -111t-99 -309v-131q0 -202 100.5 -314t266.5 -112q161 0 256.5 87.5t95.5 219.5v25h-379v238h645v-793h-266v201q-72 -113 -181 -169.5
t-228 -56.5q-270 0 -434.5 185t-164.5 489zM633 -504q48 4 81.5 31.5t33.5 56.5q0 13 -12.5 24t-31 21t-36.5 23.5t-30.5 36.5t-12.5 53q0 47 36.5 83t86.5 36q64 0 102.5 -49.5t38.5 -133.5q0 -111 -72 -193.5t-184 -88.5v100z" />
    <glyph glyph-name="uni0123" unicode="&#x123;" horiz-adv-x="1269" 
d="M713 1597q-48 -4 -81.5 -31.5t-33.5 -56.5q0 -15 19 -29t42.5 -26t42.5 -38.5t19 -63.5q0 -47 -36.5 -83t-86.5 -36q-64 0 -102.5 49t-38.5 133q0 111 72 194t184 89v-101zM383 -453v232h279q83 0 131.5 47.5t48.5 130.5v199q-115 -166 -310 -166t-316.5 140t-121.5 364
v118q0 224 121.5 364t316.5 140q95 0 175 -42t135 -118v134h274v-1164q0 -169 -106.5 -274t-278.5 -105h-348zM842 594q0 132 -64 207.5t-176 75.5t-174.5 -75t-62.5 -208v-90q0 -133 62 -204t175 -71t176.5 71.5t63.5 203.5v90z" />
    <glyph glyph-name="Hcircumflex" unicode="&#x124;" horiz-adv-x="1523" 
d="M442 0h-284v1434h284v-592h639v592h285v-1434h-285v594h-639v-594zM625 1591h-240l244 303h270l242 -303h-242l-137 162z" />
    <glyph glyph-name="hcircumflex" unicode="&#x125;" 
d="M1130 709v-709h-274v645q0 96 -60.5 160.5t-156.5 64.5t-157.5 -64t-61.5 -161v-645h-275v1516h275v-605q50 96 135.5 150.5t187.5 54.5q172 0 279.5 -116t107.5 -291zM147 1673h-239l244 303h270l242 -303h-242l-137 162z" />
    <glyph glyph-name="Hbar" unicode="&#x126;" horiz-adv-x="1605" 
d="M483 0h-284v1024h-199v221h199v189h284v-189h639v189h285v-189h199v-221h-199v-1024h-285v594h-639v-594zM483 842h639v182h-639v-182z" />
    <glyph glyph-name="hbar" unicode="&#x127;" horiz-adv-x="1316" 
d="M1171 709v-709h-274v645q0 96 -60.5 160.5t-156.5 64.5t-157.5 -64t-61.5 -161v-645h-275v1196h-108v182h108v138h275v-138h264v-182h-264v-285q50 96 135.5 150.5t187.5 54.5q172 0 279.5 -116t107.5 -291z" />
    <glyph glyph-name="Itilde" unicode="&#x128;" horiz-adv-x="600" 
d="M442 0h-284v1434h284v-1434zM158 1864q38 0 90.5 -24t98.5 -48.5t69 -24.5q54 0 80 109l172 -37q-57 -248 -230 -248q-38 0 -90.5 24t-98.5 48.5t-69 24.5q-54 0 -80 -109l-172 35q57 250 230 250z" />
    <glyph glyph-name="itilde" unicode="&#x129;" horiz-adv-x="565" 
d="M420 1090v-1090h-275v1090h275zM141 1520q38 0 90.5 -24t98.5 -48.5t69 -24.5q54 0 80 109l172 -37q-57 -248 -229 -248q-38 0 -90.5 24t-98.5 48t-69 24q-27 0 -46.5 -24t-33.5 -84l-172 35q57 250 229 250z" />
    <glyph glyph-name="Imacron" unicode="&#x12a;" horiz-adv-x="600" 
d="M442 0h-284v1434h284v-1434zM575 1810v-178h-548v178h548z" />
    <glyph glyph-name="imacron" unicode="&#x12b;" horiz-adv-x="565" 
d="M420 1090v-1090h-275v1090h275zM557 1466v-178h-549v178h549z" />
    <glyph glyph-name="Ibreve" unicode="&#x12c;" horiz-adv-x="600" 
d="M442 0h-284v1434h284v-1434zM299 1739q123 0 174 145l178 -53q-36 -122 -132 -190t-220 -68t-220 68t-132 190l178 53q30 -82 73.5 -113.5t100.5 -31.5z" />
    <glyph glyph-name="ibreve" unicode="&#x12d;" horiz-adv-x="565" 
d="M420 1090v-1090h-275v1090h275zM283 1395q123 0 174 145l178 -53q-36 -122 -132 -190t-220 -68t-220.5 68t-132.5 190l179 53q30 -82 73.5 -113.5t100.5 -31.5z" />
    <glyph glyph-name="Iogonek" unicode="&#x12e;" horiz-adv-x="600" 
d="M442 0q-94 -58 -127.5 -110.5t-33.5 -104.5q0 -44 24 -67t66 -23q46 0 82 16l28 -135q-67 -29 -143 -29q-105 0 -163 53t-58 136q0 72 36 135.5t126 128.5h-121v1434h284v-1434z" />
    <glyph glyph-name="iogonek" unicode="&#x12f;" horiz-adv-x="565" 
d="M283 1235q-65 0 -111.5 45t-46.5 109q0 65 46.5 110t111.5 45t109 -44.5t44 -110.5q0 -65 -44.5 -109.5t-108.5 -44.5zM420 0q-162 -100 -162 -215q0 -44 24 -67t66 -23q46 0 82 16l29 -135q-67 -29 -144 -29q-105 0 -163 53t-58 136q0 72 36 135.5t126 128.5h-111v1090
h275v-1090z" />
    <glyph glyph-name="Idotaccent" unicode="&#x130;" horiz-adv-x="600" 
d="M442 0h-284v1434h284v-1434zM303 1577q-65 0 -111.5 45t-46.5 109q0 65 46.5 110t111.5 45t109.5 -44.5t44.5 -110.5q0 -65 -44.5 -109.5t-109.5 -44.5z" />
    <glyph glyph-name="dotlessi" unicode="&#x131;" horiz-adv-x="565" 
d="M420 1090v-1090h-275v1090h275z" />
    <glyph glyph-name="IJ" unicode="&#x132;" horiz-adv-x="1685" 
d="M442 0h-284v1434h284v-1434zM604 113l174 206q42 -44 103 -70t127 -26q111 0 183.5 79.5t72.5 209.5v922h284v-953q0 -151 -69.5 -269t-190 -181.5t-270.5 -63.5q-265 0 -414 146z" />
    <glyph glyph-name="ij" unicode="&#x133;" horiz-adv-x="1130" 
d="M283 1235q-65 0 -111.5 45t-46.5 109q0 65 46.5 110t111.5 45t109 -44.5t44 -110.5q0 -65 -44.5 -109.5t-108.5 -44.5zM420 1090v-1090h-275v1090h275zM848 1235q-65 0 -111.5 45t-46.5 109q0 65 46.5 110t111.5 45t109 -44.5t44 -110.5q0 -65 -44.5 -109.5t-108.5 -44.5
zM707 -453h-144v232h66q38 0 60 21t22 63v1227h274v-1280q0 -113 -74 -188t-204 -75z" />
    <glyph glyph-name="Jcircumflex" unicode="&#x134;" horiz-adv-x="1085" 
d="M4 113l174 206q42 -44 103 -70t127 -26q111 0 183.5 79.5t72.5 209.5v922h284v-953q0 -151 -69.5 -269t-190 -181.5t-270.5 -63.5q-265 0 -414 146zM666 1591h-240l244 303h270l242 -303h-242l-137 162z" />
    <glyph glyph-name="jcircumflex" unicode="&#x135;" horiz-adv-x="565" 
d="M141 -453h-143v232h65q38 0 60 21t22 63v1227h275v-1280q0 -113 -74.5 -188t-204.5 -75zM145 1247h-239l244 303h270l242 -303h-242l-137 162z" />
    <glyph glyph-name="uni0136" unicode="&#x136;" horiz-adv-x="1374" 
d="M442 0h-284v1434h284v-598l586 598h371l-707 -695l727 -739h-397l-580 614v-614zM580 -504q48 4 81 31.5t33 56.5q0 13 -12.5 24t-31 21t-36.5 23.5t-30.5 36.5t-12.5 53q0 47 36.5 83t86.5 36q64 0 103 -49.5t39 -133.5q0 -111 -72 -193.5t-184 -88.5v100z" />
    <glyph glyph-name="uni0137" unicode="&#x137;" horiz-adv-x="1146" 
d="M1128 1090l-448 -515l496 -575h-349l-407 496v-496h-275v1516h275v-891l391 465h317zM498 -504q48 4 81 31.5t33 56.5q0 13 -12.5 24t-31 21t-36.5 23.5t-30.5 36.5t-12.5 53q0 47 36.5 83t86.5 36q64 0 103 -49.5t39 -133.5q0 -111 -72 -193.5t-184 -88.5v100z" />
    <glyph glyph-name="kgreenlandic" unicode="&#x138;" horiz-adv-x="1146" 
d="M420 1090v-465l391 465h317l-448 -515l496 -575h-349l-407 496v-496h-275v1090h275z" />
    <glyph glyph-name="Lacute" unicode="&#x139;" horiz-adv-x="1216" 
d="M1139 248v-248h-981v1434h284v-1186h697zM367 1894h301l-285 -303h-262z" />
    <glyph glyph-name="lacute" unicode="&#x13a;" horiz-adv-x="565" 
d="M420 0h-275v1516h275v-1516zM350 1976h301l-284 -303h-263z" />
    <glyph glyph-name="uni013B" unicode="&#x13b;" horiz-adv-x="1216" 
d="M1139 248v-248h-981v1434h284v-1186h697zM541 -504q48 4 81 31.5t33 56.5q0 13 -12.5 24t-30.5 21t-36.5 23.5t-31 36.5t-12.5 53q0 47 36.5 83t86.5 36q64 0 103 -49.5t39 -133.5q0 -111 -72 -193.5t-184 -88.5v100z" />
    <glyph glyph-name="uni013C" unicode="&#x13c;" horiz-adv-x="565" 
d="M420 0h-275v1516h275v-1516zM168 -504q48 4 81.5 31.5t33.5 56.5q0 13 -12.5 24t-30.5 21t-36.5 23.5t-31 36.5t-12.5 53q0 47 36.5 83t86.5 36q64 0 102.5 -49.5t38.5 -133.5q0 -111 -72 -193.5t-184 -88.5v100z" />
    <glyph glyph-name="Lcaron" unicode="&#x13d;" horiz-adv-x="1216" 
d="M1139 248v-248h-981v1434h284v-1186h697zM756 936l35 498h258l-91 -498h-202z" />
    <glyph glyph-name="lcaron" unicode="&#x13e;" horiz-adv-x="862" 
d="M596 1018l35 498h258l-90 -498h-203zM420 0h-275v1516h275v-1516z" />
    <glyph glyph-name="Ldot" unicode="&#x13f;" horiz-adv-x="1216" 
d="M1139 248v-248h-981v1434h284v-1186h697zM887 621q-65 0 -111.5 44.5t-46.5 108.5q0 65 46.5 110.5t111.5 45.5t109 -45t44 -111q0 -64 -44 -108.5t-109 -44.5z" />
    <glyph glyph-name="ldot" unicode="&#x140;" horiz-adv-x="802" 
d="M420 0h-275v1516h275v-1516zM686 553q-65 0 -111.5 45t-46.5 109q0 65 46.5 110t111.5 45t109.5 -44.5t44.5 -110.5q0 -65 -45 -109.5t-109 -44.5z" />
    <glyph glyph-name="Lslash" unicode="&#x141;" horiz-adv-x="1257" 
d="M37 305v240l162 121v768h284v-555l281 208v-239l-281 -209v-391h697v-248h-981v426z" />
    <glyph glyph-name="lslash" unicode="&#x142;" horiz-adv-x="626" 
d="M451 0h-275v473l-151 -131v240l151 131v803h275v-566l176 154v-242l-176 -151v-711z" />
    <glyph glyph-name="Nacute" unicode="&#x143;" horiz-adv-x="1564" 
d="M422 0h-264v1434h303l680 -1026l2 1026h264v-1434h-303l-680 1026zM850 1894h301l-285 -303h-262z" />
    <glyph glyph-name="nacute" unicode="&#x144;" 
d="M1130 709v-709h-274v645q0 96 -60.5 160.5t-156.5 64.5t-157.5 -64t-61.5 -161v-645h-275v1090h275v-179q50 96 135.5 150.5t187.5 54.5q172 0 279.5 -116t107.5 -291zM707 1550h301l-285 -303h-262z" />
    <glyph glyph-name="uni0145" unicode="&#x145;" horiz-adv-x="1564" 
d="M422 0h-264v1434h303l680 -1026l2 1026h264v-1434h-303l-680 1026zM668 -504q48 4 81 31.5t33 56.5q0 13 -12.5 24t-31 21t-36.5 23.5t-30.5 36.5t-12.5 53q0 47 36.5 83t86.5 36q64 0 103 -49.5t39 -133.5q0 -111 -72 -193.5t-184 -88.5v100z" />
    <glyph glyph-name="uni0146" unicode="&#x146;" 
d="M1130 709v-709h-274v645q0 96 -60.5 160.5t-156.5 64.5t-157.5 -64t-61.5 -161v-645h-275v1090h275v-179q50 96 135.5 150.5t187.5 54.5q172 0 279.5 -116t107.5 -291zM524 -504q48 4 81.5 31.5t33.5 56.5q0 13 -12.5 24t-30.5 21t-36.5 23.5t-31 36.5t-12.5 53
q0 47 36.5 83t86.5 36q64 0 102.5 -49.5t38.5 -133.5q0 -111 -72 -193.5t-184 -88.5v100z" />
    <glyph glyph-name="Ncaron" unicode="&#x147;" horiz-adv-x="1564" 
d="M422 0h-264v1434h303l680 -1026l2 1026h264v-1434h-303l-680 1026zM922 1894h239l-243 -303h-271l-241 303h241l137 -161z" />
    <glyph glyph-name="ncaron" unicode="&#x148;" 
d="M1130 709v-709h-274v645q0 96 -60.5 160.5t-156.5 64.5t-157.5 -64t-61.5 -161v-645h-275v1090h275v-179q50 96 135.5 150.5t187.5 54.5q172 0 279.5 -116t107.5 -291zM778 1550h240l-244 -303h-270l-242 303h242l137 -161z" />
    <glyph glyph-name="Eng" unicode="&#x14a;" horiz-adv-x="1574" 
d="M1149 -135v145l-725 1006l-2 -1016h-264v1434h293l700 -965l2 965h264v-1627q0 -112 -72.5 -186t-201.5 -74h-144v236h64q41 0 63.5 21t22.5 61z" />
    <glyph glyph-name="eng" unicode="&#x14b;" 
d="M854 -453h-145v232h65q82 0 82 84v782q0 96 -60.5 160.5t-156.5 64.5t-157.5 -64t-61.5 -161v-645h-275v1090h275v-179q50 96 135.5 150.5t187.5 54.5q172 0 279.5 -116t107.5 -291v-899q0 -114 -73 -188.5t-203 -74.5z" />
    <glyph glyph-name="Omacron" unicode="&#x14c;" horiz-adv-x="1540" 
d="M106 795q0 196 84 347.5t235 234.5t345 83t345 -83t235 -234.5t84 -347.5v-154q0 -298 -185 -483t-479 -185t-479 185t-185 483v154zM395 784v-133q0 -196 103 -308t272 -112q168 0 271.5 112t103.5 308v133q0 195 -102.5 306.5t-272.5 111.5t-272.5 -111.5
t-102.5 -306.5zM1044 1810v-178h-548v178h548z" />
    <glyph glyph-name="omacron" unicode="&#x14d;" horiz-adv-x="1206" 
d="M1110 487q0 -234 -141 -374t-367 -140q-225 0 -365.5 140.5t-140.5 373.5v115q0 233 140 373.5t366 140.5t367 -140t141 -374v-115zM840 594q0 131 -62.5 207t-175.5 76q-112 0 -173.5 -76t-61.5 -207v-98q0 -132 61 -207.5t174 -75.5t175.5 75.5t62.5 207.5v98z
M877 1466v-178h-549v178h549z" />
    <glyph glyph-name="Obreve" unicode="&#x14e;" horiz-adv-x="1540" 
d="M106 795q0 196 84 347.5t235 234.5t345 83t345 -83t235 -234.5t84 -347.5v-154q0 -298 -185 -483t-479 -185t-479 185t-185 483v154zM395 784v-133q0 -196 103 -308t272 -112q168 0 271.5 112t103.5 308v133q0 195 -102.5 306.5t-272.5 111.5t-272.5 -111.5
t-102.5 -306.5zM770 1739q123 0 174 145l178 -53q-36 -122 -132 -190t-220 -68t-220 68t-132 190l178 53q30 -82 73.5 -113.5t100.5 -31.5z" />
    <glyph glyph-name="obreve" unicode="&#x14f;" horiz-adv-x="1206" 
d="M1110 487q0 -234 -141 -374t-367 -140q-225 0 -365.5 140.5t-140.5 373.5v115q0 233 140 373.5t366 140.5t367 -140t141 -374v-115zM840 594q0 131 -62.5 207t-175.5 76q-112 0 -173.5 -76t-61.5 -207v-98q0 -132 61 -207.5t174 -75.5t175.5 75.5t62.5 207.5v98z
M602 1395q123 0 174 145l178 -53q-36 -122 -132 -190t-220 -68t-220 68t-132 190l178 53q30 -82 73.5 -113.5t100.5 -31.5z" />
    <glyph glyph-name="Ohungarumlaut" unicode="&#x150;" horiz-adv-x="1540" 
d="M106 795q0 196 84 347.5t235 234.5t345 83t345 -83t235 -234.5t84 -347.5v-154q0 -298 -185 -483t-479 -185t-479 185t-185 483v154zM395 784v-133q0 -196 103 -308t272 -112q168 0 271.5 112t103.5 308v133q0 195 -102.5 306.5t-272.5 111.5t-272.5 -111.5
t-102.5 -306.5zM635 1894h268l-274 -303h-234zM1044 1894h269l-273 -303h-235z" />
    <glyph glyph-name="ohungarumlaut" unicode="&#x151;" horiz-adv-x="1206" 
d="M1110 487q0 -234 -141 -374t-367 -140q-225 0 -365.5 140.5t-140.5 373.5v115q0 233 140 373.5t366 140.5t367 -140t141 -374v-115zM840 594q0 131 -62.5 207t-175.5 76q-112 0 -173.5 -76t-61.5 -207v-98q0 -132 61 -207.5t174 -75.5t175.5 75.5t62.5 207.5v98z
M467 1550h268l-274 -303h-234zM877 1550h268l-273 -303h-235z" />
    <glyph glyph-name="OE" unicode="&#x152;" horiz-adv-x="2072" 
d="M106 793q0 284 181.5 462.5t470.5 178.5h1206v-248h-676v-346h656v-244h-656v-348h676v-248h-1206q-190 0 -338 79.5t-231 225.5t-83 334v154zM776 248h228v938h-226q-171 0 -277 -108t-106 -296v-133q0 -187 104.5 -294t276.5 -107z" />
    <glyph glyph-name="oe" unicode="&#x153;" horiz-adv-x="1898" 
d="M1362 -25q-122 0 -221 47t-162 134q-135 -183 -383 -183q-222 0 -361 140.5t-139 373.5v115q0 233 138.5 373.5t361.5 140.5q121 0 219.5 -46.5t161.5 -133.5q131 180 375 180q204 0 332 -143.5t128 -370.5v-145h-690q7 -118 72.5 -182t175.5 -64q143 0 254 111l166 -164
q-165 -183 -428 -183zM1339 879q-91 0 -147 -55.5t-68 -159.5h426q-9 102 -64.5 158.5t-146.5 56.5zM848 594q0 130 -64 206.5t-178 76.5t-176.5 -76t-62.5 -207v-98q0 -132 62.5 -207.5t176.5 -75.5q115 0 178.5 75.5t63.5 207.5v98z" />
    <glyph glyph-name="Racute" unicode="&#x154;" horiz-adv-x="1351" 
d="M442 0h-284v1434h633q183 0 309.5 -127.5t126.5 -313.5q0 -131 -71 -236t-189 -155l356 -602h-324l-317 567h-240v-567zM743 1186h-301v-385h301q88 0 142.5 54.5t54.5 137.5q0 84 -54.5 138.5t-142.5 54.5zM733 1894h301l-284 -303h-263z" />
    <glyph glyph-name="racute" unicode="&#x155;" horiz-adv-x="841" 
d="M791 829h-121q-104 0 -177 -72.5t-73 -193.5v-563h-275v1090h273v-213q35 104 108.5 163.5t180.5 59.5h84v-271zM561 1550h301l-284 -303h-263z" />
    <glyph glyph-name="uni0156" unicode="&#x156;" horiz-adv-x="1351" 
d="M442 0h-284v1434h633q183 0 309.5 -127.5t126.5 -313.5q0 -131 -71 -236t-189 -155l356 -602h-324l-317 567h-240v-567zM743 1186h-301v-385h301q88 0 142.5 54.5t54.5 137.5q0 84 -54.5 138.5t-142.5 54.5zM575 -504q48 4 81.5 31.5t33.5 56.5q0 13 -12.5 24t-31 21
t-36.5 23.5t-30.5 36.5t-12.5 53q0 47 36.5 83t86.5 36q64 0 102.5 -49.5t38.5 -133.5q0 -111 -72 -193.5t-184 -88.5v100z" />
    <glyph glyph-name="uni0157" unicode="&#x157;" horiz-adv-x="841" 
d="M791 829h-121q-104 0 -177 -72.5t-73 -193.5v-563h-275v1090h273v-213q35 104 108.5 163.5t180.5 59.5h84v-271zM170 -504q48 4 81.5 31.5t33.5 56.5q0 13 -12.5 24t-30.5 21t-36.5 23.5t-31 36.5t-12.5 53q0 47 36.5 83t86.5 36q64 0 102.5 -49.5t38.5 -133.5
q0 -111 -72 -193.5t-184 -88.5v100z" />
    <glyph glyph-name="Rcaron" unicode="&#x158;" horiz-adv-x="1351" 
d="M442 0h-284v1434h633q183 0 309.5 -127.5t126.5 -313.5q0 -131 -71 -236t-189 -155l356 -602h-324l-317 567h-240v-567zM743 1186h-301v-385h301q88 0 142.5 54.5t54.5 137.5q0 84 -54.5 138.5t-142.5 54.5zM805 1894h239l-243 -303h-271l-241 303h241l138 -161z" />
    <glyph glyph-name="rcaron" unicode="&#x159;" horiz-adv-x="841" 
d="M791 829h-121q-104 0 -177 -72.5t-73 -193.5v-563h-275v1090h273v-213q35 104 108.5 163.5t180.5 59.5h84v-271zM633 1550h239l-243 -303h-271l-241 303h241l138 -161z" />
    <glyph glyph-name="Sacute" unicode="&#x15a;" horiz-adv-x="1269" 
d="M72 449h276q14 -110 94 -173t213 -63q119 0 183.5 48t64.5 126q0 58 -42 102.5t-130 65.5l-264 61q-383 88 -383 410q0 193 144.5 311.5t363.5 118.5q226 0 377.5 -126.5t181.5 -332.5h-279q-24 106 -95 165t-187 59q-98 0 -160.5 -46.5t-62.5 -127.5q0 -127 172 -168
l262 -62q202 -47 293.5 -145.5t91.5 -261.5q0 -186 -147 -309.5t-386 -123.5q-242 0 -403 130.5t-178 341.5zM692 1894h301l-284 -303h-263z" />
    <glyph glyph-name="sacute" unicode="&#x15b;" horiz-adv-x="1064" 
d="M569 -25q-198 0 -331.5 99t-167.5 270h260q19 -74 81 -115t158 -41q69 0 110.5 30t41.5 81q0 35 -28.5 61.5t-78.5 38.5l-225 54q-301 70 -301 319q0 155 111.5 249.5t292.5 94.5q190 0 319.5 -102t155.5 -271h-262q-19 72 -78 116t-138 44q-61 0 -97 -29t-36 -77
q0 -39 32.5 -67.5t94.5 -43.5l209 -49q297 -70 297 -318q0 -153 -117 -248.5t-303 -95.5zM561 1550h301l-284 -303h-263z" />
    <glyph glyph-name="Scircumflex" unicode="&#x15c;" horiz-adv-x="1269" 
d="M72 449h276q14 -110 94 -173t213 -63q119 0 183.5 48t64.5 126q0 58 -42 102.5t-130 65.5l-264 61q-383 88 -383 410q0 193 144.5 311.5t363.5 118.5q226 0 377.5 -126.5t181.5 -332.5h-279q-24 106 -95 165t-187 59q-98 0 -160.5 -46.5t-62.5 -127.5q0 -127 172 -168
l262 -62q202 -47 293.5 -145.5t91.5 -261.5q0 -186 -147 -309.5t-386 -123.5q-242 0 -403 130.5t-178 341.5zM487 1591h-239l244 303h270l242 -303h-242l-137 162z" />
    <glyph glyph-name="scircumflex" unicode="&#x15d;" horiz-adv-x="1064" 
d="M569 -25q-198 0 -331.5 99t-167.5 270h260q19 -74 81 -115t158 -41q69 0 110.5 30t41.5 81q0 35 -28.5 61.5t-78.5 38.5l-225 54q-301 70 -301 319q0 155 111.5 249.5t292.5 94.5q190 0 319.5 -102t155.5 -271h-262q-19 72 -78 116t-138 44q-61 0 -97 -29t-36 -77
q0 -39 32.5 -67.5t94.5 -43.5l209 -49q297 -70 297 -318q0 -153 -117 -248.5t-303 -95.5zM356 1247h-239l243 303h271l241 -303h-241l-137 162z" />
    <glyph glyph-name="uni015E" unicode="&#x15e;" horiz-adv-x="1269" 
d="M72 449h276q14 -110 94 -173t213 -63q119 0 183.5 48t64.5 126q0 58 -42 102.5t-130 65.5l-264 61q-383 88 -383 410q0 193 144.5 311.5t363.5 118.5q226 0 377.5 -126.5t181.5 -332.5h-279q-24 106 -95 165t-187 59q-98 0 -160.5 -46.5t-62.5 -127.5q0 -127 172 -168
l262 -62q202 -47 293.5 -145.5t91.5 -261.5q0 -173 -128.5 -293t-342.5 -137l-27 -78q78 -11 125 -58t47 -116q0 -87 -70.5 -146t-173.5 -59q-80 0 -145 27.5t-102 76.5l108 90q55 -61 127 -61q41 0 66.5 22t25.5 52q0 32 -27 51.5t-67 19.5h-90l57 181
q-211 23 -346.5 149.5t-150.5 317.5z" />
    <glyph glyph-name="uni015F" unicode="&#x15f;" horiz-adv-x="1064" 
d="M772 -272q0 -87 -70.5 -146t-173.5 -59q-80 0 -145 27.5t-102 76.5l108 90q55 -61 127 -61q41 0 66.5 22t25.5 52q0 32 -27 51.5t-67 19.5h-90l57 181q-164 20 -273 115.5t-138 246.5h260q19 -74 81 -115t158 -41q69 0 110.5 30t41.5 81q0 35 -28.5 61.5t-78.5 38.5
l-225 54q-301 70 -301 319q0 155 111.5 249.5t292.5 94.5q190 0 319.5 -102t155.5 -271h-262q-19 72 -78 116t-138 44q-61 0 -97 -29t-36 -77q0 -39 32.5 -67.5t94.5 -43.5l209 -49q297 -70 297 -318q0 -140 -99.5 -233.5t-262.5 -108.5l-27 -75q78 -11 125 -58t47 -116z
" />
    <glyph glyph-name="Scaron" unicode="&#x160;" horiz-adv-x="1269" 
d="M72 449h276q14 -110 94 -173t213 -63q119 0 183.5 48t64.5 126q0 58 -42 102.5t-130 65.5l-264 61q-383 88 -383 410q0 193 144.5 311.5t363.5 118.5q226 0 377.5 -126.5t181.5 -332.5h-279q-24 106 -95 165t-187 59q-98 0 -160.5 -46.5t-62.5 -127.5q0 -127 172 -168
l262 -62q202 -47 293.5 -145.5t91.5 -261.5q0 -186 -147 -309.5t-386 -123.5q-242 0 -403 130.5t-178 341.5zM764 1894h240l-244 -303h-271l-241 303h241l138 -161z" />
    <glyph glyph-name="scaron" unicode="&#x161;" horiz-adv-x="1064" 
d="M569 -25q-198 0 -331.5 99t-167.5 270h260q19 -74 81 -115t158 -41q69 0 110.5 30t41.5 81q0 35 -28.5 61.5t-78.5 38.5l-225 54q-301 70 -301 319q0 155 111.5 249.5t292.5 94.5q190 0 319.5 -102t155.5 -271h-262q-19 72 -78 116t-138 44q-61 0 -97 -29t-36 -77
q0 -39 32.5 -67.5t94.5 -43.5l209 -49q297 -70 297 -318q0 -153 -117 -248.5t-303 -95.5zM633 1550h239l-243 -303h-271l-241 303h241l138 -161z" />
    <glyph glyph-name="uni0162" unicode="&#x162;" horiz-adv-x="1320" 
d="M37 1186v248h1247v-248h-481v-1186h-62l-34 -98q78 -11 125 -58t47 -116q0 -87 -70.5 -146t-173.5 -59q-80 0 -145.5 27.5t-102.5 76.5l109 90q55 -61 127 -61q41 0 66.5 22t25.5 52q0 32 -27 51.5t-67 19.5h-91l64 199h-76v1186h-481z" />
    <glyph glyph-name="uni0163" unicode="&#x163;" horiz-adv-x="870" 
d="M45 852v238h219v315h275v-315h288v-238h-288v-533q0 -40 26.5 -60.5t73.5 -20.5h188v-238h-178l-35 -98q78 -11 125 -58t47 -116q0 -88 -70 -146.5t-173 -58.5q-80 0 -145.5 27.5t-102.5 76.5l108 90q55 -61 127 -61q41 0 67 22t26 52q0 32 -27 51.5t-68 19.5h-90l64 203
q-114 13 -176 85.5t-62 178.5v584h-219z" />
    <glyph glyph-name="Tcaron" unicode="&#x164;" horiz-adv-x="1320" 
d="M37 1186v248h1247v-248h-481v-1186h-285v1186h-481zM801 1894h239l-243 -303h-271l-241 303h241l138 -161z" />
    <glyph glyph-name="tcaron" unicode="&#x165;" horiz-adv-x="870" 
d="M664 1233l34 446h258l-90 -446h-202zM557 0q-140 0 -216.5 74.5t-76.5 193.5v584h-219v238h219v315h275v-315h288v-238h-288v-533q0 -40 26.5 -60.5t73.5 -20.5h188v-238h-270z" />
    <glyph glyph-name="Tbar" unicode="&#x166;" horiz-adv-x="1320" 
d="M221 563v242h297v381h-481v248h1247v-248h-481v-381h297v-242h-297v-563h-285v563h-297z" />
    <glyph glyph-name="tbar" unicode="&#x167;" horiz-adv-x="870" 
d="M557 0q-140 0 -216.5 74.5t-76.5 193.5v189h-219v221h219v174h-219v238h219v315h275v-315h288v-238h-288v-174h288v-221h-288v-138q0 -40 26.5 -60.5t73.5 -20.5h188v-238h-270z" />
    <glyph glyph-name="Utilde" unicode="&#x168;" horiz-adv-x="1486" 
d="M422 563q0 -157 87.5 -248.5t223.5 -91.5q135 0 223 94.5t88 245.5v871h285v-1434h-282v154q-68 -86 -165.5 -133.5t-211.5 -47.5q-231 0 -382 158t-151 412v891h285v-871zM592 1864q38 0 90.5 -24t98.5 -48.5t69 -24.5q54 0 80 109l172 -37q-57 -248 -230 -248
q-38 0 -90.5 24t-98.5 48.5t-69 24.5q-26 0 -45.5 -24.5t-33.5 -84.5l-173 35q57 250 230 250z" />
    <glyph glyph-name="utilde" unicode="&#x169;" 
d="M145 381v709h275v-646q0 -95 61 -160t156 -65q96 0 157.5 64t61.5 161v646h274v-1090h-274v178q-50 -97 -134 -151t-187 -54q-172 0 -281 117t-109 291zM498 1520q38 0 90.5 -24t98.5 -48.5t69 -24.5q54 0 80 109l172 -37q-57 -248 -230 -248q-38 0 -90.5 24t-98.5 48
t-69 24q-27 0 -46.5 -24t-33.5 -84l-172 35q57 250 230 250z" />
    <glyph glyph-name="Umacron" unicode="&#x16a;" horiz-adv-x="1486" 
d="M422 563q0 -157 87.5 -248.5t223.5 -91.5q135 0 223 94.5t88 245.5v871h285v-1434h-282v154q-68 -86 -165.5 -133.5t-211.5 -47.5q-231 0 -382 158t-151 412v891h285v-871zM1008 1810v-178h-549v178h549z" />
    <glyph glyph-name="umacron" unicode="&#x16b;" 
d="M145 381v709h275v-646q0 -95 61 -160t156 -65q96 0 157.5 64t61.5 161v646h274v-1090h-274v178q-50 -97 -134 -151t-187 -54q-172 0 -281 117t-109 291zM913 1466v-178h-548v178h548z" />
    <glyph glyph-name="Ubreve" unicode="&#x16c;" horiz-adv-x="1486" 
d="M422 563q0 -157 87.5 -248.5t223.5 -91.5q135 0 223 94.5t88 245.5v871h285v-1434h-282v154q-68 -86 -165.5 -133.5t-211.5 -47.5q-231 0 -382 158t-151 412v891h285v-871zM733 1739q123 0 174 145l178 -53q-36 -122 -132 -190t-220 -68t-220 68t-132 190l178 53
q30 -82 73.5 -113.5t100.5 -31.5z" />
    <glyph glyph-name="ubreve" unicode="&#x16d;" 
d="M145 381v709h275v-646q0 -95 61 -160t156 -65q96 0 157.5 64t61.5 161v646h274v-1090h-274v178q-50 -97 -134 -151t-187 -54q-172 0 -281 117t-109 291zM639 1395q123 0 174 145l178 -53q-36 -122 -132 -190t-220 -68t-220 68t-132 190l178 53q30 -82 73.5 -113.5
t100.5 -31.5z" />
    <glyph glyph-name="Uring" unicode="&#x16e;" horiz-adv-x="1486" 
d="M422 563q0 -157 87.5 -248.5t223.5 -91.5q135 0 223 94.5t88 245.5v871h285v-1434h-282v154q-68 -86 -165.5 -133.5t-211.5 -47.5q-231 0 -382 158t-151 412v891h285v-871zM733 1544q-100 0 -168.5 68t-68.5 166q0 95 69.5 162t167.5 67t168 -67t70 -162
q0 -97 -70 -165.5t-168 -68.5zM733 1665q47 0 80 33.5t33 79.5q0 44 -33 76t-80 32t-79.5 -31.5t-32.5 -76.5q0 -47 32.5 -80t79.5 -33z" />
    <glyph glyph-name="uring" unicode="&#x16f;" 
d="M145 381v709h275v-646q0 -95 61 -160t156 -65q96 0 157.5 64t61.5 161v646h274v-1090h-274v178q-50 -97 -134 -151t-187 -54q-172 0 -281 117t-109 291zM639 1200q-100 0 -169 68t-69 166q0 95 70 162t168 67t168 -67t70 -162q0 -97 -70 -165.5t-168 -68.5zM639 1321
q47 0 80 33.5t33 79.5q0 44 -33 76t-80 32t-80 -32t-33 -76q0 -47 33 -80t80 -33z" />
    <glyph glyph-name="Uhungarumlaut" unicode="&#x170;" horiz-adv-x="1486" 
d="M422 563q0 -157 87.5 -248.5t223.5 -91.5q135 0 223 94.5t88 245.5v871h285v-1434h-282v154q-68 -86 -165.5 -133.5t-211.5 -47.5q-231 0 -382 158t-151 412v891h285v-871zM598 1894h268l-274 -303h-234zM1008 1894h268l-272 -303h-236z" />
    <glyph glyph-name="uhungarumlaut" unicode="&#x171;" 
d="M145 381v709h275v-646q0 -95 61 -160t156 -65q96 0 157.5 64t61.5 161v646h274v-1090h-274v178q-50 -97 -134 -151t-187 -54q-172 0 -281 117t-109 291zM504 1550h268l-274 -303h-234zM913 1550h269l-273 -303h-235z" />
    <glyph glyph-name="Uogonek" unicode="&#x172;" horiz-adv-x="1486" 
d="M422 563q0 -157 87.5 -248.5t223.5 -91.5q135 0 223 94.5t88 245.5v871h285v-1434q-162 -100 -162 -215q0 -44 24 -67t66 -23q46 0 82 16l29 -135q-67 -29 -143 -29q-105 0 -163 53t-58 136q0 72 35.5 135.5t125.5 128.5h-118v154q-68 -86 -165.5 -133.5t-211.5 -47.5
q-231 0 -382 158t-151 412v891h285v-871z" />
    <glyph glyph-name="uogonek" unicode="&#x173;" 
d="M145 381v709h275v-646q0 -95 61 -160t156 -65q96 0 157.5 64t61.5 161v646h274v-1090q-94 -58 -127.5 -110.5t-33.5 -104.5q0 -44 24 -67t66 -23q46 0 82 16l28 -135q-67 -29 -143 -29q-105 0 -163 53t-58 136q0 72 36 135.5t126 128.5h-111v178q-50 -97 -134 -151
t-187 -54q-172 0 -281 117t-109 291z" />
    <glyph glyph-name="Wcircumflex" unicode="&#x174;" horiz-adv-x="2007" 
d="M1137 1434l317 -1033l258 1033h283l-393 -1434h-287l-311 1014l-312 -1014h-286l-394 1434h297l258 -1033l318 1033h252zM866 1591h-239l243 303h271l241 -303h-241l-137 162z" />
    <glyph glyph-name="wcircumflex" unicode="&#x175;" horiz-adv-x="1613" 
d="M698 1090h228l225 -693l180 693h268l-305 -1090h-254l-233 721l-234 -721h-254l-305 1090h279l180 -693zM670 1247h-240l244 303h270l242 -303h-242l-137 162z" />
    <glyph glyph-name="Ycircumflex" unicode="&#x176;" horiz-adv-x="1382" 
d="M834 0h-285v575l-563 859h340l368 -580l371 580h332l-563 -861v-573zM555 1591h-240l244 303h270l242 -303h-242l-137 162z" />
    <glyph glyph-name="ycircumflex" unicode="&#x177;" horiz-adv-x="1146" 
d="M424 -86l27 70l-449 1106h297l285 -740l272 740h289l-494 -1295q-55 -143 -132 -195.5t-210 -52.5h-157v232h112q61 0 96.5 30.5t63.5 104.5zM436 1247h-239l243 303h271l241 -303h-241l-138 162z" />
    <glyph glyph-name="Ydieresis" unicode="&#x178;" horiz-adv-x="1382" 
d="M834 0h-285v575l-563 859h340l368 -580l371 580h332l-563 -861v-573zM473 1577q-65 0 -111.5 45t-46.5 109q0 65 46.5 110t111.5 45t109.5 -44.5t44.5 -110.5q0 -65 -44.5 -109.5t-109.5 -44.5zM913 1577q-65 0 -111 45t-46 109q0 65 46 110t111 45t109.5 -44.5
t44.5 -110.5q0 -65 -44.5 -109.5t-109.5 -44.5z" />
    <glyph glyph-name="Zacute" unicode="&#x179;" horiz-adv-x="1236" 
d="M92 1186v248h1055v-191l-717 -995h725v-248h-1092v184l721 1002h-692zM686 1894h301l-285 -303h-262z" />
    <glyph glyph-name="zacute" unicode="&#x17a;" horiz-adv-x="1042" 
d="M96 852v238h846v-205l-522 -647h536v-238h-870v199l530 653h-520zM590 1550h301l-285 -303h-262z" />
    <glyph glyph-name="Zdotaccent" unicode="&#x17b;" horiz-adv-x="1236" 
d="M92 1186v248h1055v-191l-717 -995h725v-248h-1092v184l721 1002h-692zM621 1577q-65 0 -111.5 45t-46.5 109q0 65 46.5 110t111.5 45t109 -44.5t44 -110.5q0 -65 -44.5 -109.5t-108.5 -44.5z" />
    <glyph glyph-name="zdotaccent" unicode="&#x17c;" horiz-adv-x="1042" 
d="M96 852v238h846v-205l-522 -647h536v-238h-870v199l530 653h-520zM524 1233q-65 0 -111 44.5t-46 108.5q0 66 46 111t111 45t109.5 -45t44.5 -111q0 -64 -44.5 -108.5t-109.5 -44.5z" />
    <glyph glyph-name="Zcaron" unicode="&#x17d;" horiz-adv-x="1236" 
d="M92 1186v248h1055v-191l-717 -995h725v-248h-1092v184l721 1002h-692zM758 1894h239l-243 -303h-271l-241 303h241l138 -161z" />
    <glyph glyph-name="zcaron" unicode="&#x17e;" horiz-adv-x="1042" 
d="M96 852v238h846v-205l-522 -647h536v-238h-870v199l530 653h-520zM662 1550h239l-244 -303h-270l-242 303h242l137 -161z" />
    <glyph glyph-name="florin" unicode="&#x192;" horiz-adv-x="860" 
d="M94 -133l146 985h-197v238h231l29 198q41 268 293 268h260v-237h-205q-33 0 -50 -20t-23 -62l-23 -147h260v-238h-295l-151 -1036q-41 -269 -293 -269h-260v238h204q33 0 50.5 20t23.5 62z" />
    <glyph glyph-name="uni0218" unicode="&#x218;" horiz-adv-x="1269" 
d="M72 449h276q14 -110 94 -173t213 -63q119 0 183.5 48t64.5 126q0 58 -42 102.5t-130 65.5l-264 61q-383 88 -383 410q0 193 144.5 311.5t363.5 118.5q226 0 377.5 -126.5t181.5 -332.5h-279q-24 106 -95 165t-187 59q-98 0 -160.5 -46.5t-62.5 -127.5q0 -127 172 -168
l262 -62q202 -47 293.5 -145.5t91.5 -261.5q0 -186 -147 -309.5t-386 -123.5q-242 0 -403 130.5t-178 341.5zM528 -504q48 4 81.5 31.5t33.5 56.5q0 13 -12.5 24t-30.5 21t-36.5 23.5t-31 36.5t-12.5 53q0 47 36.5 83t86.5 36q64 0 102.5 -49.5t38.5 -133.5
q0 -111 -72 -193.5t-184 -88.5v100z" />
    <glyph glyph-name="uni0219" unicode="&#x219;" horiz-adv-x="1064" 
d="M569 -25q-198 0 -331.5 99t-167.5 270h260q19 -74 81 -115t158 -41q69 0 110.5 30t41.5 81q0 35 -28.5 61.5t-78.5 38.5l-225 54q-301 70 -301 319q0 155 111.5 249.5t292.5 94.5q190 0 319.5 -102t155.5 -271h-262q-19 72 -78 116t-138 44q-61 0 -97 -29t-36 -77
q0 -39 32.5 -67.5t94.5 -43.5l209 -49q297 -70 297 -318q0 -153 -117 -248.5t-303 -95.5zM440 -504q48 4 81.5 31.5t33.5 56.5q0 13 -12.5 24t-30.5 21t-36.5 23.5t-31 36.5t-12.5 53q0 47 36.5 83t86.5 36q64 0 102.5 -49.5t38.5 -133.5q0 -111 -72 -193.5t-184 -88.5v100z
" />
    <glyph glyph-name="uni021A" unicode="&#x21a;" horiz-adv-x="1320" 
d="M37 1186v248h1247v-248h-481v-1186h-285v1186h-481zM547 -504q48 4 81.5 31.5t33.5 56.5q0 13 -12.5 24t-31 21t-36.5 23.5t-30.5 36.5t-12.5 53q0 47 36.5 83t86.5 36q64 0 102.5 -49.5t38.5 -133.5q0 -111 -72 -193.5t-184 -88.5v100z" />
    <glyph glyph-name="uni021B" unicode="&#x21b;" horiz-adv-x="870" 
d="M557 0q-140 0 -216.5 74.5t-76.5 193.5v584h-219v238h219v315h275v-315h288v-238h-288v-533q0 -40 26.5 -60.5t73.5 -20.5h188v-238h-270zM449 -504q48 4 81 31.5t33 56.5q0 13 -12.5 24t-31 21t-36.5 23.5t-30.5 36.5t-12.5 53q0 47 36.5 83t86.5 36q64 0 103 -49.5
t39 -133.5q0 -111 -72 -193.5t-184 -88.5v100z" />
    <glyph glyph-name="uni0237" unicode="&#x237;" horiz-adv-x="565" 
d="M141 -453h-143v232h65q38 0 60 21t22 63v1227h275v-1280q0 -113 -74.5 -188t-204.5 -75z" />
    <glyph glyph-name="circumflex" unicode="&#x2c6;" horiz-adv-x="1024" 
d="M375 1219h-240l244 303h270l242 -303h-242l-137 161z" />
    <glyph glyph-name="caron" unicode="&#x2c7;" horiz-adv-x="1024" 
d="M651 1522h240l-244 -303h-270l-242 303h242l137 -162z" />
    <glyph glyph-name="breve" unicode="&#x2d8;" horiz-adv-x="1024" 
d="M512 1366q123 0 174 145l178 -53q-36 -122 -132 -190t-220 -68t-220 68t-132 190l178 53q30 -82 73.5 -113.5t100.5 -31.5z" />
    <glyph glyph-name="dotaccent" unicode="&#x2d9;" horiz-adv-x="546" 
d="M283 1204q-65 0 -111.5 45t-46.5 109q0 65 46.5 110t111.5 45t109 -44.5t44 -110.5q0 -65 -44.5 -109.5t-108.5 -44.5z" />
    <glyph glyph-name="ring" unicode="&#x2da;" horiz-adv-x="1024" 
d="M512 1171q-100 0 -169 68t-69 166q0 95 70 162t168 67t168 -67t70 -162q0 -97 -70 -165.5t-168 -68.5zM512 1292q47 0 80 33.5t33 79.5q0 44 -33 76t-80 32t-80 -32t-33 -76q0 -47 33 -80t80 -33z" />
    <glyph glyph-name="ogonek" unicode="&#x2db;" horiz-adv-x="1024" 
d="M647 0q-162 -100 -162 -215q0 -44 24 -67t66 -23q46 0 82 16l29 -135q-67 -29 -143 -29q-105 0 -163 53t-58 136q0 82 49 155t176 150z" />
    <glyph glyph-name="tilde" unicode="&#x2dc;" horiz-adv-x="1024" 
d="M371 1491q38 0 90.5 -24t98.5 -48t69 -24q27 0 46.5 24t33.5 84l172 -37q-57 -247 -230 -247q-38 0 -90.5 24t-98.5 48t-69 24q-54 0 -80 -109l-172 35q57 250 230 250z" />
    <glyph glyph-name="hungarumlaut" unicode="&#x2dd;" horiz-adv-x="1077" 
d="M403 1522h269l-275 -303h-233zM813 1522h268l-272 -303h-236z" />
    <glyph glyph-name="uni09F3" unicode="&#x9f3;" horiz-adv-x="1357" 
d="M461 395q0 -93 62 -145.5t157 -52.5q151 0 257.5 106.5t106.5 261.5q0 95 -47.5 161.5t-115.5 66.5q-40 0 -113 -29l-78 233q118 47 197 47q178 0 299 -139.5t121 -339.5q0 -122 -49.5 -232.5t-134 -190.5t-203 -127.5t-250.5 -47.5q-204 0 -338.5 113.5t-134.5 296.5
v393h-144v221h144v115q0 40 -21 61t-59 21h-64v246h144q124 0 194 -74t70 -186v-183h129v-221h-129v-375z" />
    <glyph glyph-name="Wgrave" unicode="&#x1e80;" horiz-adv-x="2007" 
d="M1137 1434l317 -1033l258 1033h283l-393 -1434h-287l-311 1014l-312 -1014h-286l-394 1434h297l258 -1033l318 1033h252zM938 1894l246 -303h-262l-285 303h301z" />
    <glyph glyph-name="wgrave" unicode="&#x1e81;" horiz-adv-x="1613" 
d="M698 1090h228l225 -693l180 693h268l-305 -1090h-254l-233 721l-234 -721h-254l-305 1090h279l180 -693zM741 1550l246 -303h-262l-285 303h301z" />
    <glyph glyph-name="Wacute" unicode="&#x1e82;" horiz-adv-x="2007" 
d="M1137 1434l317 -1033l258 1033h283l-393 -1434h-287l-311 1014l-312 -1014h-286l-394 1434h297l258 -1033l318 1033h252zM1071 1894h301l-285 -303h-262z" />
    <glyph glyph-name="wacute" unicode="&#x1e83;" horiz-adv-x="1613" 
d="M698 1090h228l225 -693l180 693h268l-305 -1090h-254l-233 721l-234 -721h-254l-305 1090h279l180 -693zM874 1550h302l-285 -303h-262z" />
    <glyph glyph-name="Wdieresis" unicode="&#x1e84;" horiz-adv-x="2007" 
d="M1137 1434l317 -1033l258 1033h283l-393 -1434h-287l-311 1014l-312 -1014h-286l-394 1434h297l258 -1033l318 1033h252zM784 1577q-65 0 -111 45t-46 109q0 65 46 110t111 45t109.5 -44.5t44.5 -110.5q0 -65 -45 -109.5t-109 -44.5zM1225 1577q-65 0 -111.5 45
t-46.5 109q0 65 46.5 110t111.5 45t109 -44.5t44 -110.5q0 -65 -44.5 -109.5t-108.5 -44.5z" />
    <glyph glyph-name="wdieresis" unicode="&#x1e85;" horiz-adv-x="1613" 
d="M698 1090h228l225 -693l180 693h268l-305 -1090h-254l-233 721l-234 -721h-254l-305 1090h279l180 -693zM588 1233q-65 0 -111.5 44.5t-46.5 108.5q0 65 46.5 110.5t111.5 45.5t109 -45t44 -111q0 -64 -44.5 -108.5t-108.5 -44.5zM1028 1233q-65 0 -111.5 44.5
t-46.5 108.5q0 65 46.5 110.5t111.5 45.5t109.5 -45t44.5 -111q0 -64 -44.5 -108.5t-109.5 -44.5z" />
    <glyph glyph-name="Ygrave" unicode="&#x1ef2;" horiz-adv-x="1382" 
d="M834 0h-285v575l-563 859h340l368 -580l371 580h332l-563 -861v-573zM627 1894l245 -303h-262l-284 303h301z" />
    <glyph glyph-name="ygrave" unicode="&#x1ef3;" horiz-adv-x="1146" 
d="M424 -86l27 70l-449 1106h297l285 -740l272 740h289l-494 -1295q-55 -143 -132 -195.5t-210 -52.5h-157v232h112q61 0 96.5 30.5t63.5 104.5zM508 1550l246 -303h-262l-285 303h301z" />
    <glyph glyph-name="uni2002" unicode="&#x2002;" horiz-adv-x="1024" 
 />
    <glyph glyph-name="uni2003" unicode="&#x2003;" horiz-adv-x="2048" 
 />
    <glyph glyph-name="uni2009" unicode="&#x2009;" horiz-adv-x="358" 
 />
    <glyph glyph-name="uni200A" unicode="&#x200a;" horiz-adv-x="204" 
 />
    <glyph glyph-name="uni200B" unicode="&#x200b;" horiz-adv-x="0" 
 />
    <glyph glyph-name="endash" unicode="&#x2013;" horiz-adv-x="1218" 
d="M98 492v241h1022v-241h-1022z" />
    <glyph glyph-name="emdash" unicode="&#x2014;" horiz-adv-x="1628" 
d="M98 492v241h1432v-241h-1432z" />
    <glyph glyph-name="uni2015" unicode="&#x2015;" horiz-adv-x="2037" 
d="M98 492v241h1841v-241h-1841z" />
    <glyph glyph-name="quoteleft" unicode="&#x2018;" horiz-adv-x="532" 
d="M424 1391q-61 -12 -110.5 -62.5t-49.5 -101.5q0 -23 16 -42.5t39 -35t46 -33.5t39 -47.5t16 -67.5q0 -60 -44.5 -103.5t-105.5 -43.5q-83 0 -131.5 64.5t-48.5 173.5q0 172 90 288t244 144v-133z" />
    <glyph glyph-name="quoteright" unicode="&#x2019;" horiz-adv-x="532" 
d="M109 1001q61 12 110 62.5t49 101.5q0 23 -16 42.5t-38.5 35t-45.5 33.5t-39 47.5t-16 67.5q0 60 44 103.5t105 43.5q83 0 131.5 -64.5t48.5 -173.5q0 -172 -89.5 -288t-243.5 -144v133z" />
    <glyph glyph-name="quotesinglbase" unicode="&#x201a;" horiz-adv-x="532" 
d="M109 -242q61 12 110 62.5t49 101.5q0 23 -16 42.5t-38.5 35t-45.5 33.5t-39 47t-16 67q0 60 44 104t105 44q83 0 131.5 -64.5t48.5 -173.5q0 -172 -89.5 -288t-243.5 -144v133z" />
    <glyph glyph-name="quotedblleft" unicode="&#x201c;" horiz-adv-x="1003" 
d="M424 1391q-61 -12 -110.5 -62.5t-49.5 -101.5q0 -23 16 -42.5t39 -35t46 -33.5t39 -47.5t16 -67.5q0 -60 -44.5 -103.5t-105.5 -43.5q-83 0 -131.5 64.5t-48.5 173.5q0 172 90 288t244 144v-133zM895 1391q-61 -12 -110.5 -62.5t-49.5 -101.5q0 -23 16 -42.5t39 -35
t46 -33.5t39 -47.5t16 -67.5q0 -60 -44.5 -103.5t-105.5 -43.5q-83 0 -131.5 64.5t-48.5 173.5q0 172 90 288t244 144v-133z" />
    <glyph glyph-name="quotedblright" unicode="&#x201d;" horiz-adv-x="1003" 
d="M580 1001q61 12 110 62.5t49 101.5q0 23 -16 42.5t-38.5 35t-45.5 33.5t-39 47.5t-16 67.5q0 60 44 103.5t105 43.5q83 0 131.5 -64.5t48.5 -173.5q0 -172 -89.5 -288t-243.5 -144v133zM109 1001q61 12 110 62.5t49 101.5q0 23 -16 42.5t-38.5 35t-45.5 33.5t-39 47.5
t-16 67.5q0 60 44 103.5t105 43.5q83 0 131.5 -64.5t48.5 -173.5q0 -172 -89.5 -288t-243.5 -144v133z" />
    <glyph glyph-name="quotedblbase" unicode="&#x201e;" horiz-adv-x="1003" 
d="M580 -242q61 12 110 62.5t49 101.5q0 23 -16 42.5t-38.5 35t-45.5 33.5t-39 47t-16 67q0 60 44 104t105 44q83 0 131.5 -64.5t48.5 -173.5q0 -172 -89.5 -288t-243.5 -144v133zM109 -242q61 12 110 62.5t49 101.5q0 23 -16 42.5t-38.5 35t-45.5 33.5t-39 47t-16 67
q0 60 44 104t105 44q83 0 131.5 -64.5t48.5 -173.5q0 -172 -89.5 -288t-243.5 -144v133z" />
    <glyph glyph-name="dagger" unicode="&#x2020;" horiz-adv-x="860" 
d="M322 0v852h-248v209h248v373h219v-373h247v-209h-247v-852h-219z" />
    <glyph glyph-name="daggerdbl" unicode="&#x2021;" horiz-adv-x="860" 
d="M322 0v373h-248v209h248v270h-248v209h248v373h219v-373h247v-209h-247v-270h247v-209h-247v-373h-219z" />
    <glyph glyph-name="bullet" unicode="&#x2022;" horiz-adv-x="741" 
d="M373 940q109 0 183.5 -74.5t74.5 -181.5q0 -109 -74.5 -183.5t-183.5 -74.5t-185.5 75t-76.5 183q0 107 76.5 181.5t185.5 74.5z" />
    <glyph glyph-name="ellipsis" unicode="&#x2026;" horiz-adv-x="1597" 
d="M266 301q66 0 112 -46.5t46 -113.5q0 -66 -46 -111.5t-112 -45.5t-113 45.5t-47 111.5q0 67 47 113.5t113 46.5zM799 301q66 0 111.5 -46.5t45.5 -113.5q0 -66 -45.5 -111.5t-111.5 -45.5t-113 45.5t-47 111.5q0 67 47 113.5t113 46.5zM1331 301q66 0 112 -46.5
t46 -113.5q0 -66 -46 -111.5t-112 -45.5t-113 45.5t-47 111.5q0 67 47 113.5t113 46.5z" />
    <glyph glyph-name="guilsinglleft" unicode="&#x2039;" horiz-adv-x="847" 
d="M817 1090l-491 -541l497 -549h-295l-505 547l505 543h289z" />
    <glyph glyph-name="guilsinglright" unicode="&#x203a;" horiz-adv-x="847" 
d="M31 0l491 541l-497 549h294l506 -547l-506 -543h-288z" />
    <glyph glyph-name="fraction" unicode="&#x2044;" horiz-adv-x="1148" 
d="M293 0h-207l768 1434h209z" />
    <glyph glyph-name="uni2070" unicode="&#x2070;" horiz-adv-x="753" 
d="M68 934v213q0 139 85 222t222 83q139 0 225 -82.5t86 -222.5v-213q0 -140 -86 -223.5t-225 -83.5q-138 0 -222.5 83.5t-84.5 223.5zM502 940v201q0 72 -33.5 110.5t-93.5 38.5q-58 0 -90.5 -39t-32.5 -110v-201q0 -74 32.5 -111.5t90.5 -37.5q60 0 93.5 38t33.5 111z" />
    <glyph glyph-name="uni2074" unicode="&#x2074;" horiz-adv-x="757" 
d="M430 645v184h-377v140l318 465h243v-451h84v-154h-84v-184h-184zM244 983h186v281z" />
    <glyph glyph-name="uni2075" unicode="&#x2075;" horiz-adv-x="708" 
d="M389 1161q112 0 183 -71.5t71 -174.5q0 -122 -83 -205t-214 -83q-107 0 -183.5 43.5t-115.5 120.5l150 83q48 -88 137 -88q57 0 91 33t34 84q0 46 -32.5 77.5t-92.5 31.5q-36 0 -60 -11t-51 -38l-151 24l18 447h494v-162h-336l-4 -166q58 55 145 55z" />
    <glyph glyph-name="uni2076" unicode="&#x2076;" horiz-adv-x="735" 
d="M401 1292q-63 0 -107 -51t-44 -147v-19q17 38 49 62.5t62 32.5t61 8q104 0 177 -77t73 -179q0 -129 -81 -210t-204 -81q-146 0 -232.5 101.5t-86.5 273.5v51q0 188 88.5 288.5t244.5 100.5q81 0 139.5 -22.5t114.5 -71.5l-108 -119q-62 59 -146 59zM379 786q51 0 86 34.5
t35 86.5t-34.5 85.5t-86.5 33.5q-50 0 -84.5 -33.5t-34.5 -85.5t34 -86.5t85 -34.5z" />
    <glyph glyph-name="uni2077" unicode="&#x2077;" horiz-adv-x="700" 
d="M645 1294l-317 -649h-217l329 627h-385v162h590v-140z" />
    <glyph glyph-name="uni2078" unicode="&#x2078;" horiz-adv-x="745" 
d="M373 627q-130 0 -215.5 69t-85.5 176q0 63 39.5 112t103.5 71q-54 24 -85.5 68t-31.5 100q0 95 79 160t196 65q116 0 195 -65t79 -160q0 -56 -30.5 -100.5t-84.5 -69.5q65 -22 103.5 -70t38.5 -111q0 -107 -85 -176t-216 -69zM373 1120q39 0 67.5 25.5t28.5 60.5
q0 37 -27.5 61.5t-68.5 24.5q-40 0 -68.5 -25t-28.5 -61q0 -35 29 -60.5t68 -25.5zM373 977q-47 0 -81 -29.5t-34 -70.5q0 -39 33.5 -66t81.5 -27q50 0 83 26.5t33 66.5q0 41 -34.5 70.5t-81.5 29.5z" />
    <glyph glyph-name="uni2079" unicode="&#x2079;" horiz-adv-x="735" 
d="M346 784q58 0 97.5 51t39.5 146v14q-25 -54 -73.5 -76t-98.5 -22q-103 0 -175.5 77t-72.5 179q0 129 81 210t204 81q146 0 232 -101.5t86 -273.5v-51q0 -188 -84.5 -288.5t-233.5 -100.5q-185 0 -282 149l147 86q57 -80 133 -80zM356 1288q-52 0 -86 -34t-34 -87
q0 -52 33.5 -85t86.5 -33q50 0 84.5 33t34.5 85t-34 86.5t-85 34.5z" />
    <glyph glyph-name="uni2080" unicode="&#x2080;" horiz-adv-x="753" 
d="M68 289v213q0 139 85 222t222 83q139 0 225 -82.5t86 -222.5v-213q0 -140 -86 -223.5t-225 -83.5q-138 0 -222.5 83.5t-84.5 223.5zM502 295v201q0 72 -33.5 110.5t-93.5 38.5q-58 0 -90.5 -39t-32.5 -110v-201q0 -74 32.5 -112t90.5 -38q60 0 93.5 38t33.5 112z" />
    <glyph glyph-name="uni2081" unicode="&#x2081;" horiz-adv-x="626" 
d="M582 162v-162h-539v162h176v465h-139v161h323v-626h179z" />
    <glyph glyph-name="uni2082" unicode="&#x2082;" horiz-adv-x="679" 
d="M608 559q0 -63 -25.5 -118.5t-97.5 -127.5l-155 -157l293 6v-162h-555v119l284 291q41 42 55.5 72t14.5 63q0 45 -29 72.5t-74 27.5q-86 0 -143 -100l-145 84q94 174 299 174q124 0 201 -69t77 -175z" />
    <glyph glyph-name="uni2083" unicode="&#x2083;" horiz-adv-x="720" 
d="M360 803q116 -2 192.5 -64.5t76.5 -156.5q0 -53 -31 -96t-86 -68q64 -25 103.5 -76t39.5 -113q0 -104 -84.5 -175.5t-216.5 -71.5q-223 0 -309 163l152 82q52 -86 151 -86q54 0 87.5 28.5t33.5 70.5q0 35 -29 60.5t-75 25.5h-127v149h112q41 0 67.5 24.5t26.5 61.5
t-28.5 60.5t-75.5 23.5q-85 0 -133 -86l-152 78q41 79 118 122.5t187 43.5z" />
    <glyph glyph-name="uni2084" unicode="&#x2084;" horiz-adv-x="757" 
d="M430 0v184h-377v140l318 464h243v-450h84v-154h-84v-184h-184zM244 338h186v280z" />
    <glyph glyph-name="uni2085" unicode="&#x2085;" horiz-adv-x="708" 
d="M389 516q112 0 183 -71.5t71 -174.5q0 -122 -83 -205t-214 -83q-108 0 -184 43t-115 120l150 84q48 -88 137 -88q57 0 91 33t34 84q0 46 -32.5 77.5t-92.5 31.5q-36 0 -60 -11.5t-51 -38.5l-151 25l18 446h494v-161h-336l-4 -166q58 55 145 55z" />
    <glyph glyph-name="uni2086" unicode="&#x2086;" horiz-adv-x="735" 
d="M401 647q-63 0 -107 -51t-44 -147v-19q17 38 49 62.5t61.5 32t61.5 7.5q104 0 177 -77t73 -179q0 -129 -81 -209.5t-204 -80.5q-146 0 -232.5 101t-86.5 273v52q0 188 88.5 288.5t244.5 100.5q81 0 139.5 -22.5t114.5 -71.5l-108 -119q-62 59 -146 59zM379 141
q51 0 86 34.5t35 86.5t-34.5 85.5t-86.5 33.5q-50 0 -84.5 -33.5t-34.5 -85.5t34 -86.5t85 -34.5z" />
    <glyph glyph-name="uni2087" unicode="&#x2087;" horiz-adv-x="700" 
d="M645 649l-317 -649h-217l329 627h-385v161h590v-139z" />
    <glyph glyph-name="uni2088" unicode="&#x2088;" horiz-adv-x="745" 
d="M373 -18q-130 0 -215.5 69t-85.5 176q0 63 39.5 112t103.5 71q-54 24 -85.5 68t-31.5 100q0 95 79 160t196 65q116 0 195 -65t79 -160q0 -56 -30.5 -100.5t-84.5 -69.5q65 -22 103.5 -70t38.5 -111q0 -107 -85 -176t-216 -69zM373 475q39 0 67.5 25.5t28.5 60.5
q0 37 -27.5 61.5t-68.5 24.5q-40 0 -68.5 -25t-28.5 -61q0 -35 29 -60.5t68 -25.5zM373 332q-47 0 -81 -30t-34 -71q0 -39 33.5 -65.5t81.5 -26.5q50 0 83 26t33 66q0 41 -34.5 71t-81.5 30z" />
    <glyph glyph-name="uni2089" unicode="&#x2089;" horiz-adv-x="735" 
d="M346 139q58 0 97.5 51t39.5 146v14q-25 -54 -73.5 -76t-98.5 -22q-103 0 -175.5 77t-72.5 179q0 129 81 210t204 81q146 0 232 -101.5t86 -273.5v-51q0 -188 -84.5 -288.5t-233.5 -100.5q-185 0 -282 149l147 86q57 -80 133 -80zM356 643q-52 0 -86 -34t-34 -87
q0 -52 33.5 -85.5t86.5 -33.5q50 0 84.5 33.5t34.5 85.5t-34 86.5t-85 34.5z" />
    <glyph glyph-name="uni20A9" unicode="&#x20a9;" horiz-adv-x="2088" 
d="M16 657h226l-33 119h-193v172h144l-140 486h306l116 -486h332l150 486h252l149 -486h332l117 486h294l-139 -486h144v-172h-193l-33 -119h226v-172h-275l-139 -485h-287l-147 485h-361l-147 -485h-287l-139 485h-275v172zM1006 948h77l-39 125zM512 657h172l37 119h-238z
M918 657h253l-36 119h-181zM1415 657h172l29 119h-238zM553 485l35 -143l43 143h-78zM1468 485l43 -143l35 143h-78z" />
    <glyph glyph-name="Euro" unicode="&#x20ac;" horiz-adv-x="1495" 
d="M821 657l-63 -172h-273q35 -122 120 -188t204 -66q126 0 210.5 71t113.5 202h276q-34 -242 -196 -386.5t-396 -144.5q-245 0 -415 139t-214 373h-172v172h158v119h-158v172h172q44 234 214 373t415 139q240 0 399 -143.5t193 -386.5h-276q-29 130 -113.5 201t-210.5 71
q-120 0 -205.5 -66.5t-120.5 -187.5h449l-68 -172h-401v-119h358z" />
    <glyph glyph-name="uni20B9" unicode="&#x20b9;" horiz-adv-x="1288" 
d="M1065 0h-317l-648 571v148h369q80 0 137 41t82 110h-590v207h588q-26 70 -81.5 110t-135.5 40h-369v207h1108v-207h-338q52 -64 74 -150h264v-207h-264q-34 -152 -157.5 -250t-286.5 -98h-21z" />
    <glyph glyph-name="trademark" unicode="&#x2122;" horiz-adv-x="1368" 
d="M649 1434h174l148 -385l147 385h174v-572h-135l4 367l-141 -367h-100l-142 363l2 -363h-131v572zM41 1434h520v-117h-190v-455h-144v455h-186v117z" />
    <glyph glyph-name="uni2190" unicode="&#x2190;" horiz-adv-x="2050" 
d="M162 717l555 768h299l-469 -639h1339v-258h-1339l469 -639h-299z" />
    <glyph glyph-name="uni2191" unicode="&#x2191;" horiz-adv-x="2048" 
d="M1024 1554l768 -555v-299l-639 469v-1339h-258v1339l-639 -469v299z" />
    <glyph glyph-name="uni2192" unicode="&#x2192;" horiz-adv-x="2050" 
d="M1034 1485h289l561 -768l-561 -768h-289l473 645h-1345v246h1345z" />
    <glyph glyph-name="uni2193" unicode="&#x2193;" horiz-adv-x="2048" 
d="M1792 561v-289l-768 -561l-768 561v289l645 -473v1346h246v-1346z" />
    <glyph glyph-name="minus" unicode="&#x2212;" horiz-adv-x="1126" 
d="M1028 852v-199h-930v199h930z" />
    <glyph glyph-name="approxequal" unicode="&#x2248;" horiz-adv-x="1114" 
d="M315 881q-54 0 -103.5 -18.5t-117.5 -59.5v194q120 74 232 74q52 0 118 -19t119 -42.5t120 -42.5t120 -19q52 0 100.5 18.5t118.5 59.5v-195q-117 -73 -231 -73q-53 0 -119 19t-119 42.5t-119 42.5t-119 19zM315 520q-54 0 -103.5 -18.5t-117.5 -59.5v197q121 72 232 72
q52 0 118 -19t119 -42.5t120 -42.5t120 -19q52 0 100.5 18.5t118.5 59.5v-195q-118 -74 -231 -74q-53 0 -119 19t-119 42.5t-119 42.5t-119 19z" />
    <glyph glyph-name="notequal" unicode="&#x2260;" horiz-adv-x="1150" 
d="M98 219l164 232h-151v190h286l119 168h-405v190h540l164 230h238l-164 -230h151v-190h-286l-119 -168h405v-190h-540l-164 -232h-238z" />
    <glyph glyph-name="lessequal" unicode="&#x2264;" horiz-adv-x="1153" 
d="M979 1100l-621 -248l621 -250v-231l-868 377v200l868 377v-225zM111 584l868 -377v-215l-868 377v215z" />
    <glyph glyph-name="greaterequal" unicode="&#x2265;" horiz-adv-x="1153" 
d="M111 1094v231l868 -377v-200l-868 -377v225l620 248zM979 584v-215l-868 -377v215z" />
    <glyph glyph-name="check" unicode="&#x2713;" horiz-adv-x="2052" 
d="M1880 1450v-358l-1110 -1108l-598 596v358l598 -596z" />
    <glyph glyph-name="close" unicode="&#x2715;" horiz-adv-x="2052" 
d="M1802 1307l-596 -590l596 -590l-186 -186l-590 596l-590 -596l-186 186l596 590l-596 590l186 186l590 -596l590 596z" />
    <glyph glyph-name="fi" unicode="&#xfb01;" horiz-adv-x="1390" 
d="M45 852v238h219v198q0 119 76.5 193.5t216.5 74.5h457v-237h-402q-73 0 -73 -82v-147h716v-1090h-274v852h-442v-852h-275v852h-219z" />
    <glyph glyph-name="fl" unicode="&#xfb02;" horiz-adv-x="1400" 
d="M45 852v238h219v198q0 119 76.5 193.5t216.5 74.5h698v-1556h-274v1319h-369q-73 0 -73 -82v-147h268v-238h-268v-852h-275v852h-219z" />
    <glyph glyph-name="Uber" horiz-adv-x="4339" 
d="M315 549q0 -171 100 -276t253 -105q151 0 251.5 106.5t100.5 274.5v885h215v-1434h-213v133q-152 -158 -379 -158q-114 0 -214 40.5t-172.5 113t-114.5 178.5t-42 230v897h215v-885zM1395 0v1434h207v-523q72 74 167.5 115t202.5 41q113 0 215 -43t175 -116.5t116 -174.5
t43 -213q0 -148 -72.5 -273.5t-199 -198.5t-277.5 -73q-107 0 -204 41.5t-169 114.5v-131h-204zM1597 520q0 -151 105 -256.5t256 -105.5q148 0 253 106t105 256q0 152 -105 257.5t-253 105.5q-150 0 -255.5 -105.5t-105.5 -257.5zM2603 522q0 146 70 270.5t194 198.5
t273 74q225 0 373.5 -154.5t148.5 -388.5v-67h-850q22 -129 118.5 -213t227.5 -84q186 0 301 153l150 -110q-80 -106 -195.5 -165t-255.5 -59q-154 0 -281.5 71t-200.5 196t-73 278zM3135 885q-116 0 -203.5 -73.5t-115.5 -193.5h637q-26 120 -114 193.5t-204 73.5z
M4303 860h-86q-103 0 -168.5 -73t-65.5 -193v-594h-206v1044h204v-129q84 138 250 138h72v-193z" />
    <glyph glyph-name="idotaccent" horiz-adv-x="565" 
d="M283 1235q-65 0 -111.5 45t-46.5 109q0 65 46.5 110t111.5 45t109 -44.5t44 -110.5q0 -65 -44.5 -109.5t-108.5 -44.5zM420 1090v-1090h-275v1090h275z" />
    <glyph glyph-name="cordinal" horiz-adv-x="821" 
d="M432 643q-163 0 -262.5 100.5t-99.5 268.5v69q0 168 99.5 268.5t262.5 100.5q145 0 238 -84.5t110 -230.5h-217q-11 56 -44.5 87t-86.5 31q-69 0 -105 -46.5t-36 -131.5v-57q0 -86 35.5 -132t105.5 -46q109 0 131 116h217q-17 -142 -112.5 -227.5t-235.5 -85.5z" />
    <glyph glyph-name="a.school" 
d="M1135 0h-275v141q-114 -168 -317 -168q-196 0 -321.5 138.5t-125.5 365.5v135q0 227 125.5 365.5t321.5 138.5q201 0 317 -160v134h275v-1090zM860 594q0 131 -65.5 207t-182.5 76t-181 -76t-64 -207v-98q0 -132 64 -207.5t181 -75.5q118 0 183 75.5t65 207.5v98z" />
    <glyph glyph-name="aacute.school" 
d="M1135 0h-275v141q-114 -168 -317 -168q-196 0 -321.5 138.5t-125.5 365.5v135q0 227 125.5 365.5t321.5 138.5q201 0 317 -160v134h275v-1090zM860 594q0 131 -65.5 207t-182.5 76t-181 -76t-64 -207v-98q0 -132 64 -207.5t181 -75.5q118 0 183 75.5t65 207.5v98z
M688 1550h301l-284 -303h-263z" />
    <glyph glyph-name="abreve.school" 
d="M1135 0h-275v141q-114 -168 -317 -168q-196 0 -321.5 138.5t-125.5 365.5v135q0 227 125.5 365.5t321.5 138.5q201 0 317 -160v134h275v-1090zM860 594q0 131 -65.5 207t-182.5 76t-181 -76t-64 -207v-98q0 -132 64 -207.5t181 -75.5q118 0 183 75.5t65 207.5v98z
M621 1395q123 0 174 145l178 -53q-36 -122 -132 -190t-220 -68t-220.5 68t-132.5 190l178 53q30 -82 74 -113.5t101 -31.5z" />
    <glyph glyph-name="acircumflex.school" 
d="M1135 0h-275v141q-114 -168 -317 -168q-196 0 -321.5 138.5t-125.5 365.5v135q0 227 125.5 365.5t321.5 138.5q201 0 317 -160v134h275v-1090zM860 594q0 131 -65.5 207t-182.5 76t-181 -76t-64 -207v-98q0 -132 64 -207.5t181 -75.5q118 0 183 75.5t65 207.5v98z
M483 1247h-239l243 303h271l241 -303h-241l-137 162z" />
    <glyph glyph-name="adieresis.school" 
d="M1135 0h-275v141q-114 -168 -317 -168q-196 0 -321.5 138.5t-125.5 365.5v135q0 227 125.5 365.5t321.5 138.5q201 0 317 -160v134h275v-1090zM860 594q0 131 -65.5 207t-182.5 76t-181 -76t-64 -207v-98q0 -132 64 -207.5t181 -75.5q118 0 183 75.5t65 207.5v98z
M403 1233q-65 0 -111 44.5t-46 108.5q0 66 46 111t111 45t109.5 -45t44.5 -111q0 -64 -44.5 -108.5t-109.5 -44.5zM844 1233q-65 0 -111.5 44.5t-46.5 108.5q0 65 46.5 110.5t111.5 45.5t109 -45t44 -111q0 -64 -44.5 -108.5t-108.5 -44.5z" />
    <glyph glyph-name="agrave.school" 
d="M1135 0h-275v141q-114 -168 -317 -168q-196 0 -321.5 138.5t-125.5 365.5v135q0 227 125.5 365.5t321.5 138.5q201 0 317 -160v134h275v-1090zM860 594q0 131 -65.5 207t-182.5 76t-181 -76t-64 -207v-98q0 -132 64 -207.5t181 -75.5q118 0 183 75.5t65 207.5v98z
M555 1550l246 -303h-262l-285 303h301z" />
    <glyph glyph-name="amacron.school" 
d="M1135 0h-275v141q-114 -168 -317 -168q-196 0 -321.5 138.5t-125.5 365.5v135q0 227 125.5 365.5t321.5 138.5q201 0 317 -160v134h275v-1090zM860 594q0 131 -65.5 207t-182.5 76t-181 -76t-64 -207v-98q0 -132 64 -207.5t181 -75.5q118 0 183 75.5t65 207.5v98z
M895 1466v-178h-549v178h549z" />
    <glyph glyph-name="aogonek.school" 
d="M1133 0q-162 -100 -162 -215q0 -44 24 -67t66 -23q46 0 82 16l28 -135q-67 -29 -143 -29q-105 0 -163 53t-58 136q0 72 36 135.5t126 128.5h-109v141q-114 -168 -317 -168q-196 0 -321.5 138.5t-125.5 365.5v135q0 227 125.5 365.5t321.5 138.5q201 0 317 -160v134h275
v-1090h-2zM860 594q0 131 -65.5 207t-182.5 76t-181 -76t-64 -207v-98q0 -132 64 -207.5t181 -75.5q118 0 183 75.5t65 207.5v98z" />
    <glyph glyph-name="aring.school" 
d="M1135 0h-275v141q-114 -168 -317 -168q-196 0 -321.5 138.5t-125.5 365.5v135q0 227 125.5 365.5t321.5 138.5q201 0 317 -160v134h275v-1090zM860 594q0 131 -65.5 207t-182.5 76t-181 -76t-64 -207v-98q0 -132 64 -207.5t181 -75.5q118 0 183 75.5t65 207.5v98z
M621 1200q-100 0 -169 68t-69 166q0 95 70 162t168 67t167.5 -67t69.5 -162q0 -97 -69.5 -165.5t-167.5 -68.5zM621 1321q47 0 79.5 33.5t32.5 79.5q0 45 -32.5 76.5t-79.5 31.5t-80 -32t-33 -76q0 -47 33 -80t80 -33z" />
    <glyph glyph-name="atilde.school" 
d="M1135 0h-275v141q-114 -168 -317 -168q-196 0 -321.5 138.5t-125.5 365.5v135q0 227 125.5 365.5t321.5 138.5q201 0 317 -160v134h275v-1090zM860 594q0 131 -65.5 207t-182.5 76t-181 -76t-64 -207v-98q0 -132 64 -207.5t181 -75.5q118 0 183 75.5t65 207.5v98z
M479 1520q38 0 90.5 -24t98.5 -48.5t69 -24.5q54 0 80 109l172 -37q-57 -248 -229 -248q-38 0 -90.5 24t-98.5 48t-69 24q-27 0 -46.5 -24t-33.5 -84l-172 35q57 250 229 250z" />
    <glyph glyph-name="caronSlovak" horiz-adv-x="342" 
d="M49 936l35 498h258l-90 -498h-203z" />
    <glyph glyph-name="uni00200326" horiz-adv-x="489" 
d="M127 -504q48 4 81.5 31.5t33.5 56.5q0 13 -12.5 24t-31 21t-36.5 23.5t-30.5 36.5t-12.5 53q0 47 36.5 83t86.5 36q64 0 102.5 -49.5t38.5 -133.5q0 -111 -72 -193.5t-184 -88.5v100z" />
    <glyph glyph-name="colon.alt" horiz-adv-x="530" 
d="M266 510q66 0 112 -46.5t46 -113.5q0 -66 -46 -111.5t-112 -45.5t-113 45.5t-47 111.5q0 67 47 113.5t113 46.5zM266 1163q66 0 112 -46t46 -113q0 -66 -46 -112t-112 -46t-113 46t-47 112q0 67 47 113t113 46z" />
    <glyph glyph-name="reversequoteleft" horiz-adv-x="532" 
d="M424 1042v-133q-158 24 -246 146t-88 291q0 107 49 170t131 63q62 0 107 -44t45 -105q0 -37 -16.5 -66t-40 -46t-47 -31.5t-40 -31.5t-16.5 -38q0 -50 48 -107t114 -68z" />
    <glyph glyph-name="reversequotedblleft" horiz-adv-x="983" 
d="M424 1042v-133q-158 24 -246 146t-88 291q0 107 49 170t131 63q62 0 107 -44t45 -105q0 -37 -16.5 -66t-40 -46t-47 -31.5t-40 -31.5t-16.5 -38q0 -50 48 -107t114 -68zM874 1042v-133q-158 24 -245.5 146t-87.5 291q0 107 49 170t131 63q62 0 106.5 -44t44.5 -105
q0 -37 -16.5 -66t-39.5 -46t-46.5 -31.5t-40 -31.5t-16.5 -38q0 -50 47.5 -107t113.5 -68z" />
    <glyph glyph-name="at.cap" horiz-adv-x="1726" 
d="M829 342q-154 0 -261 105.5t-107 254.5q0 153 106.5 259t261.5 106q113 0 203 -68v50h195v-449q0 -43 28.5 -71.5t79.5 -28.5q62 0 102 69.5t40 184.5q0 121 -45 226t-125.5 182t-198 121t-256.5 44q-166 0 -304.5 -80.5t-218 -221t-79.5 -308.5q0 -169 78.5 -309
t215 -221t300.5 -81q235 0 411 152l101 -100q-100 -88 -229 -136.5t-271 -48.5q-155 0 -294.5 58.5t-240.5 158t-160 237t-59 290.5t60 290.5t161.5 236.5t243 157.5t297.5 58.5q220 0 394.5 -94t270 -254t95.5 -354q0 -189 -91 -297.5t-220 -108.5q-155 0 -228 105
q-105 -115 -256 -115zM844 516q78 0 133 54.5t55 131.5q0 79 -55 134t-133 55q-77 0 -133 -55t-56 -134q0 -76 56 -131t133 -55z" />
    <glyph glyph-name="dollar.alt" horiz-adv-x="1259" 
d="M723 -133h-193v172q-179 34 -291 148t-124 278h264q12 -104 87 -162.5t200 -58.5q105 0 161 43t56 116q0 54 -45 94t-125 62l-232 64q-186 52 -275 146t-89 247q0 158 116.5 264.5t296.5 124.5v162h193v-172q164 -34 271 -145t130 -271h-266q-22 99 -91 155t-177 56
q-91 0 -149 -44t-58 -120q0 -105 168 -152l229 -61q192 -51 279.5 -144.5t87.5 -248.5q0 -157 -113.5 -266.5t-310.5 -124.5v-162z" />
    <glyph glyph-name="NTD" horiz-adv-x="3819" 
d="M3320 -121h-176v154q-167 29 -273 134.5t-116 256.5h241q16 -133 148 -178v309l-56 16q-167 43 -249 130.5t-82 226.5q0 147 109 246t278 114v146h176v-156q154 -31 254.5 -132.5t120.5 -250.5h-242q-28 123 -133 166v-305l61 -15q174 -44 254 -130t80 -228
q0 -144 -105.5 -245.5t-289.5 -114.5v-144zM399 0h-241v1311h278l621 -938l2 938h241v-1311h-276l-623 938zM1485 1083v228h1141v-228h-441v-1083h-260v1083h-440zM2998 938q0 -56 39 -92.5t107 -52.5v286q-67 -11 -106.5 -47.5t-39.5 -93.5zM3320 520v-291q76 10 115.5 47
t39.5 93q0 53 -42 93.5t-113 57.5z" />
    </font>
</defs>
</svg>
