<?xml version="1.0" standalone="no"?>
<!DOCTYPE svg PUBLIC "-//W3C//DTD SVG 1.1//EN" "http://www.w3.org/Graphics/SVG/1.1/DTD/svg11.dtd" >
<svg xmlns="http://www.w3.org/2000/svg" xmlns:xlink="http://www.w3.org/1999/xlink" version="1.1">
<metadata>
Created by FontForge 20170731 at Thu Feb  3 20:11:04 2022
 By Aleksey,,,
(c) 2018 MCKL, Inc. All rights reserved.
</metadata>
<defs>
<font id="UberMoveText-Light" horiz-adv-x="1220" >
  <font-face 
    font-family="Uber Move Text Light"
    font-weight="300"
    font-stretch="normal"
    units-per-em="2048"
    panose-1="2 1 3 3 3 2 1 6 3 3"
    ascent="1638"
    descent="-410"
    x-height="1073"
    cap-height="1434"
    bbox="-152 -485 4303 1982"
    underline-thickness="102"
    underline-position="-307"
    unicode-range="U+000D-FB02"
  />
<missing-glyph horiz-adv-x="1052" 
d="M123 -205v1741h807v-1741h-807z" />
    <glyph glyph-name=".notdef" horiz-adv-x="1052" 
d="M123 -205v1741h807v-1741h-807z" />
    <glyph glyph-name=".null" horiz-adv-x="0" 
 />
    <glyph glyph-name="uni000D" unicode="&#xd;" horiz-adv-x="460" 
 />
    <glyph glyph-name="NULL" horiz-adv-x="460" 
 />
    <glyph glyph-name="NULL" horiz-adv-x="460" 
 />
    <glyph glyph-name="space" unicode=" " horiz-adv-x="460" 
 />
    <glyph glyph-name="exclam" unicode="!" horiz-adv-x="387" 
d="M240 365h-93l-6 1130h105zM195 139q30 0 53.5 -24.5t23.5 -55.5q0 -33 -23 -56t-54 -23t-54.5 23t-23.5 56q0 31 23.5 55.5t54.5 24.5z" />
    <glyph glyph-name="quotedbl" unicode="&#x22;" horiz-adv-x="518" 
d="M109 1141l-9 358h101l-8 -358h-84zM326 1141l-9 358h101l-8 -358h-84z" />
    <glyph glyph-name="numbersign" unicode="#" horiz-adv-x="1267" 
d="M147 0l134 469h-240v84h264l94 328h-256v84h281l133 469h98l-133 -469h369l133 469h98l-133 -469h238v-84h-262l-95 -328h254v-84h-278l-133 -469h-99l134 469h-369l-133 -469h-99zM403 553h369l94 328h-368z" />
    <glyph glyph-name="dollar" unicode="$" horiz-adv-x="1058" 
d="M573 -129h-96v170q-167 22 -277 128.5t-130 270.5h102q23 -128 102.5 -209.5t202.5 -101.5v555l-88 27q-152 47 -231.5 133t-79.5 203q0 161 112.5 258.5t286.5 97.5v153h96v-159q159 -25 261.5 -132t119.5 -272h-100q-19 129 -91.5 209.5t-189.5 102.5v-545l84 -27
q320 -98 320 -336q0 -165 -112.5 -263.5t-291.5 -98.5v-164zM428 803l49 -17v527q-131 -3 -215 -74t-84 -180q0 -93 60.5 -153.5t189.5 -102.5zM606 647l-33 10v-534q141 4 221 73.5t80 184.5q0 98 -63 160.5t-205 105.5z" />
    <glyph glyph-name="percent" unicode="%" horiz-adv-x="1714" 
d="M446 768q-145 0 -244.5 101t-99.5 247q0 139 99 238.5t245 99.5q141 0 239.5 -100t98.5 -238q0 -146 -98.5 -247t-239.5 -101zM510 0h-98l792 1434h99zM446 854q100 0 173 78.5t73 185.5q0 103 -73.5 176.5t-172.5 73.5q-104 0 -177.5 -73.5t-73.5 -176.5
q0 -109 72 -186.5t179 -77.5zM1268 666q145 0 244.5 -101.5t99.5 -247.5q0 -138 -99 -237.5t-245 -99.5q-141 0 -239.5 99.5t-98.5 237.5q0 146 98.5 247.5t239.5 101.5zM1268 580q-100 0 -173 -79t-73 -186q0 -103 73.5 -176t172.5 -73q104 0 178 73t74 176
q0 109 -72.5 187t-179.5 78z" />
    <glyph glyph-name="ampersand" unicode="&#x26;" horiz-adv-x="1325" 
d="M1024 102l-86 99q-95 -120 -193 -168.5t-235 -48.5q-178 0 -298 107t-120 265q0 114 55.5 200t174.5 157l114 69l-28 33q-83 97 -116.5 167.5t-33.5 152.5q0 135 89.5 222t227.5 87q141 0 232.5 -85t91.5 -216q0 -100 -49.5 -174t-159.5 -142l-104 -63l350 -406
q7 11 55 91l189 315l86 -47l-191 -316q-49 -78 -76 -118l99 -113q67 -78 141 -78h53v-92h-59q-70 0 -113 21t-96 81zM481 883l43 -49l123 73q154 91 154 230q0 92 -63.5 154.5t-157.5 62.5q-99 0 -160.5 -60.5t-61.5 -158.5q0 -60 29 -119t94 -133zM193 358
q0 -121 91 -202.5t226 -81.5q116 0 199 44t168 156l-379 437l-144 -88q-161 -102 -161 -265z" />
    <glyph glyph-name="quotesingle" unicode="'" horiz-adv-x="303" 
d="M109 1141l-9 358h101l-8 -358h-84z" />
    <glyph glyph-name="parenleft" unicode="(" horiz-adv-x="716" 
d="M207 680q0 -292 115.5 -518t332.5 -363l-55 -80q-239 153 -367.5 397.5t-128.5 563.5t129 563.5t367 396.5l53 -79q-217 -135 -331.5 -361.5t-114.5 -519.5z" />
    <glyph glyph-name="parenright" unicode=")" horiz-adv-x="716" 
d="M512 680q0 292 -115.5 518t-333.5 363l56 79q239 -153 367 -397t128 -563q0 -320 -128.5 -565t-366.5 -396l-53 80q217 135 331.5 361.5t114.5 519.5z" />
    <glyph glyph-name="asterisk" unicode="*" horiz-adv-x="829" 
d="M696 852l-245 152l2 -287h-80l2 289l-248 -154l-43 68l254 153l-254 154l43 67l248 -153l-2 293h80l-2 -291l245 151l43 -67l-254 -154l254 -153z" />
    <glyph glyph-name="plus" unicode="+" horiz-adv-x="1124" 
d="M608 309h-92v379h-362v90h362v369h92v-369h363v-90h-363v-379z" />
    <glyph glyph-name="comma" unicode="," horiz-adv-x="407" 
d="M80 -215q54 10 92.5 59.5t38.5 98.5q0 15 -14.5 28t-31.5 21t-31.5 26t-14.5 43q0 33 22.5 54.5t51.5 21.5q43 0 68.5 -34.5t25.5 -98.5q0 -106 -55 -186t-152 -97v64z" />
    <glyph glyph-name="hyphen" unicode="-" horiz-adv-x="946" 
d="M154 565v92h639v-92h-639z" />
    <glyph glyph-name="period" unicode="." horiz-adv-x="387" 
d="M195 139q30 0 53.5 -24.5t23.5 -55.5q0 -33 -23 -56t-54 -23t-54.5 23t-23.5 56q0 31 23.5 55.5t54.5 24.5z" />
    <glyph glyph-name="slash" unicode="/" horiz-adv-x="813" 
d="M150 0h-107l623 1434h106z" />
    <glyph glyph-name="zero" unicode="0" horiz-adv-x="1265" 
d="M143 537v360q0 253 133.5 404t356.5 151q221 0 355 -151.5t134 -403.5v-360q0 -252 -134 -403.5t-355 -151.5q-222 0 -356 151.5t-134 403.5zM1022 545v344q0 218 -105 345.5t-284 127.5t-284 -127.5t-105 -345.5v-344q0 -218 105 -345.5t284 -127.5t284 127.5t105 345.5
z" />
    <glyph glyph-name="one" unicode="1" horiz-adv-x="864" 
d="M762 92v-92h-649v92h274v1249h-274v93h374v-1342h275z" />
    <glyph glyph-name="two" unicode="2" horiz-adv-x="1021" 
d="M915 1055q1 -123 -50.5 -218.5t-164.5 -220.5l-473 -524h699v-92h-834v70l524 585q105 117 152.5 203t46.5 195q0 133 -93 220t-233 87q-109 0 -195.5 -57t-131.5 -154l-84 41q53 120 161.5 190t249.5 70q184 0 305 -113t121 -282z" />
    <glyph glyph-name="three" unicode="3" horiz-adv-x="1069" 
d="M485 1452q179 0 297.5 -110t118.5 -273q0 -116 -62.5 -203.5t-166.5 -120.5q124 -34 199 -132.5t75 -231.5q0 -170 -121.5 -284.5t-310.5 -114.5q-155 0 -277 75t-178 201l84 45q50 -106 149 -168.5t222 -62.5q145 0 238.5 88.5t93.5 224.5q0 134 -85.5 220.5
t-215.5 86.5h-156v92h141q117 0 195 79.5t78 199.5q0 130 -91 214.5t-227 84.5q-108 0 -196 -57.5t-133 -153.5l-84 41q54 119 162.5 189.5t250.5 70.5z" />
    <glyph glyph-name="four" unicode="4" horiz-adv-x="1150" 
d="M776 0v391h-717v74l691 969h127v-951h204v-92h-204v-391h-101zM184 483h592v836z" />
    <glyph glyph-name="five" unicode="5" horiz-adv-x="1107" 
d="M543 881q198 0 323 -127t125 -322q0 -192 -129.5 -322t-322.5 -130q-152 0 -271.5 74.5t-177.5 201.5l86 45q47 -106 144.5 -168.5t218.5 -62.5q150 0 251 104t101 260t-99.5 256.5t-250.5 100.5q-179 0 -301 -113l-84 10l34 746h715v-93h-626l-25 -569q55 52 131.5 80.5
t157.5 28.5z" />
    <glyph glyph-name="six" unicode="6" horiz-adv-x="1196" 
d="M627 1362q-187 0 -292.5 -165.5t-105.5 -483.5v-146q33 151 141.5 242.5t260.5 91.5q193 0 318.5 -127.5t125.5 -322.5q0 -203 -126.5 -337t-319.5 -134q-222 0 -359 180t-137 477v129q0 315 133 500.5t359 185.5q132 0 239.5 -71.5t163.5 -194.5l-84 -41
q-42 98 -130 157.5t-187 59.5zM625 74q153 0 251.5 103.5t98.5 264.5q0 160 -99 264.5t-251 104.5q-154 0 -253.5 -104.5t-99.5 -264.5t100.5 -264t252.5 -104z" />
    <glyph glyph-name="seven" unicode="7" horiz-adv-x="1028" 
d="M975 1360l-711 -1360h-110l706 1341h-805v93h920v-74z" />
    <glyph glyph-name="eight" unicode="8" horiz-adv-x="1142" 
d="M571 -18q-196 0 -322 110.5t-126 282.5q0 134 77 231.5t210 136.5q-111 37 -175.5 125.5t-64.5 206.5q0 164 112 270.5t289 106.5t289.5 -106.5t112.5 -270.5q0 -118 -64.5 -206.5t-175.5 -125.5q133 -39 210 -136.5t77 -231.5q0 -172 -126.5 -282.5t-322.5 -110.5z
M571 784q134 0 217.5 80t83.5 209q0 131 -83.5 211t-217.5 80t-217.5 -80t-83.5 -211q0 -129 83.5 -209t217.5 -80zM571 692q-154 0 -251 -86t-97 -225t97 -225t251 -86t251.5 86t97.5 225t-97.5 225t-251.5 86z" />
    <glyph glyph-name="nine" unicode="9" horiz-adv-x="1196" 
d="M569 72q187 0 292.5 165.5t105.5 483.5v145q-33 -151 -141.5 -242.5t-260.5 -91.5q-193 0 -318.5 128t-125.5 323q0 203 126.5 337t319.5 134q222 0 359 -180t137 -477v-129q0 -315 -133 -500.5t-359 -185.5q-132 0 -239.5 71.5t-163.5 194.5l84 41q42 -98 130 -157.5
t187 -59.5zM571 1360q-152 0 -251 -104t-99 -265q0 -160 99 -264t251 -104q154 0 253.5 104t99.5 264t-100.5 264.5t-252.5 104.5z" />
    <glyph glyph-name="colon" unicode=":" horiz-adv-x="407" 
d="M195 139q30 0 53.5 -24.5t23.5 -55.5q0 -33 -23 -56t-54 -23t-54.5 23t-23.5 56q0 31 23.5 55.5t54.5 24.5zM195 1038q30 0 53.5 -24.5t23.5 -55.5q0 -33 -23 -56t-54 -23t-54.5 23t-23.5 56q0 31 23.5 55.5t54.5 24.5z" />
    <glyph glyph-name="semicolon" unicode=";" horiz-adv-x="407" 
d="M80 -215q54 10 92.5 59.5t38.5 98.5q0 15 -14.5 28t-31.5 21t-31.5 26t-14.5 43q0 33 22.5 54.5t51.5 21.5q43 0 68.5 -34.5t25.5 -98.5q0 -106 -55 -186t-152 -97v64zM195 1038q30 0 53.5 -24.5t23.5 -55.5q0 -33 -23 -56t-54 -23t-54.5 23t-23.5 56q0 31 23.5 55.5
t54.5 24.5z" />
    <glyph glyph-name="less" unicode="&#x3c;" horiz-adv-x="757" 
d="M680 1073l-492 -534l498 -539h-129l-504 537l504 536h123z" />
    <glyph glyph-name="equal" unicode="=" horiz-adv-x="1124" 
d="M971 928v-86h-817v86h817zM971 621v-86h-817v86h817z" />
    <glyph glyph-name="greater" unicode="&#x3e;" horiz-adv-x="757" 
d="M78 0l491 535l-497 538h129l504 -536l-504 -537h-123z" />
    <glyph glyph-name="question" unicode="?" horiz-adv-x="1017" 
d="M918 1053q0 -165 -105 -281t-276 -129l-7 -260h-88l-6 348h60q146 0 233.5 92.5t87.5 229.5t-97 229t-255 92q-103 0 -193.5 -47.5t-150.5 -132.5l-80 55q74 102 185.5 158.5t238.5 56.5q201 0 327 -118t126 -293zM477 139q31 0 54.5 -24.5t23.5 -55.5q0 -32 -23 -55.5
t-55 -23.5t-55 23.5t-23 55.5q0 31 23.5 55.5t54.5 24.5z" />
    <glyph glyph-name="at" unicode="@" horiz-adv-x="1708" 
d="M825 147q-146 0 -247 102.5t-101 250.5q0 146 101.5 248t246.5 102q78 0 145.5 -33.5t114.5 -91.5v113h97v-459q0 -53 31 -87t87 -34q82 0 135.5 82t53.5 205q0 135 -48.5 251t-133 196t-202 125.5t-251.5 45.5q-174 0 -320.5 -87t-231.5 -237.5t-85 -328.5t85 -327.5
t231.5 -235.5t320.5 -86q258 0 438 147l60 -67q-208 -166 -498 -166q-150 0 -285 57.5t-233 155.5t-155.5 234.5t-57.5 287.5t57.5 288t155 235.5t233 157t285.5 58.5q206 0 373 -88.5t262.5 -249t95.5 -362.5q0 -169 -85 -273t-202 -104q-147 0 -196 121q-47 -68 -119 -107
t-158 -39zM831 236q106 0 181 77.5t75 186.5t-75 185.5t-181 76.5q-107 0 -181.5 -76.5t-74.5 -185.5q0 -110 74.5 -187t181.5 -77z" />
    <glyph glyph-name="A" unicode="A" horiz-adv-x="1308" 
d="M705 1434l583 -1434h-112l-172 426h-703l-170 -426h-111l584 1434h101zM340 520h627l-316 783z" />
    <glyph glyph-name="B" unicode="B" horiz-adv-x="1282" 
d="M205 0v1434h450q172 0 287 -105.5t115 -257.5q0 -99 -62 -181t-166 -122q147 -29 238.5 -133t91.5 -238q0 -166 -120.5 -281.5t-301.5 -115.5h-532zM655 1339h-346v-540h346q127 0 212 78t85 190q0 115 -84.5 193.5t-212.5 78.5zM737 94q136 0 227 89.5t91 217.5
q0 127 -90.5 215.5t-227.5 88.5h-428v-611h428z" />
    <glyph glyph-name="C" unicode="C" horiz-adv-x="1402" 
d="M1305 973h-103q-42 183 -168.5 284t-298.5 101q-102 0 -190 -37t-154.5 -106t-104.5 -175.5t-38 -238.5v-168q0 -132 38 -238.5t104.5 -175.5t154.5 -106t190 -37q172 0 298.5 101t168.5 284h103q-45 -227 -201.5 -354t-368.5 -127q-123 0 -231 44.5t-188 126t-126.5 206
t-46.5 276.5v168q0 152 46.5 276.5t126.5 206t188 126t231 44.5q212 0 368.5 -127t201.5 -354z" />
    <glyph glyph-name="D" unicode="D" horiz-adv-x="1447" 
d="M1305 633q0 -297 -159.5 -465t-453.5 -168h-487v1434h487q292 0 452.5 -169.5t160.5 -467.5v-164zM686 1339h-377v-1245h377q251 0 382.5 140.5t131.5 398.5v164q0 255 -132.5 398.5t-381.5 143.5z" />
    <glyph glyph-name="E" unicode="E" horiz-adv-x="1198" 
d="M205 0v1434h870v-95h-766v-573h746v-94h-746v-578h766v-94h-870z" />
    <glyph glyph-name="F" unicode="F" horiz-adv-x="1198" 
d="M309 0h-104v1434h870v-95h-766v-573h746v-94h-746v-672z" />
    <glyph glyph-name="G" unicode="G" horiz-adv-x="1490" 
d="M143 633v168q0 292 165.5 472.5t432.5 180.5q193 0 343.5 -104t211.5 -283l-96 -31q-53 151 -177.5 236.5t-281.5 85.5q-223 0 -358 -152.5t-135 -404.5v-168q0 -252 136 -404.5t359 -152.5q124 0 228 52t169.5 157.5t65.5 244.5v91h-448v94h549v-715h-101v262
q-61 -126 -186 -204t-277 -78q-267 0 -433.5 181t-166.5 472z" />
    <glyph glyph-name="H" unicode="H" horiz-adv-x="1435" 
d="M309 0h-104v1434h104v-668h817v668h105v-1434h-105v672h-817v-672z" />
    <glyph glyph-name="I" unicode="I" horiz-adv-x="514" 
d="M309 0h-104v1434h104v-1434z" />
    <glyph glyph-name="J" unicode="J" horiz-adv-x="999" 
d="M57 90l56 78q111 -88 264 -88q148 0 241 95t93 271v988h104v-988q0 -110 -33.5 -198.5t-93 -145.5t-139 -87.5t-172.5 -30.5q-186 0 -320 106z" />
    <glyph glyph-name="K" unicode="K" horiz-adv-x="1183" 
d="M309 0h-104v1434h104v-672l754 672h137l-797 -707l805 -727h-143l-756 680v-680z" />
    <glyph glyph-name="L" unicode="L" horiz-adv-x="1146" 
d="M1075 94v-94h-870v1434h104v-1340h766z" />
    <glyph glyph-name="M" unicode="M" horiz-adv-x="1789" 
d="M309 0h-104v1434h170l522 -1295l520 1295h168v-1434h-104l4 1341l-543 -1341h-94l-543 1341z" />
    <glyph glyph-name="N" unicode="N" horiz-adv-x="1497" 
d="M305 0h-100v1434h121l870 -1289l-4 1289h100v-1434h-118l-873 1292z" />
    <glyph glyph-name="O" unicode="O" horiz-adv-x="1503" 
d="M143 801q0 296 168 474.5t441 178.5t440.5 -178.5t167.5 -474.5v-168q0 -296 -167.5 -474.5t-440.5 -178.5t-441 178.5t-168 474.5v168zM248 791v-148q0 -268 136.5 -417.5t367.5 -149.5t367 149.5t136 417.5v148q0 268 -136 417.5t-367 149.5t-367.5 -149.5
t-136.5 -417.5z" />
    <glyph glyph-name="P" unicode="P" horiz-adv-x="1198" 
d="M205 0v1434h491q181 0 301.5 -120t120.5 -292q0 -170 -120.5 -288t-301.5 -118h-387v-616h-104zM696 1339h-387v-630h387q137 0 227.5 90.5t90.5 222.5t-91 224.5t-227 92.5z" />
    <glyph glyph-name="Q" unicode="Q" horiz-adv-x="1503" 
d="M143 801q0 296 168 474.5t441 178.5t440.5 -178.5t167.5 -474.5v-168q0 -314 -186 -494l133 -162l-78 -63l-133 162q-148 -96 -344 -96q-273 0 -441 178.5t-168 474.5v168zM248 791v-148q0 -268 136.5 -417.5t367.5 -149.5q163 0 282 78l-192 235l78 64l192 -236
q143 153 143 426v148q0 268 -136 417.5t-367 149.5t-367.5 -149.5t-136.5 -417.5z" />
    <glyph glyph-name="R" unicode="R" horiz-adv-x="1228" 
d="M309 0h-104v1434h491q181 0 301.5 -117t120.5 -285q0 -145 -94 -253t-244 -134l400 -645h-119l-395 637h-357v-637zM696 1339h-387v-610h387q137 0 227.5 88t90.5 215q0 128 -91 217.5t-227 89.5z" />
    <glyph glyph-name="S" unicode="S" 
d="M111 418h106q28 -161 139.5 -251.5t280.5 -90.5q159 0 253.5 76.5t94.5 207.5q0 106 -69 172.5t-224 110.5l-246 70q-154 42 -236.5 135.5t-82.5 220.5q0 170 122 276.5t314 106.5q203 0 338.5 -120.5t157.5 -319.5h-105q-22 164 -125.5 255t-269.5 91q-143 0 -235.5 -78
t-92.5 -201q0 -99 63.5 -165.5t194.5 -104.5l256 -74q347 -100 347 -364q0 -175 -124 -282t-329 -107q-217 0 -361 119t-167 317z" />
    <glyph glyph-name="T" unicode="T" horiz-adv-x="1247" 
d="M61 1339v95h1125v-95h-510v-1339h-105v1339h-510z" />
    <glyph glyph-name="U" unicode="U" horiz-adv-x="1435" 
d="M289 528q0 -200 117.5 -324t298.5 -124q178 0 299.5 124.5t121.5 323.5v906h105v-1434h-105v258q-55 -115 -166.5 -194.5t-261.5 -79.5q-106 0 -200.5 38.5t-163.5 107t-109.5 169.5t-40.5 221v914h105v-906z" />
    <glyph glyph-name="V" unicode="V" horiz-adv-x="1308" 
d="M604 0l-584 1434h113l524 -1303l521 1303h110l-583 -1434h-101z" />
    <glyph glyph-name="W" unicode="W" horiz-adv-x="1896" 
d="M995 1434l408 -1260l309 1260h103l-365 -1434h-90l-412 1268l-411 -1268h-91l-364 1434h106l312 -1260l405 1260h90z" />
    <glyph glyph-name="X" unicode="X" horiz-adv-x="1159" 
d="M10 0l512 756l-461 678h115l404 -594l403 594h115l-461 -678l512 -756h-115l-454 672l-455 -672h-115z" />
    <glyph glyph-name="Y" unicode="Y" horiz-adv-x="1210" 
d="M657 0h-104v604l-543 830h119l479 -736l477 736h115l-543 -832v-602z" />
    <glyph glyph-name="Z" unicode="Z" horiz-adv-x="1097" 
d="M88 1339v95h924v-74l-807 -1266h809v-94h-938v74l807 1265h-795z" />
    <glyph glyph-name="bracketleft" unicode="[" horiz-adv-x="634" 
d="M96 -256v1874h482v-86h-383v-1702h383v-86h-482z" />
    <glyph glyph-name="backslash" unicode="\" horiz-adv-x="813" 
d="M770 0h-106l-623 1434h106z" />
    <glyph glyph-name="bracketright" unicode="]" horiz-adv-x="634" 
d="M537 1618v-1874h-482v86h383v1702h-383v86h482z" />
    <glyph glyph-name="asciicircum" unicode="^" horiz-adv-x="1044" 
d="M90 717l387 717h90l387 -717h-106l-326 608l-325 -608h-107z" />
    <glyph glyph-name="underscore" unicode="_" horiz-adv-x="976" 
d="M985 -164v-86h-993v86h993z" />
    <glyph glyph-name="grave" unicode="`" horiz-adv-x="1024" 
d="M463 1444l225 -246h-108l-252 246h135z" />
    <glyph glyph-name="a" unicode="a" horiz-adv-x="1081" 
d="M92 291q0 137 86 219t236 88l364 16v131q0 119 -66 185.5t-184 66.5q-176 0 -295 -131l-65 70q88 81 173.5 116t190.5 35q160 0 253.5 -88t93.5 -237v-606q0 -31 18.5 -47.5t52.5 -16.5h51v-92h-65q-72 0 -115 38.5t-43 104.5v39q-44 -91 -135 -145.5t-197 -54.5
q-154 0 -254 87t-100 222zM190 295q0 -97 73.5 -160t185.5 -63q137 0 233 83t96 203v164l-356 -14q-109 -4 -170.5 -61t-61.5 -152z" />
    <glyph glyph-name="b" unicode="b" 
d="M197 0v1495h100v-637q50 109 146 170.5t221 61.5q184 0 301.5 -129.5t117.5 -335.5v-176q0 -205 -118.5 -335t-300.5 -130q-125 0 -221 61.5t-146 169.5v-215h-100zM297 612v-151q0 -173 94 -280t248 -107q155 0 249.5 106.5t94.5 280.5v151q0 174 -94.5 280.5
t-249.5 106.5q-154 0 -248 -107t-94 -280z" />
    <glyph glyph-name="c" unicode="c" horiz-adv-x="1093" 
d="M571 -16q-187 0 -310.5 129t-123.5 336v176q0 207 123 336t311 129q153 0 265.5 -89t150.5 -243h-104q-34 113 -116.5 177t-195.5 64q-149 0 -241 -107t-92 -280v-151q0 -173 92 -280t241 -107q114 0 197 64t117 177h102q-38 -152 -151 -241.5t-265 -89.5z" />
    <glyph glyph-name="d" unicode="d" 
d="M1026 0h-100v217q-48 -108 -145.5 -170.5t-223.5 -62.5q-182 0 -301 130t-119 335v176q0 206 118.5 335.5t301.5 129.5q126 0 223.5 -63t145.5 -171v639h100v-1495zM926 612q0 173 -95 280t-249 107t-249 -107t-95 -280v-151q0 -173 95 -280t249 -107t249 107t95 280v151
z" />
    <glyph glyph-name="e" unicode="e" horiz-adv-x="1112" 
d="M137 449v176q0 202 123 333.5t311 131.5q179 0 296.5 -128.5t117.5 -326.5v-127h-745v-55q0 -165 97 -272t243 -107q188 0 305 164l82 -56q-147 -198 -387 -198q-188 0 -315.5 132.5t-127.5 332.5zM240 621v-21h645v31q0 160 -90 264t-226 104q-143 0 -236 -106.5
t-93 -271.5z" />
    <glyph glyph-name="f" unicode="f" horiz-adv-x="757" 
d="M76 981v92h223v244q0 91 51 143.5t139 52.5h193v-92h-178q-51 0 -78 -30t-27 -86v-232h283v-92h-283v-981h-100v981h-223z" />
    <glyph glyph-name="g" unicode="g" 
d="M410 -434v92h235q279 0 279 279v276q-47 -108 -144 -168.5t-223 -60.5q-182 0 -301 129t-119 336v172q0 209 118.5 339t301.5 130q125 0 222 -62.5t145 -169.5v215h100v-1147q0 -170 -95 -265t-267 -95h-252zM924 612q0 173 -94 280t-248 107t-249 -107t-95 -280v-153
q0 -174 95 -279.5t249 -105.5t248 105.5t94 279.5v153z" />
    <glyph glyph-name="h" unicode="h" 
d="M1024 702v-702h-100v688q0 135 -82 222t-215 87q-144 0 -237 -93.5t-93 -235.5v-668h-100v1495h100v-637q38 106 133.5 169t218.5 63q165 0 270 -111.5t105 -276.5z" />
    <glyph glyph-name="i" unicode="i" horiz-adv-x="493" 
d="M248 1317q-31 0 -55.5 25.5t-24.5 56.5q0 33 24.5 57.5t55.5 24.5t55.5 -24.5t24.5 -57.5q0 -31 -24.5 -56.5t-55.5 -25.5zM297 1073v-1073h-100v1073h100z" />
    <glyph glyph-name="j" unicode="j" horiz-adv-x="493" 
d="M248 1317q-31 0 -55.5 25.5t-24.5 56.5q0 33 24.5 57.5t55.5 24.5t55.5 -24.5t24.5 -57.5q0 -31 -24.5 -56.5t-55.5 -25.5zM117 -434h-86v92h71q45 0 70 21.5t25 60.5v1333h100v-1343q0 -75 -48.5 -119.5t-131.5 -44.5z" />
    <glyph glyph-name="k" unicode="k" horiz-adv-x="978" 
d="M991 1073l-600 -518l617 -555h-146l-565 512v-512h-100v1495h100v-905l551 483h143z" />
    <glyph glyph-name="l" unicode="l" horiz-adv-x="493" 
d="M297 0h-100v1495h100v-1495z" />
    <glyph glyph-name="m" unicode="m" horiz-adv-x="1884" 
d="M297 655v-655h-100v1073h100v-219q37 109 126.5 172.5t205.5 63.5q126 0 217.5 -75t124.5 -198q32 119 126.5 196t225.5 77q161 0 263 -114t102 -284v-692h-101v676q0 141 -78.5 231t-205.5 90q-136 0 -224 -97t-88 -245v-655h-100v676q0 141 -78.5 231t-204.5 90
q-136 0 -223.5 -97t-87.5 -245z" />
    <glyph glyph-name="n" unicode="n" 
d="M1024 702v-702h-100v688q0 135 -82 222t-215 87q-144 0 -237 -93.5t-93 -235.5v-668h-100v1073h100v-215q38 106 133.5 169t218.5 63q165 0 270 -111.5t105 -276.5z" />
    <glyph glyph-name="o" unicode="o" horiz-adv-x="1163" 
d="M1026 449q0 -207 -126 -336t-318 -129t-318.5 129t-126.5 336v176q0 207 126.5 336t318.5 129t318 -129t126 -336v-176zM926 612q0 173 -95 280t-249 107t-249 -107t-95 -280v-151q0 -173 95 -280t249 -107t249 107t95 280v151z" />
    <glyph glyph-name="p" unicode="p" 
d="M197 1073h100v-215q50 109 146 170.5t221 61.5q182 0 300.5 -130t118.5 -335v-176q0 -206 -117.5 -335.5t-301.5 -129.5q-125 0 -221 61.5t-146 169.5v-649h-100v1507zM297 461q0 -173 94 -280t248 -107q155 0 249.5 106.5t94.5 280.5v151q0 174 -94.5 280.5
t-249.5 106.5q-154 0 -248 -107t-94 -280v-151z" />
    <glyph glyph-name="q" unicode="q" 
d="M1026 1073v-1507h-100v651q-48 -108 -145.5 -170.5t-223.5 -62.5q-182 0 -301 130t-119 335v176q0 206 118.5 335.5t301.5 129.5q126 0 223.5 -63t145.5 -171v217h100zM926 612q0 173 -95 280t-249 107t-249 -107t-95 -280v-151q0 -173 95 -280t249 -107t249 107t95 280
v151z" />
    <glyph glyph-name="r" unicode="r" horiz-adv-x="731" 
d="M666 985h-95q-116 0 -195 -89.5t-79 -217.5v-678h-100v1073h100v-213q29 99 104 160t170 61h95v-96z" />
    <glyph glyph-name="s" unicode="s" horiz-adv-x="968" 
d="M504 -18q-168 0 -282.5 96t-135.5 241h100q18 -106 104.5 -176.5t215.5 -70.5q112 0 183 55.5t71 136.5t-56 130.5t-165 80.5l-162 45q-131 36 -202 106t-71 171q0 131 93.5 212t246.5 81q154 0 269 -93t135 -239h-103q-15 101 -100.5 171t-198.5 70q-111 0 -176 -53
t-65 -135q0 -143 196 -197l162 -45q141 -39 219 -115t78 -178q0 -132 -98.5 -213t-257.5 -81z" />
    <glyph glyph-name="t" unicode="t" horiz-adv-x="759" 
d="M500 0q-93 0 -148 50t-55 136v795h-221v92h221v328h100v-328h287v-92h-287v-784q0 -50 30 -77.5t85 -27.5h172v-92h-184z" />
    <glyph glyph-name="u" unicode="u" 
d="M197 371v702h100v-688q0 -135 82.5 -222t214.5 -87q144 0 237 94t93 236v667h100v-1073h-100v215q-38 -106 -133.5 -168.5t-217.5 -62.5q-166 0 -271 111t-105 276z" />
    <glyph glyph-name="v" unicode="v" horiz-adv-x="980" 
d="M455 0l-441 1073h103l377 -921l372 921h103l-443 -1073h-71z" />
    <glyph glyph-name="w" unicode="w" horiz-adv-x="1472" 
d="M694 1073h88l285 -901l248 901h102l-303 -1073h-86l-291 905l-293 -905h-86l-303 1073h105l248 -905z" />
    <glyph glyph-name="x" unicode="x" horiz-adv-x="921" 
d="M10 0l393 559l-360 514h111l309 -436l307 436h111l-365 -514l395 -559h-112l-340 481l-338 -481h-111z" />
    <glyph glyph-name="y" unicode="y" horiz-adv-x="980" 
d="M336 -238l106 267l-428 1044h103l379 -921l370 921h103l-537 -1321q-34 -87 -87.5 -136.5t-139.5 -49.5h-129v92h114q102 0 146 104z" />
    <glyph glyph-name="z" unicode="z" horiz-adv-x="933" 
d="M84 981v92h750v-74l-631 -907h643v-92h-768v74l633 907h-627z" />
    <glyph glyph-name="braceleft" unicode="{" horiz-adv-x="765" 
d="M487 371l-125 -287q-39 -90 -24 -149.5t63.5 -89.5t120.5 -31q82 0 160 34l31 -77q-93 -45 -189 -45q-121 0 -197 53.5t-88.5 143t37.5 206.5l109 233q53 114 8.5 194.5t-157.5 80.5h-181v90h181q113 0 157.5 80t-8.5 194l-109 234q-50 117 -37.5 206.5t88.5 143
t197 53.5q96 0 189 -45l-31 -77q-78 34 -160 34q-72 -1 -120.5 -31t-63.5 -89.5t24 -149.5l125 -287q48 -110 2.5 -194.5t-141.5 -116.5q96 -32 141.5 -116.5t-2.5 -194.5z" />
    <glyph glyph-name="bar" unicode="|" horiz-adv-x="468" 
d="M285 -434h-101v1868h101v-1868z" />
    <glyph glyph-name="braceright" unicode="}" horiz-adv-x="765" 
d="M279 993l124 287q39 90 24 149.5t-63 89.5t-120 31q-82 0 -160 -34l-31 77q93 45 189 45q121 0 197 -53.5t88 -143t-38 -206.5l-108 -234q-53 -114 -8.5 -194t157.5 -80h181v-90h-181q-113 0 -157.5 -80.5t8.5 -194.5l108 -233q50 -117 38 -206.5t-88 -143t-197 -53.5
q-96 0 -189 45l31 77q78 -34 160 -34q72 1 120 31t63 89.5t-24 149.5l-124 287q-48 110 -2.5 194.5t141.5 116.5q-96 32 -141.5 116.5t2.5 194.5z" />
    <glyph glyph-name="asciitilde" unicode="~" horiz-adv-x="1122" 
d="M240 647l-88 25q73 243 217 243q41 0 104.5 -25.5t118.5 -56t114 -56t93 -25.5q42 0 71.5 36t63.5 136l88 -25q-74 -244 -217 -244q-52 0 -138 41t-168 82t-124 41t-71.5 -36t-63.5 -136z" />
    <glyph glyph-name="uni00A0" unicode="&#xa0;" horiz-adv-x="460" 
 />
    <glyph glyph-name="exclamdown" unicode="&#xa1;" horiz-adv-x="387" 
d="M150 1069h92l6 -1130h-105zM195 1294q-31 0 -54.5 24.5t-23.5 55.5q0 33 23.5 56.5t54.5 23.5t54 -23.5t23 -56.5q0 -31 -23.5 -55.5t-53.5 -24.5z" />
    <glyph glyph-name="cent" unicode="&#xa2;" horiz-adv-x="1118" 
d="M621 1284v-197q137 -12 236 -99.5t134 -229.5h-104q-31 102 -100.5 164.5t-165.5 74.5v-921q97 12 167 75t101 164h102q-35 -140 -134 -227.5t-236 -101.5v-197h-97v197q-168 19 -275.5 145.5t-107.5 317.5v176q0 191 107.5 317t275.5 145v197h97zM242 461
q0 -157 77 -260.5t205 -122.5v917q-128 -19 -205 -122.5t-77 -260.5v-151z" />
    <glyph glyph-name="sterling" unicode="&#xa3;" horiz-adv-x="1128" 
d="M756 748v-89h-389l73 -294q22 -98 0 -166.5t-80 -106.5h707v-92h-993v92h90q101 0 154 74.5t22 198.5l-74 294h-170v89h148l-31 120q-65 259 43 419.5t334 160.5q190 0 309.5 -108t132.5 -293h-98q-12 139 -108 225t-236 86q-178 0 -256.5 -131t-22.5 -353l33 -126h412z
" />
    <glyph glyph-name="yen" unicode="&#xa5;" horiz-adv-x="1210" 
d="M195 412h368v186h-368v88h315l-490 748h119l479 -736l478 736h114l-487 -748h293v-88h-348v-186h348v-88h-348v-324h-105v324h-368v88z" />
    <glyph glyph-name="section" unicode="&#xa7;" horiz-adv-x="962" 
d="M831 57q0 -125 -86 -201.5t-225 -76.5q-146 0 -254 88t-127 223h99q15 -95 96 -160t184 -65q98 0 157.5 49t59.5 131q0 76 -47 129t-147 88l-244 84q-129 44 -198.5 122.5t-69.5 180.5q0 115 63 192.5t168 96.5q-127 84 -127 223q0 128 86 206.5t225 78.5q146 0 252 -88
t125 -223h-98q-15 96 -95 160.5t-182 64.5q-97 0 -157 -51.5t-60 -134.5q0 -146 191 -211l244 -84q130 -44 199 -122t69 -182q0 -109 -64.5 -186t-173.5 -102q137 -86 137 -230zM639 793l-217 71q-78 21 -143.5 3.5t-108.5 -75t-43 -133.5q0 -83 47.5 -138t147.5 -89
l178 -59q143 -45 238.5 14t95.5 178q0 165 -195 228z" />
    <glyph glyph-name="dieresis" unicode="&#xa8;" horiz-adv-x="1024" 
d="M354 1245q-30 0 -52.5 23.5t-22.5 54.5q0 32 22 55t53 23t53.5 -23t22.5 -55q0 -31 -22.5 -54.5t-53.5 -23.5zM670 1245q-31 0 -53.5 23.5t-22.5 54.5q0 32 22.5 55t53.5 23t53 -23t22 -55q0 -31 -22.5 -54.5t-52.5 -23.5z" />
    <glyph glyph-name="copyright" unicode="&#xa9;" horiz-adv-x="1708" 
d="M854 -20q-150 0 -285 57.5t-233 155.5t-155.5 234.5t-57.5 287.5t57.5 288t155 235.5t233 157t285.5 58.5t285 -57.5t233 -155.5t155.5 -234.5t57.5 -287.5t-57.5 -288t-155 -235.5t-233 -157t-285.5 -58.5zM854 66q174 0 320.5 87t231.5 237.5t85 328.5t-85 327.5
t-231.5 235.5t-320.5 86t-320.5 -87t-231.5 -237.5t-85 -328.5t85 -327.5t231.5 -235.5t320.5 -86zM594 715q0 -119 80.5 -202t195.5 -83q71 0 130.5 31t97.5 88l73 -53q-52 -72 -130 -113t-171 -41q-158 0 -266 108.5t-108 264.5t108.5 265.5t265.5 109.5q93 0 170.5 -41.5
t130.5 -112.5l-73 -53q-38 56 -98 87t-130 31q-115 0 -195.5 -82.5t-80.5 -203.5z" />
    <glyph glyph-name="ordfeminine" unicode="&#xaa;" horiz-adv-x="794" 
d="M72 887q0 99 63 155.5t168 61.5l246 12v82q0 78 -44 122t-122 44q-120 0 -205 -88l-51 65q120 105 262 105q115 0 182.5 -64t67.5 -172v-401q0 -45 49 -45h37v-82h-53q-56 0 -88.5 30.5t-32.5 82.5v4q-34 -61 -94.5 -96t-134.5 -35q-108 0 -179 61.5t-71 157.5zM162 891
q0 -63 47.5 -104.5t122.5 -41.5q91 0 154 56t63 135v102l-238 -10q-69 -3 -109 -38.5t-40 -98.5z" />
    <glyph glyph-name="guillemotleft" unicode="&#xab;" horiz-adv-x="1153" 
d="M680 1073l-492 -534l498 -539h-129l-504 537l504 536h123zM1075 1073l-491 -534l497 -539h-129l-503 537l503 536h123z" />
    <glyph glyph-name="registered" unicode="&#xae;" horiz-adv-x="962" 
d="M481 637q-169 0 -287 118.5t-118 288.5t118 289t287 119t287.5 -119t118.5 -289t-118.5 -288.5t-287.5 -118.5zM481 702q141 0 238.5 99.5t97.5 242.5t-97.5 242.5t-238.5 99.5t-238.5 -99.5t-97.5 -242.5t97.5 -242.5t238.5 -99.5zM350 858v383h154q47 0 80.5 -34
t33.5 -81q0 -37 -20 -65.5t-53 -40.5l96 -162h-76l-88 154h-59v-154h-68zM485 1182h-67v-113h67q28 0 46 16t18 41q0 23 -18.5 39.5t-45.5 16.5z" />
    <glyph glyph-name="macron" unicode="&#xaf;" horiz-adv-x="1024" 
d="M764 1343v-79h-490v79h490z" />
    <glyph glyph-name="degree" unicode="&#xb0;" horiz-adv-x="763" 
d="M383 872q-123 0 -207 86t-84 209q0 117 84 202t207 85q120 0 204.5 -85t84.5 -202q0 -123 -84.5 -209t-204.5 -86zM383 954q83 0 143 63t60 152q0 84 -60.5 143.5t-142.5 59.5q-85 0 -145 -60t-60 -143q0 -90 59 -152.5t146 -62.5z" />
    <glyph glyph-name="plusminus" unicode="&#xb1;" horiz-adv-x="1124" 
d="M608 334h-92v377h-362v92h362v368h92v-368h363v-92h-363v-377zM971 90v-90h-817v90h817z" />
    <glyph glyph-name="twosuperior" unicode="&#xb2;" horiz-adv-x="608" 
d="M539 1221q0 -66 -28 -121t-91 -123l-230 -252h357v-80h-484v60l287 315q53 59 76 100.5t23 93.5q0 66 -45 109t-113 43q-115 0 -172 -113l-72 39q34 71 98 111.5t148 40.5q108 0 177 -63.5t69 -159.5z" />
    <glyph glyph-name="threesuperior" unicode="&#xb3;" horiz-adv-x="638" 
d="M299 1444q103 0 171.5 -61t68.5 -152q0 -61 -33.5 -107t-89.5 -67q67 -22 108 -75.5t41 -123.5q0 -96 -72 -160.5t-184 -64.5q-92 0 -162 41.5t-104 111.5l76 41q26 -54 75.5 -85t112.5 -31q73 0 119.5 43.5t46.5 109.5q0 63 -41.5 104.5t-107.5 41.5h-97v77h88
q59 0 97.5 38.5t38.5 97.5q0 62 -44.5 102.5t-111.5 40.5q-56 0 -100 -29.5t-68 -79.5l-76 37q33 69 97.5 109.5t150.5 40.5z" />
    <glyph glyph-name="acute" unicode="&#xb4;" horiz-adv-x="1024" 
d="M559 1444h135l-256 -246h-104z" />
    <glyph glyph-name="paragraph" unicode="&#xb6;" horiz-adv-x="1085" 
d="M51 1022q0 172 120.5 292t301.5 120h502v-1434h-107v616h-159v-616h-107v616h-129q-181 0 -301.5 118t-120.5 288z" />
    <glyph glyph-name="periodcentered" unicode="&#xb7;" horiz-adv-x="389" 
d="M195 698q30 0 53.5 -24.5t23.5 -55.5q0 -33 -23 -56t-54 -23t-54.5 23t-23.5 56q0 31 23.5 55.5t54.5 24.5z" />
    <glyph glyph-name="cedilla" unicode="&#xb8;" horiz-adv-x="1024" 
d="M768 -287q0 -75 -56.5 -125.5t-142.5 -50.5q-60 0 -113.5 25.5t-84.5 68.5l61 50q51 -70 137 -70q52 0 84.5 28t32.5 74q0 47 -37 76t-100 29h-55l55 194h72l-37 -133q84 -3 134 -48t50 -118z" />
    <glyph glyph-name="onesuperior" unicode="&#xb9;" horiz-adv-x="530" 
d="M471 725v-80h-408v80h158v629h-147v80h239v-709h158z" />
    <glyph glyph-name="ordmasculine" unicode="&#xba;" horiz-adv-x="843" 
d="M741 997q0 -149 -90 -240t-229 -91q-138 0 -228 91t-90 240v115q0 148 90 240t228 92t228.5 -91.5t90.5 -240.5v-115zM651 1104q0 117 -63 188.5t-166 71.5t-165 -71.5t-62 -188.5v-98q0 -117 62 -189t165 -72t166 72t63 189v98z" />
    <glyph glyph-name="guillemotright" unicode="&#xbb;" horiz-adv-x="1153" 
d="M473 0l492 535l-498 538h129l504 -536l-504 -537h-123zM78 0l491 535l-497 538h129l504 -536l-504 -537h-123z" />
    <glyph glyph-name="onequarter" unicode="&#xbc;" horiz-adv-x="1339" 
d="M471 725v-80h-408v80h158v629h-147v80h239v-709h158zM1106 0v207h-389v67l364 514h117v-503h105v-78h-105v-207h-92zM819 285h287v411zM322 0h-97l793 1434h98z" />
    <glyph glyph-name="onehalf" unicode="&#xbd;" horiz-adv-x="1394" 
d="M471 725v-80h-408v80h158v629h-147v80h239v-709h158zM1339 575q0 -66 -27.5 -121t-90.5 -122l-230 -252h357v-80h-484v59l287 316q52 58 75 100t23 94q0 66 -44.5 109t-112.5 43q-56 0 -100.5 -30t-71.5 -83l-72 39q34 71 98 111.5t148 40.5q108 0 176.5 -64t68.5 -160z
M322 0h-97l793 1434h98z" />
    <glyph glyph-name="threequarters" unicode="&#xbe;" horiz-adv-x="1390" 
d="M299 1444q103 0 171.5 -61t68.5 -152q0 -61 -33.5 -107t-89.5 -67q67 -22 108 -75.5t41 -123.5q0 -96 -72 -160.5t-184 -64.5q-92 0 -162 41.5t-104 111.5l76 41q26 -54 75.5 -85t112.5 -31q73 0 119.5 43.5t46.5 109.5q0 63 -41.5 104.5t-107.5 41.5h-97v77h88
q59 0 97.5 38.5t38.5 97.5q0 62 -44.5 102.5t-111.5 40.5q-56 0 -100 -29.5t-68 -79.5l-76 37q33 69 97.5 109.5t150.5 40.5zM1157 0v207h-389v67l365 514h116v-503h105v-78h-105v-207h-92zM870 285h287v411zM373 0h-97l793 1434h98z" />
    <glyph glyph-name="questiondown" unicode="&#xbf;" horiz-adv-x="1017" 
d="M100 391q0 165 105 281t276 129l6 260h88l7 -348h-60q-146 0 -233.5 -92.5t-87.5 -229.5t97 -229t255 -92q103 0 193.5 47.5t150.5 132.5l80 -55q-74 -102 -185.5 -158.5t-238.5 -56.5q-201 0 -327 118t-126 293zM541 1305q-31 0 -54.5 24t-23.5 55q0 32 23 56t55 24
t54.5 -23.5t22.5 -56.5q0 -31 -23 -55t-54 -24z" />
    <glyph glyph-name="Agrave" unicode="&#xc0;" horiz-adv-x="1308" 
d="M705 1434l583 -1434h-112l-172 426h-703l-170 -426h-111l584 1434h101zM340 520h627l-316 783zM520 1862l225 -246h-108l-252 246h135z" />
    <glyph glyph-name="Aacute" unicode="&#xc1;" horiz-adv-x="1308" 
d="M705 1434l583 -1434h-112l-172 426h-703l-170 -426h-111l584 1434h101zM340 520h627l-316 783zM784 1862h136l-256 -246h-105z" />
    <glyph glyph-name="Acircumflex" unicode="&#xc2;" horiz-adv-x="1308" 
d="M705 1434l583 -1434h-112l-172 426h-703l-170 -426h-111l584 1434h101zM340 520h627l-316 783zM485 1618h-98l215 246h105l215 -246h-99l-168 176z" />
    <glyph glyph-name="Atilde" unicode="&#xc3;" horiz-adv-x="1308" 
d="M705 1434l583 -1434h-112l-172 426h-703l-170 -426h-111l584 1434h101zM340 520h627l-316 783zM539 1849q37 0 83.5 -34.5t87 -68.5t62.5 -34q29 0 48.5 28.5t47.5 110.5l72 -18q-30 -99 -70.5 -150t-97.5 -51q-29 0 -65 21.5t-64 47t-57.5 47t-46.5 21.5
q-29 0 -49 -28.5t-48 -110.5l-71 19q61 200 168 200z" />
    <glyph glyph-name="Adieresis" unicode="&#xc4;" horiz-adv-x="1308" 
d="M705 1434l583 -1434h-112l-172 426h-703l-170 -426h-111l584 1434h101zM340 520h627l-316 783zM498 1663q-31 0 -53.5 23.5t-22.5 54.5q0 32 22.5 55t53.5 23t53 -23t22 -55q0 -31 -22.5 -54.5t-52.5 -23.5zM813 1663q-31 0 -53.5 23.5t-22.5 54.5q0 32 22.5 55t53.5 23
t53.5 -23t22.5 -55q0 -31 -22.5 -54.5t-53.5 -23.5z" />
    <glyph glyph-name="Aring" unicode="&#xc5;" horiz-adv-x="1308" 
d="M705 1434l583 -1434h-112l-172 426h-703l-170 -426h-111l584 1434h101zM340 520h627l-316 783zM655 1585q-84 0 -143 58.5t-59 140.5t59 140t143 58q85 0 144 -58t59 -140t-59.5 -140.5t-143.5 -58.5zM655 1651q57 0 95 38.5t38 94.5t-38 94.5t-95 38.5t-95 -38.5
t-38 -94.5t38 -94.5t95 -38.5z" />
    <glyph glyph-name="AE" unicode="&#xc6;" horiz-adv-x="1878" 
d="M1755 94v-94h-809v403h-540l-244 -403h-121l874 1434h840v-95h-704v-573h684v-94h-684v-578h704zM461 498h485v802z" />
    <glyph glyph-name="Ccedilla" unicode="&#xc7;" horiz-adv-x="1413" 
d="M1315 973h-103q-42 183 -168.5 284t-298.5 101q-102 0 -190 -37t-154.5 -106t-104.5 -175.5t-38 -238.5v-168q0 -132 38 -238.5t104.5 -175.5t154.5 -106t190 -37q172 0 298.5 101t168.5 284h103q-43 -216 -188 -342.5t-345 -138.5l-28 -101q84 -3 134 -48t50 -118
q0 -75 -56.5 -125.5t-142.5 -50.5q-60 0 -113.5 25.5t-84.5 68.5l61 50q51 -70 137 -70q52 0 84.5 28t32.5 74q0 47 -37 76t-100 29h-55l47 162q-117 7 -218 54t-177 129t-119 203t-43 267v168q0 152 46 276.5t126.5 206t188 126t230.5 44.5q212 0 368.5 -127t201.5 -354z
" />
    <glyph glyph-name="Egrave" unicode="&#xc8;" horiz-adv-x="1198" 
d="M205 0v1434h870v-95h-766v-573h746v-94h-746v-578h766v-94h-870zM524 1862l226 -246h-109l-252 246h135z" />
    <glyph glyph-name="Eacute" unicode="&#xc9;" horiz-adv-x="1198" 
d="M205 0v1434h870v-95h-766v-573h746v-94h-746v-578h766v-94h-870zM788 1862h136l-256 -246h-105z" />
    <glyph glyph-name="Ecircumflex" unicode="&#xca;" horiz-adv-x="1198" 
d="M205 0v1434h870v-95h-766v-573h746v-94h-746v-578h766v-94h-870zM489 1618h-98l215 246h105l215 -246h-99l-168 176z" />
    <glyph glyph-name="Edieresis" unicode="&#xcb;" horiz-adv-x="1198" 
d="M205 0v1434h870v-95h-766v-573h746v-94h-746v-578h766v-94h-870zM502 1663q-31 0 -53.5 23.5t-22.5 54.5q0 32 22.5 55t53.5 23t53.5 -23t22.5 -55q0 -31 -22.5 -54.5t-53.5 -23.5zM817 1663q-31 0 -53.5 23.5t-22.5 54.5q0 32 22.5 55t53.5 23t53.5 -23t22.5 -55
q0 -31 -22.5 -54.5t-53.5 -23.5z" />
    <glyph glyph-name="Igrave" unicode="&#xcc;" horiz-adv-x="514" 
d="M309 0h-104v1434h104v-1434zM121 1862l225 -246h-108l-252 246h135z" />
    <glyph glyph-name="Iacute" unicode="&#xcd;" horiz-adv-x="514" 
d="M309 0h-104v1434h104v-1434zM385 1862h135l-256 -246h-104z" />
    <glyph glyph-name="Icircumflex" unicode="&#xce;" horiz-adv-x="514" 
d="M309 0h-104v1434h104v-1434zM88 1618h-98l215 246h104l215 -246h-98l-168 176z" />
    <glyph glyph-name="Idieresis" unicode="&#xcf;" horiz-adv-x="514" 
d="M309 0h-104v1434h104v-1434zM98 1663q-30 0 -52.5 23.5t-22.5 54.5q0 32 22 55t53 23t53.5 -23t22.5 -55q0 -31 -22.5 -54.5t-53.5 -23.5zM414 1663q-31 0 -53.5 23.5t-22.5 54.5q0 32 22.5 55t53.5 23t53 -23t22 -55q0 -31 -22.5 -54.5t-52.5 -23.5z" />
    <glyph glyph-name="Eth" unicode="&#xd0;" horiz-adv-x="1447" 
d="M0 672v92h205v670h487q292 0 452.5 -169.5t160.5 -467.5v-164q0 -297 -159.5 -465t-453.5 -168h-487v672h-205zM686 1339h-377v-575h330v-92h-330v-578h377q251 0 382.5 140.5t131.5 398.5v164q0 255 -132.5 398.5t-381.5 143.5z" />
    <glyph glyph-name="Ntilde" unicode="&#xd1;" horiz-adv-x="1497" 
d="M305 0h-100v1434h121l870 -1289l-4 1289h100v-1434h-118l-873 1292zM633 1849q37 0 83.5 -34.5t87 -68.5t62.5 -34q29 0 49 28.5t48 110.5l71 -18q-30 -99 -70.5 -150t-97.5 -51q-29 0 -65 21.5t-64 47t-57.5 47t-46.5 21.5q-29 0 -48.5 -28.5t-47.5 -110.5l-72 19
q61 200 168 200z" />
    <glyph glyph-name="Ograve" unicode="&#xd2;" horiz-adv-x="1503" 
d="M143 801q0 296 168 474.5t441 178.5t440.5 -178.5t167.5 -474.5v-168q0 -296 -167.5 -474.5t-440.5 -178.5t-441 178.5t-168 474.5v168zM248 791v-148q0 -268 136.5 -417.5t367.5 -149.5t367 149.5t136 417.5v148q0 268 -136 417.5t-367 149.5t-367.5 -149.5
t-136.5 -417.5zM616 1862l226 -246h-109l-252 246h135z" />
    <glyph glyph-name="Oacute" unicode="&#xd3;" horiz-adv-x="1503" 
d="M143 801q0 296 168 474.5t441 178.5t440.5 -178.5t167.5 -474.5v-168q0 -296 -167.5 -474.5t-440.5 -178.5t-441 178.5t-168 474.5v168zM248 791v-148q0 -268 136.5 -417.5t367.5 -149.5t367 149.5t136 417.5v148q0 268 -136 417.5t-367 149.5t-367.5 -149.5
t-136.5 -417.5zM881 1862h135l-256 -246h-105z" />
    <glyph glyph-name="Ocircumflex" unicode="&#xd4;" horiz-adv-x="1503" 
d="M143 801q0 296 168 474.5t441 178.5t440.5 -178.5t167.5 -474.5v-168q0 -296 -167.5 -474.5t-440.5 -178.5t-441 178.5t-168 474.5v168zM248 791v-148q0 -268 136.5 -417.5t367.5 -149.5t367 149.5t136 417.5v148q0 268 -136 417.5t-367 149.5t-367.5 -149.5
t-136.5 -417.5zM582 1618h-99l215 246h105l215 -246h-98l-168 176z" />
    <glyph glyph-name="Otilde" unicode="&#xd5;" horiz-adv-x="1503" 
d="M143 801q0 296 168 474.5t441 178.5t440.5 -178.5t167.5 -474.5v-168q0 -296 -167.5 -474.5t-440.5 -178.5t-441 178.5t-168 474.5v168zM248 791v-148q0 -268 136.5 -417.5t367.5 -149.5t367 149.5t136 417.5v148q0 268 -136 417.5t-367 149.5t-367.5 -149.5
t-136.5 -417.5zM635 1849q37 0 83.5 -34.5t87 -68.5t62.5 -34q29 0 49 28.5t48 110.5l71 -18q-30 -99 -70.5 -150t-97.5 -51q-29 0 -65 21.5t-64 47t-57.5 47t-46.5 21.5q-29 0 -48.5 -28.5t-47.5 -110.5l-72 19q61 200 168 200z" />
    <glyph glyph-name="Odieresis" unicode="&#xd6;" horiz-adv-x="1503" 
d="M143 801q0 296 168 474.5t441 178.5t440.5 -178.5t167.5 -474.5v-168q0 -296 -167.5 -474.5t-440.5 -178.5t-441 178.5t-168 474.5v168zM248 791v-148q0 -268 136.5 -417.5t367.5 -149.5t367 149.5t136 417.5v148q0 268 -136 417.5t-367 149.5t-367.5 -149.5
t-136.5 -417.5zM594 1663q-31 0 -53.5 23.5t-22.5 54.5q0 32 22.5 55t53.5 23t53.5 -23t22.5 -55q0 -31 -22.5 -54.5t-53.5 -23.5zM909 1663q-30 0 -52.5 23.5t-22.5 54.5q0 32 22 55t53 23t53.5 -23t22.5 -55q0 -31 -22.5 -54.5t-53.5 -23.5z" />
    <glyph glyph-name="multiply" unicode="&#xd7;" horiz-adv-x="1075" 
d="M215 348l-61 62l321 325l-321 326l63 63l322 -325l319 325l62 -61l-322 -326l324 -327l-64 -64l-321 328z" />
    <glyph glyph-name="Oslash" unicode="&#xd8;" horiz-adv-x="1503" 
d="M135 0l148 190q-140 177 -140 443v168q0 296 168 474.5t441 178.5q243 0 405 -143l96 123h115l-147 -191q139 -175 139 -442v-168q0 -296 -167.5 -474.5t-440.5 -178.5q-244 0 -406 143l-96 -123h-115zM248 791v-148q0 -232 100 -371l748 959q-130 127 -344 127
q-231 0 -367.5 -149.5t-136.5 -417.5zM1255 791q0 231 -100 370l-747 -958q130 -127 344 -127q231 0 367 149.5t136 417.5v148z" />
    <glyph glyph-name="Ugrave" unicode="&#xd9;" horiz-adv-x="1435" 
d="M289 528q0 -200 117.5 -324t298.5 -124q178 0 299.5 124.5t121.5 323.5v906h105v-1434h-105v258q-55 -115 -166.5 -194.5t-261.5 -79.5q-106 0 -200.5 38.5t-163.5 107t-109.5 169.5t-40.5 221v914h105v-906zM573 1862l226 -246h-109l-252 246h135z" />
    <glyph glyph-name="Uacute" unicode="&#xda;" horiz-adv-x="1435" 
d="M289 528q0 -200 117.5 -324t298.5 -124q178 0 299.5 124.5t121.5 323.5v906h105v-1434h-105v258q-55 -115 -166.5 -194.5t-261.5 -79.5q-106 0 -200.5 38.5t-163.5 107t-109.5 169.5t-40.5 221v914h105v-906zM838 1862h135l-256 -246h-105z" />
    <glyph glyph-name="Ucircumflex" unicode="&#xdb;" horiz-adv-x="1435" 
d="M289 528q0 -200 117.5 -324t298.5 -124q178 0 299.5 124.5t121.5 323.5v906h105v-1434h-105v258q-55 -115 -166.5 -194.5t-261.5 -79.5q-106 0 -200.5 38.5t-163.5 107t-109.5 169.5t-40.5 221v914h105v-906zM539 1618h-99l215 246h105l215 -246h-98l-168 176z" />
    <glyph glyph-name="Udieresis" unicode="&#xdc;" horiz-adv-x="1435" 
d="M289 528q0 -200 117.5 -324t298.5 -124q178 0 299.5 124.5t121.5 323.5v906h105v-1434h-105v258q-55 -115 -166.5 -194.5t-261.5 -79.5q-106 0 -200.5 38.5t-163.5 107t-109.5 169.5t-40.5 221v914h105v-906zM551 1663q-31 0 -53.5 23.5t-22.5 54.5q0 32 22.5 55t53.5 23
t53.5 -23t22.5 -55q0 -31 -22.5 -54.5t-53.5 -23.5zM866 1663q-30 0 -52.5 23.5t-22.5 54.5q0 32 22 55t53 23t53.5 -23t22.5 -55q0 -31 -22.5 -54.5t-53.5 -23.5z" />
    <glyph glyph-name="Yacute" unicode="&#xdd;" horiz-adv-x="1210" 
d="M657 0h-104v604l-543 830h119l479 -736l477 736h115l-543 -832v-602zM735 1862h135l-256 -246h-104z" />
    <glyph glyph-name="Thorn" unicode="&#xde;" horiz-adv-x="1167" 
d="M309 1434v-308h357q181 0 301 -119.5t120 -291.5q0 -171 -120 -288.5t-301 -117.5h-357v-309h-104v1434h104zM666 1032h-357v-631h357q137 0 227 91t90 223t-90.5 224.5t-226.5 92.5z" />
    <glyph glyph-name="germandbls" unicode="&#xdf;" horiz-adv-x="1310" 
d="M743 817q-54 -35 -76 -62t-22 -61q0 -47 40 -73.5t124 -51.5l143 -43q120 -36 185 -102.5t65 -161.5q0 -125 -89.5 -202.5t-235.5 -77.5q-151 0 -252.5 80.5t-120.5 203.5h98q14 -84 89.5 -140t189.5 -56q102 0 162.5 51.5t60.5 130.5q0 70 -44.5 112t-133.5 68l-144 43
q-115 34 -175 83.5t-60 123.5q0 68 29.5 112t109.5 97l133 88q60 40 89.5 83.5t29.5 102.5q0 111 -87 184.5t-220 73.5q-148 0 -241 -97.5t-93 -254.5v-1071h-100v1071q0 200 121.5 321t314.5 121q174 0 288.5 -97.5t114.5 -248.5q0 -93 -38.5 -150.5t-129.5 -117.5z" />
    <glyph glyph-name="agrave" unicode="&#xe0;" horiz-adv-x="1081" 
d="M92 291q0 137 86 219t236 88l364 16v131q0 119 -66 185.5t-184 66.5q-176 0 -295 -131l-65 70q88 81 173.5 116t190.5 35q160 0 253.5 -88t93.5 -237v-606q0 -31 18.5 -47.5t52.5 -16.5h51v-92h-65q-72 0 -115 38.5t-43 104.5v39q-44 -91 -135 -145.5t-197 -54.5
q-154 0 -254 87t-100 222zM190 295q0 -97 73.5 -160t185.5 -63q137 0 233 83t96 203v164l-356 -14q-109 -4 -170.5 -61t-61.5 -152zM381 1501l225 -246h-108l-252 246h135z" />
    <glyph glyph-name="aacute" unicode="&#xe1;" horiz-adv-x="1081" 
d="M92 291q0 137 86 219t236 88l364 16v131q0 119 -66 185.5t-184 66.5q-176 0 -295 -131l-65 70q88 81 173.5 116t190.5 35q160 0 253.5 -88t93.5 -237v-606q0 -31 18.5 -47.5t52.5 -16.5h51v-92h-65q-72 0 -115 38.5t-43 104.5v39q-44 -91 -135 -145.5t-197 -54.5
q-154 0 -254 87t-100 222zM190 295q0 -97 73.5 -160t185.5 -63q137 0 233 83t96 203v164l-356 -14q-109 -4 -170.5 -61t-61.5 -152zM645 1501h135l-256 -246h-104z" />
    <glyph glyph-name="acircumflex" unicode="&#xe2;" horiz-adv-x="1081" 
d="M92 291q0 137 86 219t236 88l364 16v131q0 119 -66 185.5t-184 66.5q-176 0 -295 -131l-65 70q88 81 173.5 116t190.5 35q160 0 253.5 -88t93.5 -237v-606q0 -31 18.5 -47.5t52.5 -16.5h51v-92h-65q-72 0 -115 38.5t-43 104.5v39q-44 -91 -135 -145.5t-197 -54.5
q-154 0 -254 87t-100 222zM190 295q0 -97 73.5 -160t185.5 -63q137 0 233 83t96 203v164l-356 -14q-109 -4 -170.5 -61t-61.5 -152zM346 1257h-98l215 246h104l215 -246h-98l-168 177z" />
    <glyph glyph-name="atilde" unicode="&#xe3;" horiz-adv-x="1081" 
d="M92 291q0 137 86 219t236 88l364 16v131q0 119 -66 185.5t-184 66.5q-176 0 -295 -131l-65 70q88 81 173.5 116t190.5 35q160 0 253.5 -88t93.5 -237v-606q0 -31 18.5 -47.5t52.5 -16.5h51v-92h-65q-72 0 -115 38.5t-43 104.5v39q-44 -91 -135 -145.5t-197 -54.5
q-154 0 -254 87t-100 222zM190 295q0 -97 73.5 -160t185.5 -63q137 0 233 83t96 203v164l-356 -14q-109 -4 -170.5 -61t-61.5 -152zM399 1489q37 0 83.5 -34.5t87.5 -68.5t63 -34q29 0 48.5 28.5t47.5 110.5l72 -18q-30 -99 -70.5 -150t-97.5 -51q-29 0 -65.5 21.5t-64 47
t-57.5 47t-47 21.5q-29 0 -48.5 -28.5t-47.5 -110.5l-72 18q30 99 70.5 150t97.5 51z" />
    <glyph glyph-name="adieresis" unicode="&#xe4;" horiz-adv-x="1081" 
d="M92 291q0 137 86 219t236 88l364 16v131q0 119 -66 185.5t-184 66.5q-176 0 -295 -131l-65 70q88 81 173.5 116t190.5 35q160 0 253.5 -88t93.5 -237v-606q0 -31 18.5 -47.5t52.5 -16.5h51v-92h-65q-72 0 -115 38.5t-43 104.5v39q-44 -91 -135 -145.5t-197 -54.5
q-154 0 -254 87t-100 222zM190 295q0 -97 73.5 -160t185.5 -63q137 0 233 83t96 203v164l-356 -14q-109 -4 -170.5 -61t-61.5 -152zM358 1303q-31 0 -53 23t-22 54q0 32 22 55t53 23t53.5 -23t22.5 -55q0 -31 -22.5 -54t-53.5 -23zM674 1303q-31 0 -53.5 23t-22.5 54
q0 32 22.5 55t53.5 23t53.5 -23t22.5 -55q0 -31 -22.5 -54t-53.5 -23z" />
    <glyph glyph-name="aring" unicode="&#xe5;" horiz-adv-x="1081" 
d="M92 291q0 137 86 219t236 88l364 16v131q0 119 -66 185.5t-184 66.5q-176 0 -295 -131l-65 70q88 81 173.5 116t190.5 35q160 0 253.5 -88t93.5 -237v-606q0 -31 18.5 -47.5t52.5 -16.5h51v-92h-65q-72 0 -115 38.5t-43 104.5v39q-44 -91 -135 -145.5t-197 -54.5
q-154 0 -254 87t-100 222zM190 295q0 -97 73.5 -160t185.5 -63q137 0 233 83t96 203v164l-356 -14q-109 -4 -170.5 -61t-61.5 -152zM516 1225q-85 0 -144 58t-59 140t59.5 140.5t143.5 58.5t143.5 -58.5t59.5 -140.5t-59 -140t-144 -58zM516 1290q57 0 95 38.5t38 94.5
t-38 94.5t-95 38.5t-95 -38.5t-38 -94.5t38 -94.5t95 -38.5z" />
    <glyph glyph-name="ae" unicode="&#xe6;" horiz-adv-x="1757" 
d="M1610 180q-146 -198 -387 -198q-133 0 -237.5 73.5t-154.5 198.5q-39 -118 -141.5 -195t-243.5 -77q-153 0 -253.5 86.5t-100.5 222.5t88.5 214.5t233.5 84.5l364 16v139q0 119 -66 185.5t-184 66.5q-175 0 -295 -131l-65 70q87 78 171 114.5t193 36.5q124 0 209.5 -57.5
t114.5 -157.5q56 101 150 159.5t208 58.5q178 0 297 -129t119 -326v-119h-751v-63q0 -166 98.5 -273.5t245.5 -107.5q185 0 307 164zM879 618v-12h649v23q0 161 -89 265.5t-222 104.5q-144 0 -241 -107.5t-97 -273.5zM190 295q0 -97 73.5 -160t185.5 -63q138 0 233.5 84
t95.5 202v156l-356 -14q-106 -5 -169 -58t-63 -147z" />
    <glyph glyph-name="ccedilla" unicode="&#xe7;" horiz-adv-x="1093" 
d="M764 -287q0 -75 -56.5 -125.5t-142.5 -50.5q-60 0 -113.5 25.5t-84.5 68.5l61 50q51 -70 137 -70q52 0 84.5 28t32.5 74q0 47 -37 76t-100 29h-56l48 168q-173 12 -286.5 139.5t-113.5 323.5v176q0 207 123 336t311 129q153 0 265.5 -89t150.5 -243h-104
q-34 113 -116.5 177t-195.5 64q-149 0 -241 -107t-92 -280v-151q0 -173 92 -280t241 -107q114 0 197 64t117 177h102q-35 -142 -137 -230t-242 -99l-28 -107q84 -3 134 -48t50 -118z" />
    <glyph glyph-name="egrave" unicode="&#xe8;" horiz-adv-x="1110" 
d="M137 449v176q0 202 123 333.5t311 131.5q179 0 296.5 -128.5t117.5 -326.5v-127h-745v-55q0 -165 97 -272t243 -107q188 0 305 164l82 -56q-147 -198 -387 -198q-188 0 -315.5 132.5t-127.5 332.5zM240 621v-21h645v31q0 160 -90 264t-226 104q-143 0 -236 -106.5
t-93 -271.5zM440 1501l226 -246h-109l-252 246h135z" />
    <glyph glyph-name="eacute" unicode="&#xe9;" horiz-adv-x="1110" 
d="M137 449v176q0 202 123 333.5t311 131.5q179 0 296.5 -128.5t117.5 -326.5v-127h-745v-55q0 -165 97 -272t243 -107q188 0 305 164l82 -56q-147 -198 -387 -198q-188 0 -315.5 132.5t-127.5 332.5zM240 621v-21h645v31q0 160 -90 264t-226 104q-143 0 -236 -106.5
t-93 -271.5zM705 1501h135l-256 -246h-105z" />
    <glyph glyph-name="ecircumflex" unicode="&#xea;" horiz-adv-x="1110" 
d="M137 449v176q0 202 123 333.5t311 131.5q179 0 296.5 -128.5t117.5 -326.5v-127h-745v-55q0 -165 97 -272t243 -107q188 0 305 164l82 -56q-147 -198 -387 -198q-188 0 -315.5 132.5t-127.5 332.5zM240 621v-21h645v31q0 160 -90 264t-226 104q-143 0 -236 -106.5
t-93 -271.5zM406 1257h-99l215 246h105l215 -246h-99l-168 177z" />
    <glyph glyph-name="edieresis" unicode="&#xeb;" horiz-adv-x="1110" 
d="M137 449v176q0 202 123 333.5t311 131.5q179 0 296.5 -128.5t117.5 -326.5v-127h-745v-55q0 -165 97 -272t243 -107q188 0 305 164l82 -56q-147 -198 -387 -198q-188 0 -315.5 132.5t-127.5 332.5zM240 621v-21h645v31q0 160 -90 264t-226 104q-143 0 -236 -106.5
t-93 -271.5zM418 1303q-31 0 -53.5 23t-22.5 54q0 32 22.5 55t53.5 23t53.5 -23t22.5 -55q0 -31 -22.5 -54t-53.5 -23zM733 1303q-31 0 -53.5 23t-22.5 54q0 32 22.5 55t53.5 23t53.5 -23t22.5 -55q0 -31 -22.5 -54t-53.5 -23z" />
    <glyph glyph-name="igrave" unicode="&#xec;" horiz-adv-x="493" 
d="M297 1073v-1073h-100v1073h100zM111 1501l225 -246h-109l-252 246h136z" />
    <glyph glyph-name="iacute" unicode="&#xed;" horiz-adv-x="493" 
d="M297 1073v-1073h-100v1073h100zM375 1501h135l-256 -246h-104z" />
    <glyph glyph-name="icircumflex" unicode="&#xee;" horiz-adv-x="493" 
d="M297 1073v-1073h-100v1073h100zM76 1257h-99l216 246h104l215 -246h-98l-168 177z" />
    <glyph glyph-name="idieresis" unicode="&#xef;" horiz-adv-x="493" 
d="M297 1073v-1073h-100v1073h100zM88 1303q-31 0 -53.5 23t-22.5 54q0 32 22.5 55t53.5 23t53.5 -23t22.5 -55q0 -31 -22.5 -54t-53.5 -23zM403 1303q-31 0 -53 23t-22 54q0 32 22 55t53 23t53.5 -23t22.5 -55q0 -31 -22.5 -54t-53.5 -23z" />
    <glyph glyph-name="eth" unicode="&#xf0;" horiz-adv-x="1163" 
d="M137 449v153q0 207 123.5 337t310.5 130q114 0 201 -51.5t139 -145.5q-54 268 -215 435l-213 -131l-45 79l189 117q-107 83 -224 123l37 80q151 -58 267 -154l245 152l43 -80l-221 -137q252 -267 252 -752v-155q0 -205 -126.5 -335t-317.5 -130q-192 0 -318.5 130
t-126.5 335zM926 461v131q0 173 -95 280t-249 107q-155 0 -249.5 -106.5t-94.5 -280.5v-131q0 -174 94.5 -280.5t249.5 -106.5q154 0 249 107t95 280z" />
    <glyph glyph-name="ntilde" unicode="&#xf1;" 
d="M1024 702v-702h-100v688q0 135 -82 222t-215 87q-144 0 -237 -93.5t-93 -235.5v-668h-100v1073h100v-215q38 106 133.5 169t218.5 63q165 0 270 -111.5t105 -276.5zM494 1489q37 0 83.5 -34.5t87 -68.5t62.5 -34q29 0 48.5 28.5t47.5 110.5l72 -18q-30 -99 -70.5 -150
t-97.5 -51q-29 0 -65 21.5t-64 47t-57.5 47t-46.5 21.5q-29 0 -49 -28.5t-48 -110.5l-71 18q30 99 70.5 150t97.5 51z" />
    <glyph glyph-name="ograve" unicode="&#xf2;" horiz-adv-x="1163" 
d="M1026 449q0 -207 -126 -336t-318 -129t-318.5 129t-126.5 336v176q0 207 126.5 336t318.5 129t318 -129t126 -336v-176zM926 612q0 173 -95 280t-249 107t-249 -107t-95 -280v-151q0 -173 95 -280t249 -107t249 107t95 280v151zM446 1501l226 -246h-109l-252 246h135z
" />
    <glyph glyph-name="oacute" unicode="&#xf3;" horiz-adv-x="1163" 
d="M1026 449q0 -207 -126 -336t-318 -129t-318.5 129t-126.5 336v176q0 207 126.5 336t318.5 129t318 -129t126 -336v-176zM926 612q0 173 -95 280t-249 107t-249 -107t-95 -280v-151q0 -173 95 -280t249 -107t249 107t95 280v151zM711 1501h135l-256 -246h-105z" />
    <glyph glyph-name="ocircumflex" unicode="&#xf4;" horiz-adv-x="1163" 
d="M1026 449q0 -207 -126 -336t-318 -129t-318.5 129t-126.5 336v176q0 207 126.5 336t318.5 129t318 -129t126 -336v-176zM926 612q0 173 -95 280t-249 107t-249 -107t-95 -280v-151q0 -173 95 -280t249 -107t249 107t95 280v151zM412 1257h-99l215 246h105l215 -246h-98
l-168 177z" />
    <glyph glyph-name="otilde" unicode="&#xf5;" horiz-adv-x="1163" 
d="M1026 449q0 -207 -126 -336t-318 -129t-318.5 129t-126.5 336v176q0 207 126.5 336t318.5 129t318 -129t126 -336v-176zM926 612q0 173 -95 280t-249 107t-249 -107t-95 -280v-151q0 -173 95 -280t249 -107t249 107t95 280v151zM465 1489q37 0 83.5 -34.5t87 -68.5
t62.5 -34q29 0 49 28.5t48 110.5l71 -18q-30 -99 -70.5 -150t-97.5 -51q-29 0 -65 21.5t-64 47t-57.5 47t-46.5 21.5q-29 0 -48.5 -28.5t-47.5 -110.5l-72 18q30 99 70.5 150t97.5 51z" />
    <glyph glyph-name="odieresis" unicode="&#xf6;" horiz-adv-x="1163" 
d="M1026 449q0 -207 -126 -336t-318 -129t-318.5 129t-126.5 336v176q0 207 126.5 336t318.5 129t318 -129t126 -336v-176zM926 612q0 173 -95 280t-249 107t-249 -107t-95 -280v-151q0 -173 95 -280t249 -107t249 107t95 280v151zM424 1303q-31 0 -53.5 23t-22.5 54
q0 32 22.5 55t53.5 23t53.5 -23t22.5 -55q0 -31 -22.5 -54t-53.5 -23zM739 1303q-31 0 -53 23t-22 54q0 32 22 55t53 23t53.5 -23t22.5 -55q0 -31 -22.5 -54t-53.5 -23z" />
    <glyph glyph-name="divide" unicode="&#xf7;" horiz-adv-x="1124" 
d="M563 1157q31 0 54.5 -24.5t23.5 -55.5q0 -33 -23.5 -56.5t-54.5 -23.5t-54.5 23.5t-23.5 56.5q0 31 23.5 55.5t54.5 24.5zM971 686h-817v90h817v-90zM563 442q31 0 54.5 -24.5t23.5 -55.5q0 -33 -23.5 -56t-54.5 -23t-54.5 23t-23.5 56q0 31 23.5 55.5t54.5 24.5z" />
    <glyph glyph-name="oslash" unicode="&#xf8;" horiz-adv-x="1171" 
d="M102 0l127 158q-88 125 -88 291v176q0 207 126.5 336t318.5 129q182 0 303 -115l80 98h108l-131 -164q84 -120 84 -284v-176q0 -207 -126 -336t-318 -129q-178 0 -297 110l-76 -94h-111zM242 461q0 -132 53 -221l532 659q-94 100 -241 100q-154 0 -249 -107t-95 -280
v-151zM930 612q0 122 -49 215l-533 -659q94 -94 238 -94q154 0 249 107t95 280v151z" />
    <glyph glyph-name="ugrave" unicode="&#xf9;" 
d="M197 371v702h100v-688q0 -135 82.5 -222t214.5 -87q144 0 237 94t93 236v667h100v-1073h-100v215q-38 -106 -133.5 -168.5t-217.5 -62.5q-166 0 -271 111t-105 276zM475 1501l225 -246h-108l-252 246h135z" />
    <glyph glyph-name="uacute" unicode="&#xfa;" 
d="M197 371v702h100v-688q0 -135 82.5 -222t214.5 -87q144 0 237 94t93 236v667h100v-1073h-100v215q-38 -106 -133.5 -168.5t-217.5 -62.5q-166 0 -271 111t-105 276zM739 1501h135l-256 -246h-104z" />
    <glyph glyph-name="ucircumflex" unicode="&#xfb;" 
d="M197 371v702h100v-688q0 -135 82.5 -222t214.5 -87q144 0 237 94t93 236v667h100v-1073h-100v215q-38 -106 -133.5 -168.5t-217.5 -62.5q-166 0 -271 111t-105 276zM440 1257h-98l215 246h105l215 -246h-99l-168 177z" />
    <glyph glyph-name="udieresis" unicode="&#xfc;" 
d="M197 371v702h100v-688q0 -135 82.5 -222t214.5 -87q144 0 237 94t93 236v667h100v-1073h-100v215q-38 -106 -133.5 -168.5t-217.5 -62.5q-166 0 -271 111t-105 276zM453 1303q-31 0 -53.5 23t-22.5 54q0 32 22.5 55t53.5 23t53 -23t22 -55q0 -31 -22 -54t-53 -23z
M768 1303q-31 0 -53.5 23t-22.5 54q0 32 22.5 55t53.5 23t53.5 -23t22.5 -55q0 -31 -22.5 -54t-53.5 -23z" />
    <glyph glyph-name="yacute" unicode="&#xfd;" horiz-adv-x="980" 
d="M336 -238l106 267l-428 1044h103l379 -921l370 921h103l-537 -1321q-34 -87 -87.5 -136.5t-139.5 -49.5h-129v92h114q102 0 146 104zM625 1501h135l-256 -246h-105z" />
    <glyph glyph-name="thorn" unicode="&#xfe;" 
d="M197 1495h100v-637q50 109 146 170.5t221 61.5q182 0 300.5 -130t118.5 -335v-176q0 -206 -117.5 -335.5t-301.5 -129.5q-125 0 -221 61.5t-146 169.5v-649h-100v1929zM297 461q0 -173 94 -280t248 -107q155 0 249.5 106.5t94.5 280.5v151q0 174 -94.5 280.5
t-249.5 106.5q-154 0 -248 -107t-94 -280v-151z" />
    <glyph glyph-name="ydieresis" unicode="&#xff;" horiz-adv-x="980" 
d="M336 -238l106 267l-428 1044h103l379 -921l370 921h103l-537 -1321q-34 -87 -87.5 -136.5t-139.5 -49.5h-129v92h114q102 0 146 104zM338 1303q-31 0 -53.5 23t-22.5 54q0 32 22.5 55t53.5 23t53.5 -23t22.5 -55q0 -31 -22.5 -54t-53.5 -23zM653 1303q-31 0 -53 23
t-22 54q0 32 22 55t53 23t53.5 -23t22.5 -55q0 -31 -22.5 -54t-53.5 -23z" />
    <glyph glyph-name="Amacron" unicode="&#x100;" horiz-adv-x="1308" 
d="M705 1434l583 -1434h-112l-172 426h-703l-170 -426h-111l584 1434h101zM340 520h627l-316 783zM899 1761v-80h-489v80h489z" />
    <glyph glyph-name="amacron" unicode="&#x101;" horiz-adv-x="1081" 
d="M92 291q0 137 86 219t236 88l364 16v131q0 119 -66 185.5t-184 66.5q-176 0 -295 -131l-65 70q88 81 173.5 116t190.5 35q160 0 253.5 -88t93.5 -237v-606q0 -31 18.5 -47.5t52.5 -16.5h51v-92h-65q-72 0 -115 38.5t-43 104.5v39q-44 -91 -135 -145.5t-197 -54.5
q-154 0 -254 87t-100 222zM190 295q0 -97 73.5 -160t185.5 -63q137 0 233 83t96 203v164l-356 -14q-109 -4 -170.5 -61t-61.5 -152zM760 1401v-80h-490v80h490z" />
    <glyph glyph-name="Abreve" unicode="&#x102;" horiz-adv-x="1308" 
d="M705 1434l583 -1434h-112l-172 426h-703l-170 -426h-111l584 1434h101zM340 520h627l-316 783zM655 1712q146 0 185 158l80 -25q-23 -101 -96.5 -159t-168.5 -58t-168 57t-96 160l80 25q39 -158 184 -158z" />
    <glyph glyph-name="abreve" unicode="&#x103;" horiz-adv-x="1081" 
d="M92 291q0 137 86 219t236 88l364 16v131q0 119 -66 185.5t-184 66.5q-176 0 -295 -131l-65 70q88 81 173.5 116t190.5 35q160 0 253.5 -88t93.5 -237v-606q0 -31 18.5 -47.5t52.5 -16.5h51v-92h-65q-72 0 -115 38.5t-43 104.5v39q-44 -91 -135 -145.5t-197 -54.5
q-154 0 -254 87t-100 222zM190 295q0 -97 73.5 -160t185.5 -63q137 0 233 83t96 203v164l-356 -14q-109 -4 -170.5 -61t-61.5 -152zM516 1352q146 0 184 157l80 -24q-23 -102 -96 -159.5t-168 -57.5t-168 57t-96 160l80 24q38 -157 184 -157z" />
    <glyph glyph-name="Aogonek" unicode="&#x104;" horiz-adv-x="1308" 
d="M1288 0q-95 -89 -130.5 -152t-35.5 -120q0 -50 29 -78.5t80 -28.5q45 0 72 8l10 -71q-53 -11 -90 -11q-89 0 -136 45.5t-47 120.5q0 68 33.5 134t120.5 153h-18l-172 426h-703l-170 -426h-111l584 1434h101zM340 520h627l-316 783z" />
    <glyph glyph-name="aogonek" unicode="&#x105;" horiz-adv-x="1081" 
d="M92 291q0 141 88.5 221t233.5 86l364 16v131q0 119 -66 185.5t-184 66.5q-175 0 -295 -131l-65 70q87 78 171 114.5t193 36.5q160 0 253.5 -88t93.5 -237v-606q0 -30 18 -47t53 -17h51v-92q-95 -88 -130 -151t-35 -121q0 -50 28.5 -78.5t79.5 -28.5q45 0 72 8l10 -71
q-53 -11 -90 -11q-89 0 -135.5 45.5t-46.5 120.5q0 69 33 135t120 154q-60 8 -94.5 45.5t-34.5 95.5v31q-48 -88 -136 -140t-196 -52q-153 0 -253.5 86.5t-100.5 222.5zM190 295q0 -97 73.5 -160t185.5 -63q138 0 233.5 84t95.5 202v164l-356 -14q-106 -5 -169 -59.5
t-63 -153.5z" />
    <glyph glyph-name="Cacute" unicode="&#x106;" horiz-adv-x="1402" 
d="M1305 973h-103q-42 183 -168.5 284t-298.5 101q-102 0 -190 -37t-154.5 -106t-104.5 -175.5t-38 -238.5v-168q0 -132 38 -238.5t104.5 -175.5t154.5 -106t190 -37q172 0 298.5 101t168.5 284h103q-45 -227 -201.5 -354t-368.5 -127q-123 0 -231 44.5t-188 126t-126.5 206
t-46.5 276.5v168q0 152 46.5 276.5t126.5 206t188 126t231 44.5q212 0 368.5 -127t201.5 -354zM866 1862h135l-256 -246h-104z" />
    <glyph glyph-name="cacute" unicode="&#x107;" horiz-adv-x="1093" 
d="M571 -16q-187 0 -310.5 129t-123.5 336v176q0 207 123 336t311 129q153 0 265.5 -89t150.5 -243h-104q-34 113 -116.5 177t-195.5 64q-149 0 -241 -107t-92 -280v-151q0 -173 92 -280t241 -107q114 0 197 64t117 177h102q-38 -152 -151 -241.5t-265 -89.5zM698 1501h136
l-256 -246h-105z" />
    <glyph glyph-name="Ccircumflex" unicode="&#x108;" horiz-adv-x="1402" 
d="M1305 973h-103q-42 183 -168.5 284t-298.5 101q-102 0 -190 -37t-154.5 -106t-104.5 -175.5t-38 -238.5v-168q0 -132 38 -238.5t104.5 -175.5t154.5 -106t190 -37q172 0 298.5 101t168.5 284h103q-45 -227 -201.5 -354t-368.5 -127q-123 0 -231 44.5t-188 126t-126.5 206
t-46.5 276.5v168q0 152 46.5 276.5t126.5 206t188 126t231 44.5q212 0 368.5 -127t201.5 -354zM567 1618h-98l215 246h104l216 -246h-99l-168 176z" />
    <glyph glyph-name="ccircumflex" unicode="&#x109;" horiz-adv-x="1093" 
d="M571 -16q-187 0 -310.5 129t-123.5 336v176q0 207 123 336t311 129q153 0 265.5 -89t150.5 -243h-104q-34 113 -116.5 177t-195.5 64q-149 0 -241 -107t-92 -280v-151q0 -173 92 -280t241 -107q114 0 197 64t117 177h102q-38 -152 -151 -241.5t-265 -89.5zM399 1257h-98
l215 246h105l215 -246h-99l-168 177z" />
    <glyph glyph-name="Cdotaccent" unicode="&#x10a;" horiz-adv-x="1402" 
d="M1305 973h-103q-42 183 -168.5 284t-298.5 101q-102 0 -190 -37t-154.5 -106t-104.5 -175.5t-38 -238.5v-168q0 -132 38 -238.5t104.5 -175.5t154.5 -106t190 -37q172 0 298.5 101t168.5 284h103q-45 -227 -201.5 -354t-368.5 -127q-123 0 -231 44.5t-188 126t-126.5 206
t-46.5 276.5v168q0 152 46.5 276.5t126.5 206t188 126t231 44.5q212 0 368.5 -127t201.5 -354zM737 1663q-30 0 -52.5 23.5t-22.5 54.5q0 32 22 55t53 23t53.5 -23t22.5 -55q0 -31 -22.5 -54.5t-53.5 -23.5z" />
    <glyph glyph-name="cdotaccent" unicode="&#x10b;" horiz-adv-x="1093" 
d="M571 -16q-187 0 -310.5 129t-123.5 336v176q0 207 123 336t311 129q153 0 265.5 -89t150.5 -243h-104q-34 113 -116.5 177t-195.5 64q-149 0 -241 -107t-92 -280v-151q0 -173 92 -280t241 -107q114 0 197 64t117 177h102q-38 -152 -151 -241.5t-265 -89.5zM569 1303
q-31 0 -53 23t-22 54q0 32 22 55t53 23t53.5 -23t22.5 -55q0 -31 -22.5 -54t-53.5 -23z" />
    <glyph glyph-name="Ccaron" unicode="&#x10c;" horiz-adv-x="1402" 
d="M1305 973h-103q-42 183 -168.5 284t-298.5 101q-102 0 -190 -37t-154.5 -106t-104.5 -175.5t-38 -238.5v-168q0 -132 38 -238.5t104.5 -175.5t154.5 -106t190 -37q172 0 298.5 101t168.5 284h103q-45 -227 -201.5 -354t-368.5 -127q-123 0 -231 44.5t-188 126t-126.5 206
t-46.5 276.5v168q0 152 46.5 276.5t126.5 206t188 126t231 44.5q212 0 368.5 -127t201.5 -354zM909 1862h99l-215 -246h-105l-215 246h98l170 -176z" />
    <glyph glyph-name="ccaron" unicode="&#x10d;" horiz-adv-x="1093" 
d="M571 -16q-187 0 -310.5 129t-123.5 336v176q0 207 123 336t311 129q153 0 265.5 -89t150.5 -243h-104q-34 113 -116.5 177t-195.5 64q-149 0 -241 -107t-92 -280v-151q0 -173 92 -280t241 -107q114 0 197 64t117 177h102q-38 -152 -151 -241.5t-265 -89.5zM741 1501h99
l-215 -246h-105l-215 246h98l170 -176z" />
    <glyph glyph-name="Dcaron" unicode="&#x10e;" horiz-adv-x="1447" 
d="M1305 633q0 -297 -159.5 -465t-453.5 -168h-487v1434h487q292 0 452.5 -169.5t160.5 -467.5v-164zM686 1339h-377v-1245h377q251 0 382.5 140.5t131.5 398.5v164q0 255 -132.5 398.5t-381.5 143.5zM901 1862h98l-215 -246h-104l-215 246h98l170 -176z" />
    <glyph glyph-name="dcaron" unicode="&#x10f;" horiz-adv-x="1368" 
d="M1231 1114l43 383h115l-74 -383h-84zM1026 0h-100v217q-48 -108 -145.5 -170.5t-223.5 -62.5q-182 0 -301 130t-119 335v176q0 206 118.5 335.5t301.5 129.5q126 0 223.5 -63t145.5 -171v639h100v-1495zM926 612q0 173 -95 280t-249 107t-249 -107t-95 -280v-151
q0 -173 95 -280t249 -107t249 107t95 280v151z" />
    <glyph glyph-name="Dcroat" unicode="&#x110;" horiz-adv-x="1447" 
d="M0 672v92h205v670h487q292 0 452.5 -169.5t160.5 -467.5v-164q0 -297 -159.5 -465t-453.5 -168h-487v672h-205zM686 1339h-377v-575h330v-92h-330v-578h377q251 0 382.5 140.5t131.5 398.5v164q0 255 -132.5 398.5t-381.5 143.5z" />
    <glyph glyph-name="dcroat" unicode="&#x111;" 
d="M1026 0h-100v217q-48 -108 -145.5 -170.5t-223.5 -62.5q-182 0 -301 130t-119 335v176q0 206 118.5 335.5t301.5 129.5q126 0 223.5 -63t145.5 -171v383h-324v90h324v166h100v-166h164v-90h-164v-1239zM926 612q0 173 -95 280t-249 107t-249 -107t-95 -280v-151
q0 -173 95 -280t249 -107t249 107t95 280v151z" />
    <glyph glyph-name="Emacron" unicode="&#x112;" horiz-adv-x="1198" 
d="M205 0v1434h870v-95h-766v-573h746v-94h-746v-578h766v-94h-870zM903 1761v-80h-489v80h489z" />
    <glyph glyph-name="emacron" unicode="&#x113;" horiz-adv-x="1110" 
d="M137 449v176q0 202 123 333.5t311 131.5q179 0 296.5 -128.5t117.5 -326.5v-127h-745v-55q0 -165 97 -272t243 -107q188 0 305 164l82 -56q-147 -198 -387 -198q-188 0 -315.5 132.5t-127.5 332.5zM240 621v-21h645v31q0 160 -90 264t-226 104q-143 0 -236 -106.5
t-93 -271.5zM819 1401v-80h-489v80h489z" />
    <glyph glyph-name="Ebreve" unicode="&#x114;" horiz-adv-x="1198" 
d="M205 0v1434h870v-95h-766v-573h746v-94h-746v-578h766v-94h-870zM659 1712q146 0 185 158l80 -25q-23 -101 -96.5 -159t-168.5 -58t-168 57t-96 160l80 25q39 -158 184 -158z" />
    <glyph glyph-name="ebreve" unicode="&#x115;" horiz-adv-x="1110" 
d="M137 449v176q0 202 123 333.5t311 131.5q179 0 296.5 -128.5t117.5 -326.5v-127h-745v-55q0 -165 97 -272t243 -107q188 0 305 164l82 -56q-147 -198 -387 -198q-188 0 -315.5 132.5t-127.5 332.5zM240 621v-21h645v31q0 160 -90 264t-226 104q-143 0 -236 -106.5
t-93 -271.5zM575 1352q147 0 185 157l80 -24q-23 -101 -96.5 -159t-168.5 -58t-168 57t-96 160l80 24q38 -157 184 -157z" />
    <glyph glyph-name="Edotaccent" unicode="&#x116;" horiz-adv-x="1198" 
d="M205 0v1434h870v-95h-766v-573h746v-94h-746v-578h766v-94h-870zM659 1663q-30 0 -52.5 23.5t-22.5 54.5q0 32 22 55t53 23t53.5 -23t22.5 -55q0 -31 -22.5 -54.5t-53.5 -23.5z" />
    <glyph glyph-name="edotaccent" unicode="&#x117;" horiz-adv-x="1110" 
d="M137 449v176q0 202 123 333.5t311 131.5q179 0 296.5 -128.5t117.5 -326.5v-127h-745v-55q0 -165 97 -272t243 -107q188 0 305 164l82 -56q-147 -198 -387 -198q-188 0 -315.5 132.5t-127.5 332.5zM240 621v-21h645v31q0 160 -90 264t-226 104q-143 0 -236 -106.5
t-93 -271.5zM575 1303q-31 0 -53 23t-22 54q0 32 22 55t53 23t53.5 -23t22.5 -55q0 -31 -22.5 -54t-53.5 -23z" />
    <glyph glyph-name="Eogonek" unicode="&#x118;" horiz-adv-x="1198" 
d="M205 0v1434h870v-95h-766v-573h746v-94h-746v-578h766v-94q-95 -89 -130.5 -152t-35.5 -120q0 -50 29 -78.5t80 -28.5q45 0 72 8l10 -71q-53 -11 -90 -11q-89 0 -136 45.5t-47 120.5q0 68 33.5 134t120.5 153h-776z" />
    <glyph glyph-name="eogonek" unicode="&#x119;" horiz-adv-x="1112" 
d="M137 449v176q0 202 123 333.5t311 131.5q179 0 296.5 -128.5t117.5 -326.5v-127h-745v-55q0 -165 97 -272t243 -107q188 0 305 164l82 -56q-105 -142 -252 -182q-95 -89 -130.5 -152t-35.5 -120q0 -50 28.5 -78.5t79.5 -28.5q45 0 72 8l10 -71q-53 -11 -90 -11
q-89 0 -135.5 45.5t-46.5 120.5q0 66 29.5 128t107.5 143h-24q-188 0 -315.5 132.5t-127.5 332.5zM240 621v-21h645v31q0 160 -90 264t-226 104q-143 0 -236 -106.5t-93 -271.5z" />
    <glyph glyph-name="Ecaron" unicode="&#x11a;" horiz-adv-x="1198" 
d="M205 0v1434h870v-95h-766v-573h746v-94h-746v-578h766v-94h-870zM831 1862h99l-215 -246h-105l-215 246h99l170 -176z" />
    <glyph glyph-name="ecaron" unicode="&#x11b;" horiz-adv-x="1110" 
d="M137 449v176q0 202 123 333.5t311 131.5q179 0 296.5 -128.5t117.5 -326.5v-127h-745v-55q0 -165 97 -272t243 -107q188 0 305 164l82 -56q-147 -198 -387 -198q-188 0 -315.5 132.5t-127.5 332.5zM240 621v-21h645v31q0 160 -90 264t-226 104q-143 0 -236 -106.5
t-93 -271.5zM748 1501h98l-215 -246h-105l-215 246h99l170 -176z" />
    <glyph glyph-name="Gcircumflex" unicode="&#x11c;" horiz-adv-x="1490" 
d="M143 633v168q0 292 165.5 472.5t432.5 180.5q193 0 343.5 -104t211.5 -283l-96 -31q-53 151 -177.5 236.5t-281.5 85.5q-223 0 -358 -152.5t-135 -404.5v-168q0 -252 136 -404.5t359 -152.5q124 0 228 52t169.5 157.5t65.5 244.5v91h-448v94h549v-715h-101v262
q-61 -126 -186 -204t-277 -78q-267 0 -433.5 181t-166.5 472zM578 1618h-99l215 246h105l215 -246h-99l-167 176z" />
    <glyph glyph-name="gcircumflex" unicode="&#x11d;" horiz-adv-x="1230" 
d="M410 -434v92h235q279 0 279 279v276q-47 -108 -144 -168.5t-223 -60.5q-182 0 -301 129t-119 336v172q0 209 118.5 339t301.5 130q125 0 222 -62.5t145 -169.5v215h100v-1147q0 -170 -95 -265t-267 -95h-252zM924 612q0 173 -94 280t-248 107t-249 -107t-95 -280v-153
q0 -174 95 -279.5t249 -105.5t248 105.5t94 279.5v153zM424 1257h-98l215 246h104l215 -246h-98l-168 177z" />
    <glyph glyph-name="Gbreve" unicode="&#x11e;" horiz-adv-x="1490" 
d="M143 633v168q0 292 165.5 472.5t432.5 180.5q193 0 343.5 -104t211.5 -283l-96 -31q-53 151 -177.5 236.5t-281.5 85.5q-223 0 -358 -152.5t-135 -404.5v-168q0 -252 136 -404.5t359 -152.5q124 0 228 52t169.5 157.5t65.5 244.5v91h-448v94h549v-715h-101v262
q-61 -126 -186 -204t-277 -78q-267 0 -433.5 181t-166.5 472zM748 1712q145 0 184 158l80 -25q-23 -102 -96 -159.5t-168 -57.5q-96 0 -169 57t-96 160l80 25q39 -158 185 -158z" />
    <glyph glyph-name="gbreve" unicode="&#x11f;" horiz-adv-x="1230" 
d="M410 -434v92h235q279 0 279 279v276q-47 -108 -144 -168.5t-223 -60.5q-182 0 -301 129t-119 336v172q0 209 118.5 339t301.5 130q125 0 222 -62.5t145 -169.5v215h100v-1147q0 -170 -95 -265t-267 -95h-252zM924 612q0 173 -94 280t-248 107t-249 -107t-95 -280v-153
q0 -174 95 -279.5t249 -105.5t248 105.5t94 279.5v153zM594 1352q146 0 184 157l80 -24q-23 -102 -96 -159.5t-168 -57.5t-168 57t-96 160l80 24q38 -157 184 -157z" />
    <glyph glyph-name="Gdotaccent" unicode="&#x120;" horiz-adv-x="1490" 
d="M143 633v168q0 292 165.5 472.5t432.5 180.5q193 0 343.5 -104t211.5 -283l-96 -31q-53 151 -177.5 236.5t-281.5 85.5q-223 0 -358 -152.5t-135 -404.5v-168q0 -252 136 -404.5t359 -152.5q124 0 228 52t169.5 157.5t65.5 244.5v91h-448v94h549v-715h-101v262
q-61 -126 -186 -204t-277 -78q-267 0 -433.5 181t-166.5 472zM748 1663q-31 0 -53.5 23.5t-22.5 54.5q0 32 22.5 55t53.5 23t53 -23t22 -55q0 -31 -22.5 -54.5t-52.5 -23.5z" />
    <glyph glyph-name="gdotaccent" unicode="&#x121;" horiz-adv-x="1230" 
d="M410 -434v92h235q279 0 279 279v276q-47 -108 -144 -168.5t-223 -60.5q-182 0 -301 129t-119 336v172q0 209 118.5 339t301.5 130q125 0 222 -62.5t145 -169.5v215h100v-1147q0 -170 -95 -265t-267 -95h-252zM924 612q0 173 -94 280t-248 107t-249 -107t-95 -280v-153
q0 -174 95 -279.5t249 -105.5t248 105.5t94 279.5v153zM594 1303q-31 0 -53.5 23t-22.5 54q0 32 22.5 55t53.5 23t53.5 -23t22.5 -55q0 -31 -22.5 -54t-53.5 -23z" />
    <glyph glyph-name="uni0122" unicode="&#x122;" horiz-adv-x="1490" 
d="M143 633v168q0 292 165.5 472.5t432.5 180.5q193 0 343.5 -104t211.5 -283l-96 -31q-53 151 -177.5 236.5t-281.5 85.5q-223 0 -358 -152.5t-135 -404.5v-168q0 -252 136 -404.5t359 -152.5q124 0 228 52t169.5 157.5t65.5 244.5v91h-448v94h549v-715h-101v262
q-61 -126 -186 -204t-277 -78q-267 0 -433.5 181t-166.5 472zM664 -430q41 7 70.5 38.5t29.5 63.5q0 16 -20 28.5t-40 30.5t-20 46t21 47.5t47 19.5q39 0 63.5 -31.5t24.5 -88.5q0 -78 -47 -137.5t-129 -71.5v55z" />
    <glyph glyph-name="uni0123" unicode="&#x123;" horiz-adv-x="1230" 
d="M690 1581q-41 -7 -70.5 -38.5t-29.5 -63.5q0 -13 12.5 -24t27.5 -18.5t27.5 -24t12.5 -38.5q0 -28 -21 -47.5t-47 -19.5q-39 0 -63.5 31.5t-24.5 88.5q0 78 47 137.5t129 71.5v-55zM410 -434v92h235q279 0 279 279v276q-47 -108 -144 -168.5t-223 -60.5q-182 0 -301 129
t-119 336v172q0 209 118.5 339t301.5 130q125 0 222 -62.5t145 -169.5v215h100v-1147q0 -170 -95 -265t-267 -95h-252zM924 612q0 173 -94 280t-248 107t-249 -107t-95 -280v-153q0 -174 95 -279.5t249 -105.5t248 105.5t94 279.5v153z" />
    <glyph glyph-name="Hcircumflex" unicode="&#x124;" horiz-adv-x="1435" 
d="M309 0h-104v1434h104v-668h817v668h105v-1434h-105v672h-817v-672zM549 1618h-98l215 246h104l215 -246h-98l-168 176z" />
    <glyph glyph-name="hcircumflex" unicode="&#x125;" 
d="M1024 702v-702h-100v688q0 135 -82 222t-215 87q-144 0 -237 -93.5t-93 -235.5v-668h-100v1495h100v-637q38 106 133.5 169t218.5 63q165 0 270 -111.5t105 -276.5zM78 1679h-98l215 246h104l215 -246h-98l-168 176z" />
    <glyph glyph-name="Hbar" unicode="&#x126;" horiz-adv-x="1435" 
d="M309 0h-104v1047h-174v92h174v295h104v-295h817v295h105v-295h174v-92h-174v-1047h-105v672h-817v-672zM309 766h817v281h-817v-281z" />
    <glyph glyph-name="hbar" unicode="&#x127;" 
d="M1022 702v-702h-100v688q0 135 -82 222t-215 87q-144 0 -237 -93.5t-93 -235.5v-668h-100v1239h-164v90h164v166h100v-166h323v-90h-323v-381q38 106 133.5 169t218.5 63q165 0 270 -111.5t105 -276.5z" />
    <glyph glyph-name="Itilde" unicode="&#x128;" horiz-adv-x="514" 
d="M309 0h-104v1434h104v-1434zM141 1849q37 0 83.5 -34.5t87.5 -68.5t63 -34q29 0 48.5 28.5t47.5 110.5l72 -18q-30 -99 -70.5 -150t-97.5 -51q-29 0 -65.5 21.5t-64 47t-57.5 47t-47 21.5q-29 0 -48.5 -28.5t-47.5 -110.5l-72 19q61 200 168 200z" />
    <glyph glyph-name="itilde" unicode="&#x129;" horiz-adv-x="493" 
d="M297 1073v-1073h-100v1073h100zM129 1489q37 0 83.5 -34.5t87 -68.5t62.5 -34q29 0 49 28.5t48 110.5l71 -18q-30 -99 -70.5 -150t-97.5 -51q-29 0 -65 21.5t-64 47t-57.5 47t-46.5 21.5q-29 0 -48.5 -28.5t-47.5 -110.5l-72 18q30 99 70.5 150t97.5 51z" />
    <glyph glyph-name="Imacron" unicode="&#x12a;" horiz-adv-x="514" 
d="M309 0h-104v1434h104v-1434zM502 1761v-80h-490v80h490z" />
    <glyph glyph-name="imacron" unicode="&#x12b;" horiz-adv-x="493" 
d="M297 1073v-1073h-100v1073h100zM489 1401v-80h-489v80h489z" />
    <glyph glyph-name="Ibreve" unicode="&#x12c;" horiz-adv-x="514" 
d="M309 0h-104v1434h104v-1434zM256 1712q145 0 184 158l80 -25q-23 -102 -96 -159.5t-168 -57.5t-168 57t-96 160l80 25q39 -158 184 -158z" />
    <glyph glyph-name="ibreve" unicode="&#x12d;" horiz-adv-x="493" 
d="M297 1073v-1073h-100v1073h100zM246 1352q146 0 184 157l80 -24q-23 -102 -96 -159.5t-168 -57.5t-168 57t-96 160l79 24q38 -157 185 -157z" />
    <glyph glyph-name="Iogonek" unicode="&#x12e;" horiz-adv-x="514" 
d="M309 0q-95 -89 -130.5 -152t-35.5 -120q0 -50 29 -78.5t80 -28.5q45 0 72 8l10 -71q-53 -11 -90 -11q-89 0 -136 45.5t-47 120.5q0 68 33.5 134t120.5 153h-10v1434h104v-1434z" />
    <glyph glyph-name="iogonek" unicode="&#x12f;" horiz-adv-x="493" 
d="M248 1317q-31 0 -55.5 25.5t-24.5 56.5q0 33 24.5 57.5t55.5 24.5t55.5 -24.5t24.5 -57.5q0 -31 -24.5 -56.5t-55.5 -25.5zM297 0q-95 -89 -130.5 -152t-35.5 -120q0 -50 29 -78.5t80 -28.5q44 0 71 8l11 -71q-53 -11 -91 -11q-89 0 -135.5 45.5t-46.5 120.5
q0 68 33.5 134t120.5 153h-6v1073h100v-1073z" />
    <glyph glyph-name="Idotaccent" unicode="&#x130;" horiz-adv-x="514" 
d="M309 0h-104v1434h104v-1434zM258 1663q-31 0 -53.5 23.5t-22.5 54.5q0 32 22.5 55t53.5 23t53.5 -23t22.5 -55q0 -31 -22.5 -54.5t-53.5 -23.5z" />
    <glyph glyph-name="dotlessi" unicode="&#x131;" horiz-adv-x="493" 
d="M297 1073v-1073h-100v1073h100z" />
    <glyph glyph-name="IJ" unicode="&#x132;" horiz-adv-x="1513" 
d="M309 0h-104v1434h104v-1434zM571 90l56 78q111 -88 264 -88q148 0 241 95t93 271v988h104v-988q0 -110 -33.5 -198.5t-93 -145.5t-139 -87.5t-172.5 -30.5q-186 0 -320 106z" />
    <glyph glyph-name="ij" unicode="&#x133;" horiz-adv-x="987" 
d="M248 1317q-31 0 -55.5 25.5t-24.5 56.5q0 33 24.5 57.5t55.5 24.5t55.5 -24.5t24.5 -57.5q0 -31 -24.5 -56.5t-55.5 -25.5zM297 1073v-1073h-100v1073h100zM741 1317q-31 0 -55 25.5t-24 56.5q0 33 24 57.5t55 24.5t55.5 -24.5t24.5 -57.5q0 -31 -24.5 -56.5t-55.5 -25.5
zM610 -434h-86v92h72q45 0 69.5 21.5t24.5 60.5v1333h101v-1343q0 -75 -49 -119.5t-132 -44.5z" />
    <glyph glyph-name="Jcircumflex" unicode="&#x134;" horiz-adv-x="999" 
d="M57 90l56 78q111 -88 264 -88q148 0 241 95t93 271v988h104v-988q0 -110 -33.5 -198.5t-93 -145.5t-139 -87.5t-172.5 -30.5q-186 0 -320 106zM596 1618h-98l215 246h104l215 -246h-98l-168 176z" />
    <glyph glyph-name="jcircumflex" unicode="&#x135;" horiz-adv-x="493" 
d="M117 -434h-86v92h71q45 0 70 21.5t25 60.5v1333h100v-1343q0 -75 -48.5 -119.5t-131.5 -44.5zM76 1257h-99l216 246h104l215 -246h-98l-168 177z" />
    <glyph glyph-name="uni0136" unicode="&#x136;" horiz-adv-x="1183" 
d="M309 0h-104v1434h104v-672l754 672h137l-797 -707l805 -727h-143l-756 680v-680zM547 -430q41 7 70.5 38.5t29.5 63.5q0 16 -20 28.5t-40 30.5t-20 46t21 47.5t47 19.5q39 0 63.5 -31.5t24.5 -88.5q0 -78 -47 -137.5t-129 -71.5v55z" />
    <glyph glyph-name="uni0137" unicode="&#x137;" horiz-adv-x="978" 
d="M991 1073l-600 -518l617 -555h-146l-565 512v-512h-100v1495h100v-905l551 483h143zM467 -430q41 7 70.5 38.5t29.5 63.5q0 16 -20 28.5t-40 30.5t-20 46t21 47.5t47 19.5q39 0 63.5 -31.5t24.5 -88.5q0 -78 -47 -137.5t-129 -71.5v55z" />
    <glyph glyph-name="kgreenlandic" unicode="&#x138;" horiz-adv-x="989" 
d="M297 1073v-483l549 483h145l-600 -520l617 -553h-150l-561 512v-512h-100v1073h100z" />
    <glyph glyph-name="Lacute" unicode="&#x139;" horiz-adv-x="1146" 
d="M1075 94v-94h-870v1434h104v-1340h766zM383 1862h135l-256 -246h-104z" />
    <glyph glyph-name="lacute" unicode="&#x13a;" horiz-adv-x="493" 
d="M297 0h-100v1495h100v-1495zM377 1921h135l-256 -246h-104z" />
    <glyph glyph-name="uni013B" unicode="&#x13b;" horiz-adv-x="1146" 
d="M1075 94v-94h-870v1434h104v-1340h766zM559 -430q41 7 70.5 38.5t29.5 63.5q0 13 -12.5 24t-27 18.5t-27 24t-12.5 38.5q0 28 20.5 47.5t46.5 19.5q39 0 63.5 -31.5t24.5 -88.5q0 -78 -47 -137.5t-129 -71.5v55z" />
    <glyph glyph-name="uni013C" unicode="&#x13c;" horiz-adv-x="493" 
d="M297 0h-100v1495h100v-1495zM156 -430q41 7 70.5 38.5t29.5 63.5q0 16 -20 28.5t-40 30.5t-20 46t21 47.5t47 19.5q39 0 63.5 -31.5t24.5 -88.5q0 -78 -47 -137.5t-129 -71.5v55z" />
    <glyph glyph-name="Lcaron" unicode="&#x13d;" horiz-adv-x="1146" 
d="M1075 94v-94h-870v1434h104v-1340h766zM739 1051l43 383h115l-74 -383h-84z" />
    <glyph glyph-name="lcaron" unicode="&#x13e;" horiz-adv-x="634" 
d="M500 1112l43 383h114l-73 -383h-84zM297 0h-100v1495h100v-1495z" />
    <glyph glyph-name="Ldot" unicode="&#x13f;" horiz-adv-x="1146" 
d="M1075 94v-94h-870v1434h104v-1340h766zM813 645q-31 0 -53.5 23.5t-22.5 54.5q0 32 22.5 55t53.5 23t53.5 -23t22.5 -55q0 -31 -22.5 -54.5t-53.5 -23.5z" />
    <glyph glyph-name="ldot" unicode="&#x140;" horiz-adv-x="624" 
d="M297 0h-100v1495h100v-1495zM547 600q-31 0 -53.5 23.5t-22.5 54.5q0 32 22.5 55t53.5 23t53.5 -23t22.5 -55q0 -31 -22.5 -54.5t-53.5 -23.5z" />
    <glyph glyph-name="Lslash" unicode="&#x141;" horiz-adv-x="1167" 
d="M51 397v107l154 133v797h104v-707l367 320v-107l-367 -319v-527h766v-94h-870v530z" />
    <glyph glyph-name="lslash" unicode="&#x142;" horiz-adv-x="514" 
d="M297 0h-100v662l-164 -146v105l164 145v729h100v-641l184 162v-103l-184 -163v-750z" />
    <glyph glyph-name="Nacute" unicode="&#x143;" horiz-adv-x="1497" 
d="M305 0h-100v1434h121l870 -1289l-4 1289h100v-1434h-118l-873 1292zM879 1862h135l-256 -246h-105z" />
    <glyph glyph-name="nacute" unicode="&#x144;" 
d="M1024 702v-702h-100v688q0 135 -82 222t-215 87q-144 0 -237 -93.5t-93 -235.5v-668h-100v1073h100v-215q38 106 133.5 169t218.5 63q165 0 270 -111.5t105 -276.5zM739 1501h135l-256 -246h-104z" />
    <glyph glyph-name="uni0145" unicode="&#x145;" horiz-adv-x="1497" 
d="M305 0h-100v1434h121l870 -1289l-4 1289h100v-1434h-118l-873 1292zM657 -430q41 7 71 38.5t30 63.5q0 16 -20 28.5t-40 30.5t-20 46t20.5 47.5t46.5 19.5q40 0 64.5 -31.5t24.5 -88.5q0 -78 -47.5 -137.5t-129.5 -71.5v55z" />
    <glyph glyph-name="uni0146" unicode="&#x146;" 
d="M1024 702v-702h-100v688q0 135 -82 222t-215 87q-144 0 -237 -93.5t-93 -235.5v-668h-100v1073h100v-215q38 106 133.5 169t218.5 63q165 0 270 -111.5t105 -276.5zM518 -430q41 7 70.5 38.5t29.5 63.5q0 13 -12.5 24t-27 18.5t-27 24t-12.5 38.5q0 28 20.5 47.5
t46.5 19.5q39 0 63.5 -31.5t24.5 -88.5q0 -78 -47 -137.5t-129 -71.5v55z" />
    <glyph glyph-name="Ncaron" unicode="&#x147;" horiz-adv-x="1497" 
d="M305 0h-100v1434h121l870 -1289l-4 1289h100v-1434h-118l-873 1292zM922 1862h98l-215 -246h-105l-215 246h99l170 -176z" />
    <glyph glyph-name="ncaron" unicode="&#x148;" 
d="M1024 702v-702h-100v688q0 135 -82 222t-215 87q-144 0 -237 -93.5t-93 -235.5v-668h-100v1073h100v-215q38 106 133.5 169t218.5 63q165 0 270 -111.5t105 -276.5zM782 1501h99l-215 -246h-105l-215 246h98l170 -176z" />
    <glyph glyph-name="Eng" unicode="&#x14a;" horiz-adv-x="1497" 
d="M1192 -264v264l-887 1284v-1284h-100v1434h117l870 -1260v1260h100v-1710q0 -72 -47.5 -115t-126.5 -43h-82v92h68q42 0 65 20.5t23 57.5z" />
    <glyph glyph-name="eng" unicode="&#x14b;" 
d="M844 -434h-84v92h71q44 0 68.5 22t24.5 60v948q0 135 -82 222t-215 87q-144 0 -237 -93.5t-93 -235.5v-668h-100v1073h100v-215q38 106 133.5 169t218.5 63q165 0 270 -111.5t105 -276.5v-972q0 -75 -48.5 -119.5t-131.5 -44.5z" />
    <glyph glyph-name="Omacron" unicode="&#x14c;" horiz-adv-x="1503" 
d="M143 801q0 296 168 474.5t441 178.5t440.5 -178.5t167.5 -474.5v-168q0 -296 -167.5 -474.5t-440.5 -178.5t-441 178.5t-168 474.5v168zM248 791v-148q0 -268 136.5 -417.5t367.5 -149.5t367 149.5t136 417.5v148q0 268 -136 417.5t-367 149.5t-367.5 -149.5
t-136.5 -417.5zM995 1761v-80h-489v80h489z" />
    <glyph glyph-name="omacron" unicode="&#x14d;" horiz-adv-x="1163" 
d="M1026 449q0 -207 -126 -336t-318 -129t-318.5 129t-126.5 336v176q0 207 126.5 336t318.5 129t318 -129t126 -336v-176zM926 612q0 173 -95 280t-249 107t-249 -107t-95 -280v-151q0 -173 95 -280t249 -107t249 107t95 280v151zM825 1401v-80h-489v80h489z" />
    <glyph glyph-name="Obreve" unicode="&#x14e;" horiz-adv-x="1503" 
d="M143 801q0 296 168 474.5t441 178.5t440.5 -178.5t167.5 -474.5v-168q0 -296 -167.5 -474.5t-440.5 -178.5t-441 178.5t-168 474.5v168zM248 791v-148q0 -268 136.5 -417.5t367.5 -149.5t367 149.5t136 417.5v148q0 268 -136 417.5t-367 149.5t-367.5 -149.5
t-136.5 -417.5zM752 1712q145 0 184 158l80 -25q-23 -102 -96 -159.5t-168 -57.5q-96 0 -169 57t-96 160l80 25q39 -158 185 -158z" />
    <glyph glyph-name="obreve" unicode="&#x14f;" horiz-adv-x="1163" 
d="M1026 449q0 -207 -126 -336t-318 -129t-318.5 129t-126.5 336v176q0 207 126.5 336t318.5 129t318 -129t126 -336v-176zM926 612q0 173 -95 280t-249 107t-249 -107t-95 -280v-151q0 -173 95 -280t249 -107t249 107t95 280v151zM582 1352q146 0 184 157l80 -24
q-23 -102 -96 -159.5t-168 -57.5q-96 0 -169 57t-96 160l80 24q38 -157 185 -157z" />
    <glyph glyph-name="Ohungarumlaut" unicode="&#x150;" horiz-adv-x="1503" 
d="M143 801q0 296 168 474.5t441 178.5t440.5 -178.5t167.5 -474.5v-168q0 -296 -167.5 -474.5t-440.5 -178.5t-441 178.5t-168 474.5v168zM248 791v-148q0 -268 136.5 -417.5t367.5 -149.5t367 149.5t136 417.5v148q0 268 -136 417.5t-367 149.5t-367.5 -149.5
t-136.5 -417.5zM752 1862h125l-254 -246h-103zM1059 1862h123l-252 -246h-105z" />
    <glyph glyph-name="ohungarumlaut" unicode="&#x151;" horiz-adv-x="1163" 
d="M1026 449q0 -207 -126 -336t-318 -129t-318.5 129t-126.5 336v176q0 207 126.5 336t318.5 129t318 -129t126 -336v-176zM926 612q0 173 -95 280t-249 107t-249 -107t-95 -280v-151q0 -173 95 -280t249 -107t249 107t95 280v151zM582 1501h125l-254 -246h-103zM889 1501
h123l-252 -246h-105z" />
    <glyph glyph-name="OE" unicode="&#x152;" horiz-adv-x="2091" 
d="M143 801q0 297 159.5 465t453.5 168h1212v-95h-766v-573h746v-94h-746v-578h766v-94h-1212q-292 0 -452.5 169.5t-160.5 467.5v164zM762 94h336v1245h-336q-251 0 -382.5 -140t-131.5 -398v-164q0 -256 132.5 -399.5t381.5 -143.5z" />
    <glyph glyph-name="oe" unicode="&#x153;" horiz-adv-x="1902" 
d="M1757 182q-147 -198 -389 -198q-131 0 -235.5 70t-155.5 190q-51 -121 -156 -190.5t-239 -69.5q-192 0 -318.5 129t-126.5 336v176q0 207 126 336t319 129q133 0 238.5 -69.5t156.5 -189.5q50 119 152.5 189t232.5 70q178 0 296 -129t118 -326v-127h-750v-55
q0 -165 98 -272t244 -107q190 0 307 164zM926 612q0 173 -95 280t-249 107t-248 -107t-94 -280v-151q0 -173 94 -280t248 -107t249 107t95 280v151zM1026 621v-21h649v31q0 160 -89.5 264t-223.5 104q-142 0 -239 -107t-97 -271z" />
    <glyph glyph-name="Racute" unicode="&#x154;" horiz-adv-x="1228" 
d="M309 0h-104v1434h491q181 0 301.5 -117t120.5 -285q0 -145 -94 -253t-244 -134l400 -645h-119l-395 637h-357v-637zM696 1339h-387v-610h387q137 0 227.5 88t90.5 215q0 128 -91 217.5t-227 89.5zM745 1862h136l-256 -246h-105z" />
    <glyph glyph-name="racute" unicode="&#x155;" horiz-adv-x="731" 
d="M666 985h-95q-116 0 -195 -89.5t-79 -217.5v-678h-100v1073h100v-213q29 99 104 160t170 61h95v-96zM555 1501h135l-256 -246h-104z" />
    <glyph glyph-name="uni0156" unicode="&#x156;" horiz-adv-x="1228" 
d="M309 0h-104v1434h491q181 0 301.5 -117t120.5 -285q0 -145 -94 -253t-244 -134l400 -645h-119l-395 637h-357v-637zM696 1339h-387v-610h387q137 0 227.5 88t90.5 215q0 128 -91 217.5t-227 89.5zM561 -430q41 7 71 38.5t30 63.5q0 16 -20 28.5t-40 30.5t-20 46
t20.5 47.5t46.5 19.5q39 0 63.5 -31.5t24.5 -88.5q0 -78 -47 -137.5t-129 -71.5v55z" />
    <glyph glyph-name="uni0157" unicode="&#x157;" horiz-adv-x="731" 
d="M666 985h-95q-116 0 -195 -89.5t-79 -217.5v-678h-100v1073h100v-213q29 99 104 160t170 61h95v-96zM154 -430q41 7 70.5 38.5t29.5 63.5q0 16 -20 28.5t-40 30.5t-20 46t21 47.5t47 19.5q39 0 63.5 -31.5t24.5 -88.5q0 -78 -47 -137.5t-129 -71.5v55z" />
    <glyph glyph-name="Rcaron" unicode="&#x158;" horiz-adv-x="1228" 
d="M309 0h-104v1434h491q181 0 301.5 -117t120.5 -285q0 -145 -94 -253t-244 -134l400 -645h-119l-395 637h-357v-637zM696 1339h-387v-610h387q137 0 227.5 88t90.5 215q0 128 -91 217.5t-227 89.5zM788 1862h99l-215 -246h-105l-215 246h99l170 -176z" />
    <glyph glyph-name="rcaron" unicode="&#x159;" horiz-adv-x="731" 
d="M666 985h-95q-116 0 -195 -89.5t-79 -217.5v-678h-100v1073h100v-213q29 99 104 160t170 61h95v-96zM598 1501h98l-215 -246h-104l-215 246h98l170 -176z" />
    <glyph glyph-name="Sacute" unicode="&#x15a;" 
d="M111 418h106q28 -161 139.5 -251.5t280.5 -90.5q159 0 253.5 76.5t94.5 207.5q0 106 -69 172.5t-224 110.5l-246 70q-154 42 -236.5 135.5t-82.5 220.5q0 170 122 276.5t314 106.5q203 0 338.5 -120.5t157.5 -319.5h-105q-22 164 -125.5 255t-269.5 91q-143 0 -235.5 -78
t-92.5 -201q0 -99 63.5 -165.5t194.5 -104.5l256 -74q347 -100 347 -364q0 -175 -124 -282t-329 -107q-217 0 -361 119t-167 317zM694 1862h135l-256 -246h-104z" />
    <glyph glyph-name="sacute" unicode="&#x15b;" horiz-adv-x="968" 
d="M504 -18q-168 0 -282.5 96t-135.5 241h100q18 -106 104.5 -176.5t215.5 -70.5q112 0 183 55.5t71 136.5t-56 130.5t-165 80.5l-162 45q-131 36 -202 106t-71 171q0 131 93.5 212t246.5 81q154 0 269 -93t135 -239h-103q-15 101 -100.5 171t-198.5 70q-111 0 -176 -53
t-65 -135q0 -143 196 -197l162 -45q141 -39 219 -115t78 -178q0 -132 -98.5 -213t-257.5 -81zM592 1501h135l-256 -246h-104z" />
    <glyph glyph-name="Scircumflex" unicode="&#x15c;" 
d="M111 418h106q28 -161 139.5 -251.5t280.5 -90.5q159 0 253.5 76.5t94.5 207.5q0 106 -69 172.5t-224 110.5l-246 70q-154 42 -236.5 135.5t-82.5 220.5q0 170 122 276.5t314 106.5q203 0 338.5 -120.5t157.5 -319.5h-105q-22 164 -125.5 255t-269.5 91q-143 0 -235.5 -78
t-92.5 -201q0 -99 63.5 -165.5t194.5 -104.5l256 -74q347 -100 347 -364q0 -175 -124 -282t-329 -107q-217 0 -361 119t-167 317zM395 1618h-98l215 246h104l215 -246h-98l-168 176z" />
    <glyph glyph-name="scircumflex" unicode="&#x15d;" horiz-adv-x="968" 
d="M504 -18q-168 0 -282.5 96t-135.5 241h100q18 -106 104.5 -176.5t215.5 -70.5q112 0 183 55.5t71 136.5t-56 130.5t-165 80.5l-162 45q-131 36 -202 106t-71 171q0 131 93.5 212t246.5 81q154 0 269 -93t135 -239h-103q-15 101 -100.5 171t-198.5 70q-111 0 -176 -53
t-65 -135q0 -143 196 -197l162 -45q141 -39 219 -115t78 -178q0 -132 -98.5 -213t-257.5 -81zM293 1257h-98l215 246h104l215 -246h-98l-168 177z" />
    <glyph glyph-name="uni015E" unicode="&#x15e;" 
d="M111 418h106q28 -161 139.5 -251.5t280.5 -90.5q160 0 255 75.5t95 202.5q0 108 -69.5 176.5t-225.5 112.5l-243 70q-154 43 -238 136t-84 220q0 170 122 276.5t314 106.5q203 0 338.5 -120.5t157.5 -319.5h-105q-22 164 -125.5 255t-269.5 91q-145 0 -237.5 -77.5
t-92.5 -199.5q0 -197 260 -272l256 -74q347 -103 347 -364q0 -171 -118.5 -278t-314.5 -111l-28 -103q84 -3 134 -48t50 -118q0 -75 -56.5 -125.5t-142.5 -50.5q-60 0 -113.5 25.5t-84.5 68.5l61 50q51 -70 137 -70q52 0 84.5 28t32.5 74q0 47 -37 76t-100 29h-55l47 166
q-197 15 -326 132t-151 302z" />
    <glyph glyph-name="uni015F" unicode="&#x15f;" horiz-adv-x="968" 
d="M684 -287q0 -75 -56.5 -125.5t-142.5 -50.5q-60 0 -113.5 25.5t-84.5 68.5l61 50q51 -70 137 -70q52 0 84.5 28t32.5 74q0 47 -37 76t-100 29h-55l47 166q-151 13 -251.5 106.5t-119.5 228.5h100q18 -106 104.5 -176.5t215.5 -70.5q112 0 183 55.5t71 136.5t-56 130.5
t-165 80.5l-162 45q-131 36 -202 106t-71 171q0 131 93.5 212t246.5 81q154 0 269 -93t135 -239h-103q-15 101 -100.5 171t-198.5 70q-111 0 -176 -53t-65 -135q0 -143 196 -197l162 -45q141 -39 219 -115t78 -178q0 -127 -91.5 -206.5t-240.5 -87.5l-28 -103q84 -3 134 -48
t50 -118z" />
    <glyph glyph-name="Scaron" unicode="&#x160;" 
d="M111 418h106q28 -161 139.5 -251.5t280.5 -90.5q159 0 253.5 76.5t94.5 207.5q0 106 -69 172.5t-224 110.5l-246 70q-154 42 -236.5 135.5t-82.5 220.5q0 170 122 276.5t314 106.5q203 0 338.5 -120.5t157.5 -319.5h-105q-22 164 -125.5 255t-269.5 91q-143 0 -235.5 -78
t-92.5 -201q0 -99 63.5 -165.5t194.5 -104.5l256 -74q347 -100 347 -364q0 -175 -124 -282t-329 -107q-217 0 -361 119t-167 317zM737 1862h99l-215 -246h-105l-215 246h98l170 -176z" />
    <glyph glyph-name="scaron" unicode="&#x161;" horiz-adv-x="968" 
d="M504 -18q-168 0 -282.5 96t-135.5 241h100q18 -106 104.5 -176.5t215.5 -70.5q112 0 183 55.5t71 136.5t-56 130.5t-165 80.5l-162 45q-131 36 -202 106t-71 171q0 131 93.5 212t246.5 81q154 0 269 -93t135 -239h-103q-15 101 -100.5 171t-198.5 70q-111 0 -176 -53
t-65 -135q0 -143 196 -197l162 -45q141 -39 219 -115t78 -178q0 -132 -98.5 -213t-257.5 -81zM635 1501h98l-215 -246h-104l-215 246h98l170 -176z" />
    <glyph glyph-name="uni0162" unicode="&#x162;" horiz-adv-x="1247" 
d="M61 1339v95h1125v-95h-510v-1339h-12l-33 -121q84 -3 134 -48t50 -118q0 -75 -56.5 -125.5t-142.5 -50.5q-60 0 -113.5 25.5t-84.5 68.5l61 50q51 -70 137 -70q52 0 84.5 28t32.5 74q0 47 -37 76t-100 29h-55l51 182h-21v1339h-510z" />
    <glyph glyph-name="uni0163" unicode="&#x163;" horiz-adv-x="759" 
d="M76 981v92h221v328h100v-328h287v-92h-287v-784q0 -50 30 -77.5t85 -27.5h172v-92h-176l-33 -121q84 -3 134 -48t50 -118q0 -75 -56 -125.5t-142 -50.5q-60 0 -114 25.5t-85 68.5l62 50q51 -70 137 -70q52 0 84.5 28t32.5 74q0 47 -37.5 76t-100.5 29h-55l53 188
q-66 15 -103.5 62.5t-37.5 117.5v795h-221z" />
    <glyph glyph-name="Tcaron" unicode="&#x164;" horiz-adv-x="1247" 
d="M61 1339v95h1125v-95h-510v-1339h-105v1339h-510zM797 1862h98l-215 -246h-105l-215 246h99l170 -176z" />
    <glyph glyph-name="tcaron" unicode="&#x165;" horiz-adv-x="759" 
d="M545 1237l45 342h106l-73 -342h-78zM500 0q-93 0 -148 50t-55 136v795h-221v92h221v328h100v-328h287v-92h-287v-784q0 -50 30 -77.5t85 -27.5h172v-92h-184z" />
    <glyph glyph-name="Tbar" unicode="&#x166;" horiz-adv-x="1247" 
d="M254 678v92h317v569h-510v95h1125v-95h-510v-569h319v-92h-319v-678h-105v678h-317z" />
    <glyph glyph-name="tbar" unicode="&#x167;" horiz-adv-x="780" 
d="M500 0q-93 0 -148 50t-55 136v361h-221v92h221v342h-221v92h221v328h100v-328h287v-92h-287v-342h287v-92h-287v-350q0 -50 30 -77.5t85 -27.5h172v-92h-184z" />
    <glyph glyph-name="Utilde" unicode="&#x168;" horiz-adv-x="1435" 
d="M289 528q0 -200 117.5 -324t298.5 -124q178 0 299.5 124.5t121.5 323.5v906h105v-1434h-105v258q-55 -115 -166.5 -194.5t-261.5 -79.5q-106 0 -200.5 38.5t-163.5 107t-109.5 169.5t-40.5 221v914h105v-906zM592 1849q37 0 83.5 -34.5t87 -68.5t62.5 -34q29 0 49 28.5
t48 110.5l71 -18q-30 -99 -70.5 -150t-97.5 -51q-29 0 -65 21.5t-64 47t-57.5 47t-46.5 21.5q-29 0 -48.5 -28.5t-47.5 -110.5l-72 19q61 200 168 200z" />
    <glyph glyph-name="utilde" unicode="&#x169;" 
d="M197 371v702h100v-688q0 -135 82.5 -222t214.5 -87q144 0 237 94t93 236v667h100v-1073h-100v215q-38 -106 -133.5 -168.5t-217.5 -62.5q-166 0 -271 111t-105 276zM494 1489q37 0 83.5 -34.5t87 -68.5t62.5 -34q29 0 48.5 28.5t47.5 110.5l72 -18q-30 -99 -70.5 -150
t-97.5 -51q-29 0 -65 21.5t-64 47t-57.5 47t-46.5 21.5q-29 0 -49 -28.5t-48 -110.5l-71 18q30 99 70.5 150t97.5 51z" />
    <glyph glyph-name="Umacron" unicode="&#x16a;" horiz-adv-x="1435" 
d="M289 528q0 -200 117.5 -324t298.5 -124q178 0 299.5 124.5t121.5 323.5v906h105v-1434h-105v258q-55 -115 -166.5 -194.5t-261.5 -79.5q-106 0 -200.5 38.5t-163.5 107t-109.5 169.5t-40.5 221v914h105v-906zM952 1761v-80h-489v80h489z" />
    <glyph glyph-name="umacron" unicode="&#x16b;" 
d="M197 371v702h100v-688q0 -135 82.5 -222t214.5 -87q144 0 237 94t93 236v667h100v-1073h-100v215q-38 -106 -133.5 -168.5t-217.5 -62.5q-166 0 -271 111t-105 276zM854 1401v-80h-489v80h489z" />
    <glyph glyph-name="Ubreve" unicode="&#x16c;" horiz-adv-x="1435" 
d="M289 528q0 -200 117.5 -324t298.5 -124q178 0 299.5 124.5t121.5 323.5v906h105v-1434h-105v258q-55 -115 -166.5 -194.5t-261.5 -79.5q-106 0 -200.5 38.5t-163.5 107t-109.5 169.5t-40.5 221v914h105v-906zM709 1712q145 0 184 158l80 -25q-23 -102 -96 -159.5
t-168 -57.5q-96 0 -169 57t-96 160l80 25q39 -158 185 -158z" />
    <glyph glyph-name="ubreve" unicode="&#x16d;" 
d="M197 371v702h100v-688q0 -135 82.5 -222t214.5 -87q144 0 237 94t93 236v667h100v-1073h-100v215q-38 -106 -133.5 -168.5t-217.5 -62.5q-166 0 -271 111t-105 276zM610 1352q147 0 185 157l79 -24q-23 -102 -96 -159.5t-168 -57.5t-168 57t-96 160l80 24
q38 -157 184 -157z" />
    <glyph glyph-name="Uring" unicode="&#x16e;" horiz-adv-x="1435" 
d="M289 528q0 -200 117.5 -324t298.5 -124q178 0 299.5 124.5t121.5 323.5v906h105v-1434h-105v258q-55 -115 -166.5 -194.5t-261.5 -79.5q-106 0 -200.5 38.5t-163.5 107t-109.5 169.5t-40.5 221v914h105v-906zM709 1585q-84 0 -143.5 58.5t-59.5 140.5t59 140t144 58
q84 0 143 -58t59 -140t-59 -140.5t-143 -58.5zM709 1651q57 0 95 38.5t38 94.5t-38 94.5t-95 38.5t-95.5 -38.5t-38.5 -94.5t38.5 -94.5t95.5 -38.5z" />
    <glyph glyph-name="uring" unicode="&#x16f;" 
d="M197 371v702h100v-688q0 -135 82.5 -222t214.5 -87q144 0 237 94t93 236v667h100v-1073h-100v215q-38 -106 -133.5 -168.5t-217.5 -62.5q-166 0 -271 111t-105 276zM610 1225q-84 0 -143 58t-59 140t59 140.5t143 58.5t143.5 -58.5t59.5 -140.5t-59 -140t-144 -58z
M610 1290q57 0 95 38.5t38 94.5t-38 94.5t-95 38.5t-95 -38.5t-38 -94.5t38 -94.5t95 -38.5z" />
    <glyph glyph-name="Uhungarumlaut" unicode="&#x170;" horiz-adv-x="1435" 
d="M289 528q0 -200 117.5 -324t298.5 -124q178 0 299.5 124.5t121.5 323.5v906h105v-1434h-105v258q-55 -115 -166.5 -194.5t-261.5 -79.5q-106 0 -200.5 38.5t-163.5 107t-109.5 169.5t-40.5 221v914h105v-906zM709 1862h125l-254 -246h-103zM1016 1862h123l-252 -246h-105
z" />
    <glyph glyph-name="uhungarumlaut" unicode="&#x171;" 
d="M197 371v702h100v-688q0 -135 82.5 -222t214.5 -87q144 0 237 94t93 236v667h100v-1073h-100v215q-38 -106 -133.5 -168.5t-217.5 -62.5q-166 0 -271 111t-105 276zM610 1501h125l-254 -246h-102zM918 1501h122l-252 -246h-104z" />
    <glyph glyph-name="Uogonek" unicode="&#x172;" horiz-adv-x="1435" 
d="M289 528q0 -200 117.5 -324t298.5 -124q178 0 299.5 124.5t121.5 323.5v906h105v-1434q-95 -89 -130.5 -152t-35.5 -120q0 -50 29 -78.5t80 -28.5q44 0 71 8l10 -71q-53 -11 -90 -11q-89 0 -135.5 45.5t-46.5 120.5q0 68 33.5 134t120.5 153h-11v258
q-55 -115 -166.5 -194.5t-261.5 -79.5q-106 0 -200.5 38.5t-163.5 107t-109.5 169.5t-40.5 221v914h105v-906z" />
    <glyph glyph-name="uogonek" unicode="&#x173;" 
d="M197 371v702h100v-688q0 -135 82.5 -222t214.5 -87q144 0 237 94t93 236v667h100v-1073q-95 -89 -130.5 -152t-35.5 -120q0 -50 29 -78.5t80 -28.5q44 0 71 8l11 -71q-53 -11 -91 -11q-89 0 -135.5 45.5t-46.5 120.5q0 68 33.5 134t120.5 153h-6v215
q-38 -106 -133.5 -168.5t-217.5 -62.5q-166 0 -271 111t-105 276z" />
    <glyph glyph-name="Wcircumflex" unicode="&#x174;" horiz-adv-x="1896" 
d="M995 1434l408 -1260l309 1260h103l-365 -1434h-90l-412 1268l-411 -1268h-91l-364 1434h106l312 -1260l405 1260h90zM778 1618h-98l215 246h104l215 -246h-98l-168 176z" />
    <glyph glyph-name="wcircumflex" unicode="&#x175;" horiz-adv-x="1472" 
d="M694 1073h88l285 -901l248 901h102l-303 -1073h-86l-291 905l-293 -905h-86l-303 1073h105l248 -905zM565 1257h-98l215 246h104l215 -246h-98l-168 177z" />
    <glyph glyph-name="Ycircumflex" unicode="&#x176;" horiz-adv-x="1210" 
d="M657 0h-104v604l-543 830h119l479 -736l477 736h115l-543 -832v-602zM436 1618h-98l215 246h104l215 -246h-98l-168 176z" />
    <glyph glyph-name="ycircumflex" unicode="&#x177;" horiz-adv-x="980" 
d="M336 -238l106 267l-428 1044h103l379 -921l370 921h103l-537 -1321q-34 -87 -87.5 -136.5t-139.5 -49.5h-129v92h114q102 0 146 104zM326 1257h-99l215 246h105l215 -246h-98l-168 177z" />
    <glyph glyph-name="Ydieresis" unicode="&#x178;" horiz-adv-x="1210" 
d="M657 0h-104v604l-543 830h119l479 -736l477 736h115l-543 -832v-602zM449 1663q-31 0 -53.5 23.5t-22.5 54.5q0 32 22.5 55t53.5 23t53 -23t22 -55q0 -31 -22.5 -54.5t-52.5 -23.5zM764 1663q-31 0 -53.5 23.5t-22.5 54.5q0 32 22.5 55t53.5 23t53.5 -23t22.5 -55
q0 -31 -22.5 -54.5t-53.5 -23.5z" />
    <glyph glyph-name="Zacute" unicode="&#x179;" horiz-adv-x="1097" 
d="M88 1339v95h924v-74l-807 -1266h809v-94h-938v74l807 1265h-795zM668 1862h135l-256 -246h-105z" />
    <glyph glyph-name="zacute" unicode="&#x17a;" horiz-adv-x="933" 
d="M84 981v92h750v-74l-631 -907h643v-92h-768v74l633 907h-627zM592 1501h135l-256 -246h-104z" />
    <glyph glyph-name="Zdotaccent" unicode="&#x17b;" horiz-adv-x="1097" 
d="M88 1339v95h924v-74l-807 -1266h809v-94h-938v74l807 1265h-795zM539 1663q-31 0 -53.5 23.5t-22.5 54.5q0 32 22.5 55t53.5 23t53 -23t22 -55q0 -31 -22.5 -54.5t-52.5 -23.5z" />
    <glyph glyph-name="zdotaccent" unicode="&#x17c;" horiz-adv-x="933" 
d="M84 981v92h750v-74l-631 -907h643v-92h-768v74l633 907h-627zM463 1303q-31 0 -53.5 23t-22.5 54q0 32 22.5 55t53.5 23t53.5 -23t22.5 -55q0 -31 -22.5 -54t-53.5 -23z" />
    <glyph glyph-name="Zcaron" unicode="&#x17d;" horiz-adv-x="1097" 
d="M88 1339v95h924v-74l-807 -1266h809v-94h-938v74l807 1265h-795zM711 1862h98l-215 -246h-105l-215 246h99l170 -176z" />
    <glyph glyph-name="zcaron" unicode="&#x17e;" horiz-adv-x="933" 
d="M84 981v92h750v-74l-631 -907h643v-92h-768v74l633 907h-627zM635 1501h98l-215 -246h-104l-215 246h98l170 -176z" />
    <glyph glyph-name="florin" unicode="&#x192;" horiz-adv-x="757" 
d="M131 -225l180 1206h-235v92h250l36 244q30 196 183 196h200v-92h-186q-78 0 -96 -116l-35 -232h254v-92h-268l-183 -1219q-30 -196 -182 -196h-201v92h187q78 0 96 117z" />
    <glyph glyph-name="uni0218" unicode="&#x218;" 
d="M111 418h106q28 -161 139.5 -251.5t280.5 -90.5q159 0 253.5 76.5t94.5 207.5q0 106 -69 172.5t-224 110.5l-246 70q-154 42 -236.5 135.5t-82.5 220.5q0 170 122 276.5t314 106.5q203 0 338.5 -120.5t157.5 -319.5h-105q-22 164 -125.5 255t-269.5 91q-143 0 -235.5 -78
t-92.5 -201q0 -99 63.5 -165.5t194.5 -104.5l256 -74q347 -100 347 -364q0 -175 -124 -282t-329 -107q-217 0 -361 119t-167 317zM532 -430q41 7 71 38.5t30 63.5q0 16 -20 28.5t-40 30.5t-20 46t21 47.5t47 19.5q39 0 63.5 -31.5t24.5 -88.5q0 -78 -47.5 -137.5
t-129.5 -71.5v55z" />
    <glyph glyph-name="uni0219" unicode="&#x219;" horiz-adv-x="968" 
d="M504 -18q-168 0 -282.5 96t-135.5 241h100q18 -106 104.5 -176.5t215.5 -70.5q112 0 183 55.5t71 136.5t-56 130.5t-165 80.5l-162 45q-131 36 -202 106t-71 171q0 131 93.5 212t246.5 81q154 0 269 -93t135 -239h-103q-15 101 -100.5 171t-198.5 70q-111 0 -176 -53
t-65 -135q0 -143 196 -197l162 -45q141 -39 219 -115t78 -178q0 -132 -98.5 -213t-257.5 -81zM401 -430q41 7 71 38.5t30 63.5q0 16 -20 28.5t-40 30.5t-20 46t20.5 47.5t46.5 19.5q40 0 64.5 -31.5t24.5 -88.5q0 -78 -47.5 -137.5t-129.5 -71.5v55z" />
    <glyph glyph-name="uni021A" unicode="&#x21a;" horiz-adv-x="1247" 
d="M61 1339v95h1125v-95h-510v-1339h-105v1339h-510zM532 -430q41 7 71 38.5t30 63.5q0 16 -20 28.5t-40 30.5t-20 46t21 47.5t47 19.5q39 0 63.5 -31.5t24.5 -88.5q0 -78 -47.5 -137.5t-129.5 -71.5v55z" />
    <glyph glyph-name="uni021B" unicode="&#x21b;" horiz-adv-x="759" 
d="M500 0q-93 0 -148 50t-55 136v795h-221v92h221v328h100v-328h287v-92h-287v-784q0 -50 30 -77.5t85 -27.5h172v-92h-184zM377 -430q41 7 70.5 38.5t29.5 63.5q0 16 -20 28.5t-40 30.5t-20 46t21 47.5t47 19.5q39 0 63.5 -31.5t24.5 -88.5q0 -78 -47 -137.5t-129 -71.5v55
z" />
    <glyph glyph-name="uni0237" unicode="&#x237;" horiz-adv-x="493" 
d="M117 -434h-86v92h71q45 0 70 21.5t25 60.5v1333h100v-1343q0 -75 -48.5 -119.5t-131.5 -44.5z" />
    <glyph glyph-name="circumflex" unicode="&#x2c6;" horiz-adv-x="1024" 
d="M346 1198h-98l215 246h104l215 -246h-98l-168 176z" />
    <glyph glyph-name="caron" unicode="&#x2c7;" horiz-adv-x="1024" 
d="M684 1444h98l-215 -246h-104l-215 246h98l170 -176z" />
    <glyph glyph-name="breve" unicode="&#x2d8;" horiz-adv-x="1024" 
d="M512 1294q145 0 184 158l80 -25q-23 -102 -96 -159.5t-168 -57.5t-168 57t-96 160l80 25q39 -158 184 -158z" />
    <glyph glyph-name="dotaccent" unicode="&#x2d9;" horiz-adv-x="489" 
d="M240 1245q-31 0 -53.5 23.5t-22.5 54.5q0 32 22.5 55t53.5 23t53 -23t22 -55q0 -31 -22.5 -54.5t-52.5 -23.5z" />
    <glyph glyph-name="ring" unicode="&#x2da;" horiz-adv-x="1024" 
d="M512 1167q-84 0 -143.5 58.5t-59.5 140.5t59.5 140.5t143.5 58.5t143.5 -58.5t59.5 -140.5t-59.5 -140.5t-143.5 -58.5zM512 1233q57 0 95 38.5t38 94.5t-38 94.5t-95 38.5t-95 -38.5t-38 -94.5t38 -94.5t95 -38.5z" />
    <glyph glyph-name="ogonek" unicode="&#x2db;" horiz-adv-x="1024" 
d="M623 0q-95 -89 -130.5 -152t-35.5 -120q0 -50 28.5 -78.5t79.5 -28.5q45 0 72 8l10 -71q-53 -11 -90 -11q-89 0 -135.5 45.5t-46.5 120.5t40.5 148.5t149.5 175.5z" />
    <glyph glyph-name="tilde" unicode="&#x2dc;" horiz-adv-x="1024" 
d="M377 1432q29 0 65 -21.5t63.5 -47.5t57 -47.5t47.5 -21.5q29 0 49 29t48 111l71 -19q-30 -99 -70.5 -150t-97.5 -51q-29 0 -65 21.5t-64 47.5t-57.5 47.5t-46.5 21.5q-29 0 -48.5 -28.5t-47.5 -111.5l-72 19q30 99 70.5 150t97.5 51z" />
    <glyph glyph-name="hungarumlaut" unicode="&#x2dd;" horiz-adv-x="1024" 
d="M494 1444h124l-253 -246h-103zM801 1444h123l-252 -246h-105z" />
    <glyph glyph-name="uni09F3" unicode="&#x9f3;" horiz-adv-x="1187" 
d="M328 301q0 -227 227 -227q130 0 240.5 62.5t175.5 171t65 237.5q0 150 -76 253t-184 103q-68 0 -125 -41l-51 76q80 55 176 55q152 0 256.5 -130t104.5 -316q0 -152 -77 -281t-211 -204.5t-294 -75.5q-83 0 -148 25t-103 67t-57.5 92t-19.5 106v582h-166v92h166v336
q0 57 -67 57h-99v93h113q70 0 112 -37.5t42 -100.5v-348h147v-92h-147v-555z" />
    <glyph glyph-name="Wgrave" unicode="&#x1e80;" horiz-adv-x="1896" 
d="M995 1434l408 -1260l309 1260h103l-365 -1434h-90l-412 1268l-411 -1268h-91l-364 1434h106l312 -1260l405 1260h90zM813 1862l225 -246h-108l-252 246h135z" />
    <glyph glyph-name="wgrave" unicode="&#x1e81;" horiz-adv-x="1472" 
d="M694 1073h88l285 -901l248 901h102l-303 -1073h-86l-291 905l-293 -905h-86l-303 1073h105l248 -905zM600 1501l225 -246h-108l-252 246h135z" />
    <glyph glyph-name="Wacute" unicode="&#x1e82;" horiz-adv-x="1896" 
d="M995 1434l408 -1260l309 1260h103l-365 -1434h-90l-412 1268l-411 -1268h-91l-364 1434h106l312 -1260l405 1260h90zM1077 1862h135l-256 -246h-104z" />
    <glyph glyph-name="wacute" unicode="&#x1e83;" horiz-adv-x="1472" 
d="M694 1073h88l285 -901l248 901h102l-303 -1073h-86l-291 905l-293 -905h-86l-303 1073h105l248 -905zM864 1501h135l-256 -246h-104z" />
    <glyph glyph-name="Wdieresis" unicode="&#x1e84;" horiz-adv-x="1896" 
d="M995 1434l408 -1260l309 1260h103l-365 -1434h-90l-412 1268l-411 -1268h-91l-364 1434h106l312 -1260l405 1260h90zM791 1663q-31 0 -53.5 23.5t-22.5 54.5q0 32 22.5 55t53.5 23t53 -23t22 -55q0 -31 -22.5 -54.5t-52.5 -23.5zM1106 1663q-31 0 -53.5 23.5t-22.5 54.5
q0 32 22.5 55t53.5 23t53.5 -23t22.5 -55q0 -31 -22.5 -54.5t-53.5 -23.5z" />
    <glyph glyph-name="wdieresis" unicode="&#x1e85;" horiz-adv-x="1472" 
d="M694 1073h88l285 -901l248 901h102l-303 -1073h-86l-291 905l-293 -905h-86l-303 1073h105l248 -905zM578 1303q-31 0 -53.5 23t-22.5 54q0 32 22.5 55t53.5 23t53 -23t22 -55q0 -31 -22 -54t-53 -23zM893 1303q-31 0 -53.5 23t-22.5 54q0 32 22.5 55t53.5 23t53.5 -23
t22.5 -55q0 -31 -22.5 -54t-53.5 -23z" />
    <glyph glyph-name="Ygrave" unicode="&#x1ef2;" horiz-adv-x="1210" 
d="M657 0h-104v604l-543 830h119l479 -736l477 736h115l-543 -832v-602zM471 1862l225 -246h-108l-252 246h135z" />
    <glyph glyph-name="ygrave" unicode="&#x1ef3;" horiz-adv-x="980" 
d="M336 -238l106 267l-428 1044h103l379 -921l370 921h103l-537 -1321q-34 -87 -87.5 -136.5t-139.5 -49.5h-129v92h114q102 0 146 104zM360 1501l226 -246h-109l-252 246h135z" />
    <glyph glyph-name="uni2002" unicode="&#x2002;" horiz-adv-x="1024" 
 />
    <glyph glyph-name="uni2003" unicode="&#x2003;" horiz-adv-x="2048" 
 />
    <glyph glyph-name="uni2009" unicode="&#x2009;" horiz-adv-x="358" 
 />
    <glyph glyph-name="uni200A" unicode="&#x200a;" horiz-adv-x="204" 
 />
    <glyph glyph-name="uni200B" unicode="&#x200b;" horiz-adv-x="0" 
 />
    <glyph glyph-name="endash" unicode="&#x2013;" horiz-adv-x="1253" 
d="M154 565v92h946v-92h-946z" />
    <glyph glyph-name="emdash" unicode="&#x2014;" horiz-adv-x="1662" 
d="M154 565v92h1355v-92h-1355z" />
    <glyph glyph-name="uni2015" unicode="&#x2015;" horiz-adv-x="2072" 
d="M154 565v92h1765v-92h-1765z" />
    <glyph glyph-name="quoteleft" unicode="&#x2018;" horiz-adv-x="407" 
d="M285 1421q-54 -10 -92.5 -59t-38.5 -98q0 -15 14.5 -28t31.5 -21.5t31.5 -26.5t14.5 -43q0 -33 -22.5 -54.5t-51.5 -21.5q-43 0 -68.5 34.5t-25.5 98.5q0 106 55 186t152 97v-64z" />
    <glyph glyph-name="quoteright" unicode="&#x2019;" horiz-adv-x="407" 
d="M123 1128q54 10 92.5 59.5t38.5 98.5q0 15 -14.5 28t-31.5 21.5t-31.5 26.5t-14.5 43q0 33 22.5 54.5t51.5 21.5q43 0 68.5 -34.5t25.5 -98.5q0 -106 -55 -186t-152 -97v63z" />
    <glyph glyph-name="quotesinglbase" unicode="&#x201a;" horiz-adv-x="407" 
d="M80 -215q54 10 92.5 59.5t38.5 98.5q0 15 -14.5 28t-31.5 21t-31.5 26t-14.5 43q0 33 22.5 54.5t51.5 21.5q43 0 68.5 -34.5t25.5 -98.5q0 -106 -55 -186t-152 -97v64z" />
    <glyph glyph-name="quotedblleft" unicode="&#x201c;" horiz-adv-x="694" 
d="M285 1421q-54 -10 -92.5 -59t-38.5 -98q0 -15 14.5 -28t31.5 -21.5t31.5 -26.5t14.5 -43q0 -33 -22.5 -54.5t-51.5 -21.5q-43 0 -68.5 34.5t-25.5 98.5q0 106 55 186t152 97v-64zM571 1421q-54 -10 -92.5 -59t-38.5 -98q0 -15 14.5 -28t31.5 -21.5t31.5 -26.5t14.5 -43
q0 -33 -22 -54.5t-51 -21.5q-43 0 -68.5 34.5t-25.5 98.5q0 106 54.5 186t151.5 97v-64z" />
    <glyph glyph-name="quotedblright" unicode="&#x201d;" horiz-adv-x="694" 
d="M410 1128q54 10 92.5 59.5t38.5 98.5q0 15 -14.5 28t-31.5 21.5t-31.5 26.5t-14.5 43q0 33 22 54.5t51 21.5q43 0 68.5 -34.5t25.5 -98.5q0 -106 -54.5 -186t-151.5 -97v63zM123 1128q54 10 92.5 59.5t38.5 98.5q0 15 -14.5 28t-31.5 21.5t-31.5 26.5t-14.5 43
q0 33 22.5 54.5t51.5 21.5q43 0 68.5 -34.5t25.5 -98.5q0 -106 -55 -186t-152 -97v63z" />
    <glyph glyph-name="quotedblbase" unicode="&#x201e;" horiz-adv-x="694" 
d="M367 -215q54 10 92.5 59.5t38.5 98.5q0 15 -14.5 28t-31.5 21t-31.5 26t-14.5 43q0 33 22 54.5t51 21.5q43 0 68.5 -34.5t25.5 -98.5q0 -106 -54.5 -186t-151.5 -97v64zM80 -215q54 10 92.5 59.5t38.5 98.5q0 15 -14.5 28t-31.5 21t-31.5 26t-14.5 43q0 33 22.5 54.5
t51.5 21.5q43 0 68.5 -34.5t25.5 -98.5q0 -106 -55 -186t-152 -97v64z" />
    <glyph glyph-name="dagger" unicode="&#x2020;" horiz-adv-x="790" 
d="M346 0v928h-262v88h262v418h98v-418h265v-88h-265v-928h-98z" />
    <glyph glyph-name="daggerdbl" unicode="&#x2021;" horiz-adv-x="790" 
d="M346 0v418h-262v88h262v422h-262v88h262v418h98v-418h265v-88h-265v-422h265v-88h-265v-418h-98z" />
    <glyph glyph-name="bullet" unicode="&#x2022;" horiz-adv-x="460" 
d="M231 799q64 0 111 -48.5t47 -113.5q0 -67 -46.5 -115.5t-111.5 -48.5q-66 0 -112.5 48t-46.5 116q0 65 47 113.5t112 48.5z" />
    <glyph glyph-name="ellipsis" unicode="&#x2026;" horiz-adv-x="1161" 
d="M195 139q30 0 53.5 -24.5t23.5 -55.5q0 -33 -23 -56t-54 -23t-54.5 23t-23.5 56q0 31 23.5 55.5t54.5 24.5zM582 139q30 0 53.5 -24.5t23.5 -55.5q0 -33 -23 -56t-54 -23t-54.5 23t-23.5 56q0 31 23.5 55.5t54.5 24.5zM969 139q31 0 54.5 -24.5t23.5 -55.5
q0 -33 -23.5 -56t-54.5 -23t-54.5 23t-23.5 56q0 31 23.5 55.5t54.5 24.5z" />
    <glyph glyph-name="guilsinglleft" unicode="&#x2039;" horiz-adv-x="757" 
d="M680 1073l-492 -534l498 -539h-129l-504 537l504 536h123z" />
    <glyph glyph-name="guilsinglright" unicode="&#x203a;" horiz-adv-x="757" 
d="M78 0l491 535l-497 538h129l504 -536l-504 -537h-123z" />
    <glyph glyph-name="fraction" unicode="&#x2044;" horiz-adv-x="1148" 
d="M199 0h-97l793 1434h98z" />
    <glyph glyph-name="uni2070" unicode="&#x2070;" horiz-adv-x="727" 
d="M84 940v201q0 139 76 222t202 83q127 0 204 -83t77 -222v-201q0 -139 -77.5 -223t-203.5 -84t-202 84t-76 223zM553 944v193q0 107 -51.5 168t-139.5 61q-86 0 -137 -61.5t-51 -167.5v-193q0 -107 50.5 -168t137.5 -61q88 0 139.5 61t51.5 168z" />
    <glyph glyph-name="uni2074" unicode="&#x2074;" horiz-adv-x="681" 
d="M434 645v207h-389v68l365 514h116v-504h105v-78h-105v-207h-92zM147 930h287v411z" />
    <glyph glyph-name="uni2075" unicode="&#x2075;" horiz-adv-x="651" 
d="M330 1139q111 0 180.5 -70.5t69.5 -177.5q0 -109 -75 -183.5t-188 -74.5q-91 0 -159 41t-101 112l74 41q27 -55 74 -85.5t108 -30.5q75 0 125.5 51.5t50.5 126.5t-49 123.5t-125 48.5q-88 0 -151 -57l-74 10l19 420h419v-80h-342l-12 -275q63 60 156 60z" />
    <glyph glyph-name="uni2076" unicode="&#x2076;" horiz-adv-x="694" 
d="M365 1366q-91 0 -144 -79.5t-53 -233.5v-56q21 71 78 112.5t129 41.5q105 0 175.5 -72t70.5 -178q0 -117 -72.5 -192.5t-183.5 -75.5q-129 0 -207 100t-78 266v66q0 178 75.5 279.5t206.5 101.5q78 0 141 -39.5t97 -108.5l-72 -41q-26 51 -69 80t-94 29zM360 713
q75 0 125 51t50 129q0 79 -50 130.5t-125 51.5t-124.5 -51.5t-49.5 -130.5q0 -77 49.5 -128.5t124.5 -51.5z" />
    <glyph glyph-name="uni2077" unicode="&#x2077;" horiz-adv-x="616" 
d="M573 1366l-370 -721h-105l375 709h-428v80h528v-68z" />
    <glyph glyph-name="uni2078" unicode="&#x2078;" horiz-adv-x="675" 
d="M338 633q-114 0 -188 62.5t-74 160.5q0 71 43 124.5t114 72.5q-60 22 -95.5 70t-35.5 110q0 91 67 151t169 60t168.5 -60t66.5 -151q0 -62 -36 -110t-97 -70q71 -19 114.5 -72.5t43.5 -124.5q0 -98 -73 -160.5t-187 -62.5zM338 1087q64 0 104.5 39t40.5 101q0 63 -40 101
t-105 38t-106.5 -38.5t-41.5 -100.5q0 -61 41.5 -100.5t106.5 -39.5zM338 1012q-75 0 -123.5 -42.5t-48.5 -109.5t48.5 -109t123.5 -42t122.5 42t47.5 109t-48 109.5t-122 42.5z" />
    <glyph glyph-name="uni2079" unicode="&#x2079;" horiz-adv-x="694" 
d="M330 713q91 0 143.5 79.5t52.5 233.5v61q-20 -73 -77.5 -116t-129.5 -43q-105 0 -175 72t-70 178q0 117 72.5 192.5t183.5 75.5q128 0 206 -100.5t78 -266.5v-65q0 -177 -76 -279t-206 -102q-80 0 -142 39t-98 108l74 41q25 -51 69 -79.5t95 -28.5zM334 1366
q-75 0 -124.5 -51t-49.5 -129q0 -79 49.5 -130.5t124.5 -51.5q74 0 123 51.5t49 130.5q0 77 -49.5 128.5t-122.5 51.5z" />
    <glyph glyph-name="uni2080" unicode="&#x2080;" horiz-adv-x="727" 
d="M84 295v201q0 139 76 222t202 83q127 0 204 -83t77 -222v-201q0 -139 -77.5 -223t-203.5 -84t-202 84t-76 223zM553 299v193q0 107 -51.5 168t-139.5 61q-86 0 -137 -61.5t-51 -167.5v-193q0 -107 50.5 -168t137.5 -61q88 0 139.5 61t51.5 168z" />
    <glyph glyph-name="uni2081" unicode="&#x2081;" horiz-adv-x="530" 
d="M471 80v-80h-408v80h158v629h-147v79h239v-708h158z" />
    <glyph glyph-name="uni2082" unicode="&#x2082;" horiz-adv-x="608" 
d="M539 575q0 -66 -28 -120.5t-91 -122.5l-230 -252h357v-80h-484v59l287 316q53 59 76 100.5t23 93.5q0 66 -45 109t-113 43q-115 0 -172 -113l-72 39q34 71 98 111.5t148 40.5q108 0 177 -64t69 -160z" />
    <glyph glyph-name="uni2083" unicode="&#x2083;" horiz-adv-x="638" 
d="M299 799q103 0 171.5 -61t68.5 -152q0 -61 -33.5 -107t-89.5 -67q67 -22 108 -75.5t41 -123.5q0 -96 -72 -160.5t-184 -64.5q-92 0 -162 41.5t-104 111.5l76 41q26 -54 75.5 -85t112.5 -31q73 0 119.5 43.5t46.5 109.5q0 63 -41.5 104.5t-107.5 41.5h-97v77h88
q59 0 97.5 39t38.5 97q0 62 -44.5 102.5t-111.5 40.5q-56 0 -100 -29.5t-68 -79.5l-76 37q33 69 97.5 109.5t150.5 40.5z" />
    <glyph glyph-name="uni2084" unicode="&#x2084;" horiz-adv-x="681" 
d="M434 0v207h-389v67l365 514h116v-503h105v-78h-105v-207h-92zM147 285h287v411z" />
    <glyph glyph-name="uni2085" unicode="&#x2085;" horiz-adv-x="651" 
d="M330 494q111 0 180.5 -70.5t69.5 -177.5q0 -109 -75 -183.5t-188 -74.5q-91 0 -159 41t-101 112l74 41q27 -55 74 -85.5t108 -30.5q75 0 125.5 51.5t50.5 126.5t-49 123.5t-125 48.5q-87 0 -151 -58l-74 11l19 419h419v-79h-342l-12 -275q63 60 156 60z" />
    <glyph glyph-name="uni2086" unicode="&#x2086;" horiz-adv-x="694" 
d="M365 721q-91 0 -144 -79.5t-53 -233.5v-56q21 71 78 112.5t129 41.5q105 0 175.5 -72t70.5 -178q0 -117 -72.5 -192.5t-183.5 -75.5q-129 0 -207 100t-78 266v66q0 178 75.5 279.5t206.5 101.5q78 0 141 -39.5t97 -108.5l-72 -41q-26 51 -69 80t-94 29zM360 68
q75 0 125 51t50 129q0 79 -50 130.5t-125 51.5t-124.5 -51.5t-49.5 -130.5q0 -77 49.5 -128.5t124.5 -51.5z" />
    <glyph glyph-name="uni2087" unicode="&#x2087;" horiz-adv-x="616" 
d="M573 721l-370 -721h-105l375 709h-428v79h528v-67z" />
    <glyph glyph-name="uni2088" unicode="&#x2088;" horiz-adv-x="675" 
d="M338 -12q-114 0 -188 62.5t-74 160.5q0 71 43 124.5t114 72.5q-60 22 -95.5 70t-35.5 110q0 91 67 151t169 60t168.5 -60t66.5 -151q0 -62 -36 -110t-97 -70q71 -19 114.5 -72.5t43.5 -124.5q0 -98 -73 -160.5t-187 -62.5zM338 442q64 0 104.5 39t40.5 101q0 63 -40 101
t-105 38t-106.5 -38.5t-41.5 -100.5q0 -61 41.5 -100.5t106.5 -39.5zM338 367q-75 0 -123.5 -42.5t-48.5 -109.5t48.5 -109.5t123.5 -42.5t122.5 42.5t47.5 109.5t-48 109.5t-122 42.5z" />
    <glyph glyph-name="uni2089" unicode="&#x2089;" horiz-adv-x="694" 
d="M330 68q91 0 143.5 79.5t52.5 233.5v61q-20 -73 -77.5 -116t-129.5 -43q-105 0 -175 71.5t-70 177.5q0 117 72.5 193t183.5 76q128 0 206 -100.5t78 -266.5v-65q0 -177 -76 -279t-206 -102q-80 0 -142 39t-98 108l74 41q25 -51 69 -79.5t95 -28.5zM334 721
q-75 0 -124.5 -51t-49.5 -129q0 -79 49.5 -131t124.5 -52q74 0 123 52t49 131q0 77 -49.5 128.5t-122.5 51.5z" />
    <glyph glyph-name="uni20A9" unicode="&#x20a9;" horiz-adv-x="1916" 
d="M66 627h231l-47 186h-184v88h161l-135 533h109l129 -533h415l175 533h81l175 -533h415l129 533h105l-135 -533h161v-88h-184l-47 -186h231v-88h-254l-137 -539h-86l-176 539h-479l-176 -539h-86l-138 539h-253v88zM838 901h241l-121 369zM397 627h258l62 186h-365z
M748 627h421l-61 186h-299zM1266 627h258l45 186h-365zM418 539l88 -363l121 363h-209zM1294 539l121 -363l88 363h-209z" />
    <glyph glyph-name="Euro" unicode="&#x20ac;" horiz-adv-x="1419" 
d="M762 627l-29 -88h-409q24 -220 148.5 -341.5t303.5 -121.5q160 0 277 100.5t159 284.5h103q-45 -227 -191.5 -354t-347.5 -127q-221 0 -376 149t-181 410h-194v88h190v186h-190v88h196q27 258 181.5 405.5t373.5 147.5q201 0 347.5 -127t191.5 -354h-103
q-42 184 -159 284.5t-277 100.5q-177 0 -300.5 -120t-149.5 -337h532l-31 -88h-508v-186h443z" />
    <glyph glyph-name="uni20B9" unicode="&#x20b9;" horiz-adv-x="1103" 
d="M956 0h-141l-735 651v78h373q121 0 206.5 70t106.5 178h-686v94h688q-14 114 -102 191t-213 77h-373v95h946v-95h-307q65 -48 105.5 -117.5t47.5 -150.5h154v-94h-156q-21 -147 -136.5 -243.5t-280.5 -96.5h-220z" />
    <glyph glyph-name="trademark" unicode="&#x2122;" horiz-adv-x="1351" 
d="M653 1434h103l186 -455l182 455h105v-572h-80l4 451l-184 -451h-58l-182 447l2 -447h-78v572zM61 1434h488v-70h-203v-502h-82v502h-203v70z" />
    <glyph glyph-name="uni2190" unicode="&#x2190;" horiz-adv-x="2050" 
d="M236 717l561 768h116l-526 -719h1501v-98h-1501l526 -719h-116z" />
    <glyph glyph-name="uni2191" unicode="&#x2191;" horiz-adv-x="2048" 
d="M1024 1483l768 -561v-117l-719 526v-1501h-98v1501l-719 -526v117z" />
    <glyph glyph-name="uni2192" unicode="&#x2192;" horiz-adv-x="2050" 
d="M1137 1485h116l562 -768l-562 -768h-116l526 719h-1501v98h1501z" />
    <glyph glyph-name="uni2193" unicode="&#x2193;" horiz-adv-x="2048" 
d="M1792 459v-117l-768 -561l-768 561v117l719 -527v1502h98v-1502z" />
    <glyph glyph-name="minus" unicode="&#x2212;" horiz-adv-x="1124" 
d="M971 778v-90h-817v90h817z" />
    <glyph glyph-name="approxequal" unicode="&#x2248;" horiz-adv-x="1124" 
d="M346 897q-48 0 -90 -15.5t-102 -52.5v89q105 65 200 65q69 0 211.5 -54.5t214.5 -54.5q47 0 88 15.5t103 52.5v-88q-105 -63 -201 -63q-70 0 -212 53t-212 53zM346 584q-48 0 -90 -15.5t-102 -52.5v90q108 64 200 64q69 0 211.5 -54.5t214.5 -54.5q46 0 86.5 16t104.5 54
v-90q-106 -64 -201 -64q-70 0 -212 53.5t-212 53.5z" />
    <glyph glyph-name="notequal" unicode="&#x2260;" horiz-adv-x="1124" 
d="M156 295l194 240h-196v86h266l178 221h-444v86h514l196 241h107l-197 -241h197v-86h-266l-179 -221h445v-86h-514l-195 -240h-106z" />
    <glyph glyph-name="lessequal" unicode="&#x2264;" horiz-adv-x="1075" 
d="M911 1024l-684 -322l684 -315v-108l-800 376v99l800 376v-106zM111 467l800 -377v-108l-800 376v109z" />
    <glyph glyph-name="greaterequal" unicode="&#x2265;" horiz-adv-x="1075" 
d="M164 1024v106l801 -376v-99l-801 -376v108l684 315zM965 467v-109l-801 -376v108z" />
    <glyph glyph-name="check" unicode="&#x2713;" horiz-adv-x="2052" 
d="M1880 1229v-137l-1110 -1108l-598 596v137l598 -596z" />
    <glyph glyph-name="close" unicode="&#x2715;" horiz-adv-x="2052" 
d="M1747 1370l-649 -647l649 -649l-68 -68l-649 649l-649 -649l-68 68l650 649l-650 647l68 68l649 -650l649 650z" />
    <glyph glyph-name="fi" unicode="&#xfb01;" horiz-adv-x="1210" 
d="M76 981v92h223v244q0 91 51 143.5t139 52.5h463v-92h-448q-51 0 -78 -30t-27 -86v-232h615v-1073h-101v981h-514v-981h-100v981h-223z" />
    <glyph glyph-name="fl" unicode="&#xfb02;" horiz-adv-x="1210" 
d="M76 981v92h223v244q0 91 51 143.5t139 52.5h525v-1513h-101v1421h-409q-51 0 -78 -30t-27 -86v-232h285v-92h-285v-981h-100v981h-223z" />
    <glyph glyph-name="Uber" horiz-adv-x="4339" 
d="M315 549q0 -171 100 -276t253 -105q151 0 251.5 106.5t100.5 274.5v885h215v-1434h-213v133q-152 -158 -379 -158q-114 0 -214 40.5t-172.5 113t-114.5 178.5t-42 230v897h215v-885zM1395 0v1434h207v-523q72 74 167.5 115t202.5 41q113 0 215 -43t175 -116.5t116 -174.5
t43 -213q0 -148 -72.5 -273.5t-199 -198.5t-277.5 -73q-107 0 -204 41.5t-169 114.5v-131h-204zM1597 520q0 -151 105 -256.5t256 -105.5q148 0 253 106t105 256q0 152 -105 257.5t-253 105.5q-150 0 -255.5 -105.5t-105.5 -257.5zM2603 522q0 146 70 270.5t194 198.5
t273 74q225 0 373.5 -154.5t148.5 -388.5v-67h-850q22 -129 118.5 -213t227.5 -84q186 0 301 153l150 -110q-80 -106 -195.5 -165t-255.5 -59q-154 0 -281.5 71t-200.5 196t-73 278zM3135 885q-116 0 -203.5 -73.5t-115.5 -193.5h637q-26 120 -114 193.5t-204 73.5z
M4303 860h-86q-103 0 -168.5 -73t-65.5 -193v-594h-206v1044h204v-129q84 138 250 138h72v-193z" />
    <glyph glyph-name="idotaccent" horiz-adv-x="493" 
d="M248 1317q-31 0 -55.5 25.5t-24.5 56.5q0 33 24.5 57.5t55.5 24.5t55.5 -24.5t24.5 -57.5q0 -31 -24.5 -56.5t-55.5 -25.5zM297 1073v-1073h-100v1073h100z" />
    <glyph glyph-name="cordinal" horiz-adv-x="792" 
d="M416 666q-136 0 -224 91t-88 240v115q0 148 88 240t224 92q113 0 193 -65t106 -179h-92q-24 76 -78.5 120t-128.5 44q-100 0 -160.5 -71.5t-60.5 -188.5v-98q0 -117 60.5 -189t160.5 -72q76 0 130.5 43t76.5 119h92q-26 -110 -107.5 -175.5t-191.5 -65.5z" />
    <glyph glyph-name="a.school" 
d="M1026 0h-100v217q-48 -108 -145.5 -170.5t-223.5 -62.5q-182 0 -301 130t-119 335v176q0 206 118.5 335.5t301.5 129.5q126 0 223.5 -63t145.5 -171v217h100v-1073zM926 612q0 173 -95 280t-249 107t-248 -107t-94 -280v-151q0 -173 94 -280t248 -107t249 107t95 280v151
z" />
    <glyph glyph-name="aacute.school" 
d="M1026 0h-100v217q-48 -108 -145.5 -170.5t-223.5 -62.5q-182 0 -301 130t-119 335v176q0 206 118.5 335.5t301.5 129.5q126 0 223.5 -63t145.5 -171v217h100v-1073zM926 612q0 173 -95 280t-249 107t-248 -107t-94 -280v-151q0 -173 94 -280t248 -107t249 107t95 280v151
zM713 1501h135l-256 -246h-105z" />
    <glyph glyph-name="abreve.school" 
d="M1026 0h-100v217q-48 -108 -145.5 -170.5t-223.5 -62.5q-182 0 -301 130t-119 335v176q0 206 118.5 335.5t301.5 129.5q126 0 223.5 -63t145.5 -171v217h100v-1073zM926 612q0 173 -95 280t-249 107t-248 -107t-94 -280v-151q0 -173 94 -280t248 -107t249 107t95 280v151
zM584 1352q146 0 184 157l80 -24q-23 -102 -96 -159.5t-168 -57.5q-96 0 -169 57t-96 160l80 24q38 -157 185 -157z" />
    <glyph glyph-name="acircumflex.school" 
d="M1026 0h-100v217q-48 -108 -145.5 -170.5t-223.5 -62.5q-182 0 -301 130t-119 335v176q0 206 118.5 335.5t301.5 129.5q126 0 223.5 -63t145.5 -171v217h100v-1073zM926 612q0 173 -95 280t-249 107t-248 -107t-94 -280v-151q0 -173 94 -280t248 -107t249 107t95 280v151
zM414 1257h-99l215 246h105l215 -246h-98l-168 177z" />
    <glyph glyph-name="adieresis.school" 
d="M1026 0h-100v217q-48 -108 -145.5 -170.5t-223.5 -62.5q-182 0 -301 130t-119 335v176q0 206 118.5 335.5t301.5 129.5q126 0 223.5 -63t145.5 -171v217h100v-1073zM926 612q0 173 -95 280t-249 107t-248 -107t-94 -280v-151q0 -173 94 -280t248 -107t249 107t95 280v151
zM426 1303q-31 0 -53.5 23t-22.5 54q0 32 22.5 55t53.5 23t53.5 -23t22.5 -55q0 -31 -22.5 -54t-53.5 -23zM741 1303q-31 0 -53 23t-22 54q0 32 22 55t53 23t53.5 -23t22.5 -55q0 -31 -22.5 -54t-53.5 -23z" />
    <glyph glyph-name="agrave.school" 
d="M1026 0h-100v217q-48 -108 -145.5 -170.5t-223.5 -62.5q-182 0 -301 130t-119 335v176q0 206 118.5 335.5t301.5 129.5q126 0 223.5 -63t145.5 -171v217h100v-1073zM926 612q0 173 -95 280t-249 107t-248 -107t-94 -280v-151q0 -173 94 -280t248 -107t249 107t95 280v151
zM449 1501l225 -246h-109l-252 246h136z" />
    <glyph glyph-name="amacron.school" 
d="M1026 0h-100v217q-48 -108 -145.5 -170.5t-223.5 -62.5q-182 0 -301 130t-119 335v176q0 206 118.5 335.5t301.5 129.5q126 0 223.5 -63t145.5 -171v217h100v-1073zM926 612q0 173 -95 280t-249 107t-248 -107t-94 -280v-151q0 -173 94 -280t248 -107t249 107t95 280v151
zM827 1401v-80h-489v80h489z" />
    <glyph glyph-name="aogonek.school" 
d="M1026 0q-95 -89 -130.5 -152t-35.5 -120q0 -50 29 -78.5t80 -28.5q44 0 71 8l11 -71q-53 -11 -90 -11q-89 0 -136 45.5t-47 120.5q0 68 33.5 134t120.5 153h-6v217q-48 -108 -145.5 -170.5t-223.5 -62.5q-182 0 -301 130t-119 335v176q0 206 118.5 335.5t301.5 129.5
q126 0 223.5 -63t145.5 -171v217h100v-1073zM926 612q0 173 -95 280t-249 107t-248 -107t-94 -280v-151q0 -173 94 -280t248 -107t249 107t95 280v151z" />
    <glyph glyph-name="aring.school" 
d="M1026 0h-100v217q-48 -108 -145.5 -170.5t-223.5 -62.5q-182 0 -301 130t-119 335v176q0 206 118.5 335.5t301.5 129.5q126 0 223.5 -63t145.5 -171v217h100v-1073zM926 612q0 173 -95 280t-249 107t-248 -107t-94 -280v-151q0 -173 94 -280t248 -107t249 107t95 280v151
zM584 1225q-85 0 -144 58t-59 140t59.5 140.5t143.5 58.5t143 -58.5t59 -140.5t-59 -140t-143 -58zM584 1290q57 0 95 38.5t38 94.5t-38 94.5t-95 38.5t-95 -38.5t-38 -94.5t38 -94.5t95 -38.5z" />
    <glyph glyph-name="atilde.school" 
d="M1026 0h-100v217q-48 -108 -145.5 -170.5t-223.5 -62.5q-182 0 -301 130t-119 335v176q0 206 118.5 335.5t301.5 129.5q126 0 223.5 -63t145.5 -171v217h100v-1073zM926 612q0 173 -95 280t-249 107t-248 -107t-94 -280v-151q0 -173 94 -280t248 -107t249 107t95 280v151
zM467 1489q37 0 83.5 -34.5t87 -68.5t62.5 -34q29 0 49 28.5t48 110.5l71 -18q-30 -99 -70.5 -150t-97.5 -51q-29 0 -65 21.5t-64 47t-57.5 47t-46.5 21.5q-29 0 -48.5 -28.5t-47.5 -110.5l-72 18q30 99 70.5 150t97.5 51z" />
    <glyph glyph-name="caronSlovak" horiz-adv-x="342" 
d="M63 1051l43 383h115l-74 -383h-84z" />
    <glyph glyph-name="uni00200326" horiz-adv-x="399" 
d="M94 -430q41 7 71 38.5t30 63.5q0 16 -20 28.5t-40 30.5t-20 46t20.5 47.5t46.5 19.5q39 0 63.5 -31.5t24.5 -88.5q0 -78 -47 -137.5t-129 -71.5v55z" />
    <glyph glyph-name="colon.alt" horiz-adv-x="407" 
d="M195 420q30 0 53.5 -24.5t23.5 -55.5q0 -33 -23 -56.5t-54 -23.5t-54.5 23.5t-23.5 56.5q0 31 23.5 55.5t54.5 24.5zM195 1110q30 0 53.5 -24.5t23.5 -55.5q0 -33 -23 -56.5t-54 -23.5t-54.5 23.5t-23.5 56.5q0 31 23.5 55.5t54.5 24.5z" />
    <glyph glyph-name="reversequoteleft" horiz-adv-x="407" 
d="M285 1149v-64q-96 14 -151.5 95.5t-55.5 187.5q0 64 25.5 98.5t68.5 34.5q29 0 51.5 -21.5t22.5 -54.5q0 -25 -14.5 -43t-31.5 -26t-31.5 -19.5t-14.5 -25.5q0 -52 38 -102t93 -60z" />
    <glyph glyph-name="reversequotedblleft" horiz-adv-x="694" 
d="M285 1149v-64q-96 14 -151.5 95.5t-55.5 187.5q0 64 25.5 98.5t68.5 34.5q29 0 51.5 -21.5t22.5 -54.5q0 -25 -14.5 -43t-31.5 -26t-31.5 -19.5t-14.5 -25.5q0 -52 38 -102t93 -60zM571 1149v-64q-96 14 -151 95.5t-55 187.5q0 64 25.5 98.5t68.5 34.5q29 0 51 -21.5
t22 -54.5q0 -25 -14.5 -43t-31.5 -26t-31.5 -19.5t-14.5 -25.5q0 -52 38 -102t93 -60z" />
    <glyph glyph-name="at.cap" horiz-adv-x="1708" 
d="M825 352q-146 0 -247 102.5t-101 250.5q0 146 101.5 248t246.5 102q78 0 145.5 -33.5t114.5 -91.5v112h97v-458q0 -53 31 -87t87 -34q82 0 135.5 82t53.5 205q0 135 -48.5 251t-133 196t-202 125.5t-251.5 45.5q-174 0 -320.5 -87t-231.5 -237.5t-85 -328.5t85 -327.5
t231.5 -235.5t320.5 -86q258 0 438 147l60 -68q-207 -165 -498 -165q-150 0 -285 57.5t-233 155.5t-155.5 234.5t-57.5 287.5t57.5 288t155 235.5t233 157t285.5 58.5q206 0 373 -88.5t262.5 -249t95.5 -362.5q0 -169 -85 -273t-202 -104q-147 0 -196 121q-47 -68 -119 -107
t-158 -39zM831 440q106 0 181 78t75 187t-75 185.5t-181 76.5q-107 0 -181.5 -76.5t-74.5 -185.5q0 -110 74.5 -187.5t181.5 -77.5z" />
    <glyph glyph-name="dollar.alt" horiz-adv-x="1058" 
d="M578 -129h-97v168q-169 22 -280 129t-131 272h102q26 -150 127 -234.5t256 -84.5q145 0 227 70t82 188q0 99 -60.5 162.5t-197.5 105.5l-217 68q-147 45 -224 131.5t-77 202.5q0 160 110.5 257t282.5 97v153h97v-161q158 -25 258.5 -132t117.5 -270h-100
q-22 154 -118.5 238t-250.5 84q-129 0 -213 -72t-84 -182q0 -92 58 -153t182 -101l229 -74q310 -98 310 -338q0 -161 -106.5 -258t-282.5 -102v-164z" />
    <glyph glyph-name="NTD" horiz-adv-x="3518" 
d="M3066 -119h-88v156q-154 22 -255 119.5t-120 249.5h94q22 -119 94.5 -193.5t186.5 -93.5v510l-80 24q-139 43 -213 123t-74 187q0 148 103.5 237.5t263.5 89.5v140h88v-146q146 -22 239.5 -120.5t110.5 -250.5h-92q-17 118 -84 192.5t-174 94.5v-502l78 -24
q293 -89 293 -309q0 -152 -103 -242t-268 -90v-152zM297 0h-92v1317h110l801 -1186l-4 1186h92v-1317h-108l-803 1186zM1450 1231v86h1032v-86h-469v-1231h-96v1231h-467zM2933 737l45 -14v483q-120 -3 -197.5 -68.5t-77.5 -164.5q0 -85 55.5 -141t174.5 -95zM3097 594
l-31 10v-491q130 4 203 68t73 169q0 91 -57.5 148.5t-187.5 95.5z" />
    </font>
</defs>
</svg>
